<svg height="512" viewBox="0 0 512 512" width="512" xmlns="http://www.w3.org/2000/svg"><path d="m29.871 289.7 10.281-12.257a61.881 61.881 0 0 1 -9.752-10.243l-12.8 9.6a77.874 77.874 0 0 0 12.271 12.9z"/><path d="m71.031 292.988a85.047 85.047 0 0 1 -16.418-6.136l-7.14 14.32a101.223 101.223 0 0 0 19.5 7.293z"/><path d="m88.523 295.8-1.046 15.97q3.557.234 7.171.23h9.352v-16h-9.352q-3.081 0-6.125-.2z"/><path d="m17.6 451.2 12.8 9.6a61.881 61.881 0 0 1 9.754-10.239l-10.283-12.256a77.874 77.874 0 0 0 -12.271 12.895z"/><path d="m47.473 426.828 7.14 14.32a85.047 85.047 0 0 1 16.418-6.136l-4.054-15.477a101.223 101.223 0 0 0 -19.504 7.293z"/><path d="m87.477 416.23 1.046 15.97q3.042-.2 6.125-.2h9.352v-16h-9.352q-3.609 0-7.171.23z"/><path d="m25.566 328.156-3.132 15.688 2.851.57q6.51 1.307 13.16 2.387l2.563-15.801q-6.352-1.026-12.582-2.277z"/><path d="m54.785 349.1q8.139.978 16.418 1.625l1.242-15.953q-7.933-.622-15.761-1.555z"/><path d="m87.691 351.684q8.127.316 16.309.316v-16q-7.863 0-15.684-.3z"/><path d="m25.293 383.586-2.859.57 3.132 15.688 2.868-.571q6.216-1.248 12.574-2.273l-2.563-15.8q-6.645 1.084-13.152 2.386z"/><path d="m54.785 378.9 1.9 15.883q7.821-.932 15.761-1.555l-1.246-15.951q-8.271.645-16.415 1.623z"/><path d="m88.316 392.3q7.81-.3 15.684-.3v-16q-8.18 0-16.309.316z"/><path d="m494.4 276.8-12.8-9.6a61.923 61.923 0 0 1 -9.754 10.239l10.283 12.261a77.874 77.874 0 0 0 12.271-12.9z"/><path d="m440.969 292.988 4.054 15.477a101.223 101.223 0 0 0 19.5-7.293l-7.14-14.32a85.047 85.047 0 0 1 -16.414 6.136z"/><path d="m417.352 296h-9.352v16h9.352q3.609 0 7.171-.23l-1.046-15.97q-3.042.2-6.125.2z"/><path d="m482.129 438.305-10.281 12.257a61.923 61.923 0 0 1 9.752 10.238l12.8-9.6a77.874 77.874 0 0 0 -12.271-12.895z"/><path d="m440.969 435.012a85.047 85.047 0 0 1 16.418 6.136l7.14-14.32a101.223 101.223 0 0 0 -19.5-7.293z"/><path d="m408 416v16h9.352q3.081 0 6.125.2l1.046-15.969q-3.557-.234-7.171-.23z"/><path d="m486.707 344.414 2.859-.57-3.132-15.688-2.868.571q-6.216 1.248-12.574 2.277l2.563 15.8q6.645-1.087 13.152-2.39z"/><path d="m457.215 349.1-1.9-15.883q-7.821.932-15.761 1.555l1.242 15.953q8.274-.647 16.419-1.625z"/><path d="m423.684 335.7q-7.811.3-15.684.3v16q8.179 0 16.309-.316z"/><path d="m486.434 399.844 3.132-15.688-2.851-.57q-6.51-1.307-13.16-2.387l-2.563 15.801q6.352 1.026 12.582 2.277z"/><path d="m457.215 378.9q-8.139-.978-16.418-1.625l-1.242 15.953q7.933.622 15.761 1.555z"/><path d="m424.309 376.316q-8.127-.316-16.309-.316v16q7.863 0 15.684.3z"/><ellipse cx="256" cy="88" rx="72" ry="24"/><path d="m352 32h-192a24.027 24.027 0 0 0 -24 24v64a24.028 24.028 0 0 0 24 24h192a24.028 24.028 0 0 0 24-24v-64a24.027 24.027 0 0 0 -24-24zm-36.46 86.055c-16.033 6.413-37.178 9.945-59.54 9.945s-43.507-3.532-59.54-9.945c-18.353-7.341-28.46-18.014-28.46-30.055s10.107-22.714 28.46-30.055c16.033-6.413 37.178-9.945 59.54-9.945s43.507 3.532 59.54 9.945c18.353 7.341 28.46 18.014 28.46 30.055s-10.107 22.714-28.46 30.055z"/><path d="m160 464a39.8 39.8 0 0 1 -15.5-3.127 24.04 24.04 0 0 0 23.5 19.127h176a24.04 24.04 0 0 0 23.5-19.127 39.8 39.8 0 0 1 -15.5 3.127z"/><path d="m160 160a39.788 39.788 0 0 1 -24-8.022v272.022a24.027 24.027 0 0 0 24 24h192a24.027 24.027 0 0 0 24-24v-272.022a39.788 39.788 0 0 1 -24 8.022zm8 272h-16v-16h16zm0-32h-16v-16h16zm0-32h-16v-16h16zm0-32h-16v-16h16zm0-32h-16v-16h16zm32 128h-16v-16h16zm0-32h-16v-16h16zm0-32h-16v-16h16zm0-32h-16v-16h16zm0-32h-16v-16h16zm32 128h-16v-16h16zm0-32h-16v-16h16zm0-32h-16v-16h16zm0-32h-16v-16h16zm0-32h-16v-16h16zm32 128h-16v-16h16zm0-32h-16v-16h16zm0-32h-16v-16h16zm0-32h-16v-16h16zm0-32h-16v-16h16zm32 128h-16v-16h16zm0-32h-16v-16h16zm0-32h-16v-16h16zm0-32h-16v-16h16zm0-32h-16v-16h16zm-40-48a40 40 0 1 1 40-40 40.045 40.045 0 0 1 -40 40zm72 176h-16v-16h16zm0-32h-16v-16h16zm0-32h-16v-16h16zm0-32h-16v-16h16zm0-32h-16v-16h16zm32 128h-16v-16h16zm0-32h-16v-16h16zm0-32h-16v-16h16zm0-32h-16v-16h16zm0-32h-16v-16h16z"/><circle cx="256" cy="216" r="24"/></svg>