<?xml version="1.0" encoding="UTF-8" standalone="no"?>
<!DOCTYPE svg PUBLIC "-//W3C//DTD SVG 1.1//EN" "http://www.w3.org/Graphics/SVG/1.1/DTD/svg11.dtd">
<svg version="1.1" xmlns="http://www.w3.org/2000/svg" xmlns:xlink="http://www.w3.org/1999/xlink" preserveAspectRatio="xMidYMid meet" viewBox="0 0 640 640" width="640" height="640"><defs><path d="M483.35 570.71C488.28 570.71 492.29 574.72 492.29 579.65C492.29 581.58 492.29 578.42 492.29 580.35C492.29 585.28 488.28 589.29 483.35 589.29C415.42 589.29 220.58 589.29 152.65 589.29C147.72 589.29 143.71 585.28 143.71 580.35C143.71 578.42 143.71 581.58 143.71 579.65C143.71 574.72 147.72 570.71 152.65 570.71C220.58 570.71 415.42 570.71 483.35 570.71Z" id="a1uDrCiG9k"></path><path d="M249.17 263.44L249.83 263.48L250.47 263.53L251.1 263.6L251.73 263.68L252.34 263.77L252.95 263.88L253.55 264.01L254.13 264.14L254.7 264.29L255.27 264.45L255.81 264.63L256.35 264.81L256.87 265.01L257.38 265.22L257.87 265.43L258.35 265.66L258.81 265.9L259.26 266.15L259.69 266.41L260.1 266.68L260.5 266.96L260.87 267.25L261.23 267.54L261.57 267.84L261.89 268.15L262.19 268.47L262.46 268.8L262.72 269.13L262.95 269.47L263.17 269.82L263.36 270.17L263.52 270.53L263.66 270.89L263.78 271.26L263.87 271.63L263.94 272.01L263.98 272.39L263.99 272.78L263.99 288.15L301.65 288.15L301.65 272.78L301.66 272.39L301.7 272.01L301.77 271.63L301.86 271.26L301.97 270.89L302.12 270.53L302.28 270.17L302.47 269.82L302.68 269.47L302.92 269.13L303.17 268.8L303.45 268.47L303.75 268.15L304.07 267.84L304.4 267.54L304.76 267.25L305.14 266.96L305.53 266.68L305.95 266.41L306.38 266.15L306.82 265.9L307.28 265.66L307.76 265.43L308.26 265.22L308.76 265.01L309.29 264.81L309.82 264.63L310.37 264.45L310.93 264.29L311.51 264.14L312.09 264.01L312.69 263.88L313.29 263.77L313.91 263.68L314.53 263.6L315.17 263.53L315.81 263.48L316.46 263.44L317.12 263.41L317.78 263.41L318.45 263.41L319.11 263.44L319.76 263.48L320.4 263.53L321.04 263.6L321.66 263.68L322.28 263.77L322.88 263.88L323.48 264.01L324.06 264.14L324.64 264.29L325.2 264.45L325.75 264.63L326.28 264.81L326.81 265.01L327.31 265.22L327.81 265.43L328.28 265.66L328.75 265.9L329.19 266.15L329.62 266.41L330.04 266.68L330.43 266.96L330.81 267.25L331.17 267.54L331.5 267.84L331.82 268.15L332.12 268.47L332.4 268.8L332.65 269.13L332.89 269.47L333.1 269.82L333.29 270.17L333.45 270.53L333.59 270.89L333.71 271.26L333.8 271.63L333.87 272.01L333.91 272.39L333.92 272.78L333.92 288.15L371.58 288.15L371.58 272.78L371.59 272.39L371.63 272.01L371.7 271.63L371.79 271.26L371.91 270.89L372.05 270.53L372.21 270.17L372.4 269.82L372.61 269.47L372.85 269.13L373.1 268.8L373.38 268.47L373.68 268.15L374 267.84L374.34 267.54L374.69 267.25L375.07 266.96L375.47 266.68L375.88 266.41L376.31 266.15L376.75 265.9L377.22 265.66L377.7 265.43L378.19 265.22L378.7 265.01L379.22 264.81L379.75 264.63L380.3 264.45L380.87 264.29L381.44 264.14L382.02 264.01L382.62 263.88L383.23 263.77L383.84 263.68L384.47 263.6L385.1 263.53L385.74 263.48L386.39 263.44L387.05 263.41L387.72 263.41L388.38 263.41L389.04 263.44L389.69 263.48L390.33 263.53L390.97 263.6L391.59 263.68L392.21 263.77L392.82 263.88L393.41 264.01L394 264.14L394.57 264.29L395.13 264.45L395.68 264.63L396.22 264.81L396.74 265.01L397.25 265.22L397.74 265.43L398.22 265.66L398.68 265.9L399.13 266.15L399.56 266.41L399.97 266.68L400.36 266.96L400.74 267.25L401.1 267.54L401.44 267.84L401.76 268.15L402.05 268.47L402.33 268.8L402.59 269.13L402.82 269.47L403.03 269.82L403.22 270.17L403.39 270.53L403.53 270.89L403.64 271.26L403.74 271.63L403.8 272.01L403.84 272.39L403.86 272.78L403.86 288.15L489.93 288.15L489.93 560L145.64 560L145.64 288.15L231.71 288.15L231.71 272.78L231.73 272.39L231.77 272.01L231.83 271.63L231.92 271.26L232.04 270.89L232.18 270.53L232.35 270.17L232.54 269.82L232.75 269.47L232.98 269.13L233.24 268.8L233.52 268.47L233.81 268.15L234.13 267.84L234.47 267.54L234.83 267.25L235.21 266.96L235.6 266.68L236.01 266.41L236.44 266.15L236.89 265.9L237.35 265.66L237.83 265.43L238.32 265.22L238.83 265.01L239.35 264.81L239.89 264.63L240.44 264.45L241 264.29L241.57 264.14L242.16 264.01L242.75 263.88L243.36 263.77L243.98 263.68L244.6 263.6L245.24 263.53L245.88 263.48L246.53 263.44L247.19 263.41L247.85 263.41L248.52 263.41L249.17 263.44ZM177.92 531.88L457.65 531.88L457.65 316.28L403.86 316.28L403.86 329.02L403.84 329.41L403.8 329.79L403.74 330.17L403.64 330.54L403.53 330.91L403.39 331.28L403.22 331.63L403.03 331.99L402.82 332.33L402.59 332.67L402.33 333L402.05 333.33L401.76 333.65L401.44 333.96L401.1 334.26L400.74 334.56L400.36 334.85L399.97 335.12L399.56 335.39L399.13 335.65L398.68 335.9L398.22 336.14L397.74 336.37L397.25 336.59L396.74 336.8L396.22 336.99L395.68 337.18L395.13 337.35L394.57 337.51L394 337.66L393.41 337.8L392.82 337.92L392.21 338.03L391.59 338.13L390.97 338.21L390.33 338.28L389.69 338.33L389.04 338.37L388.38 338.39L387.72 338.4L387.05 338.39L386.39 338.37L385.74 338.33L385.1 338.28L384.47 338.21L383.84 338.13L383.23 338.03L382.62 337.92L382.02 337.8L381.44 337.66L380.87 337.51L380.3 337.35L379.75 337.18L379.22 336.99L378.7 336.8L378.19 336.59L377.7 336.37L377.22 336.14L376.75 335.9L376.31 335.65L375.88 335.39L375.47 335.12L375.07 334.85L374.69 334.56L374.34 334.26L374 333.96L373.68 333.65L373.38 333.33L373.1 333L372.85 332.67L372.61 332.33L372.4 331.99L372.21 331.63L372.05 331.28L371.91 330.91L371.79 330.54L371.7 330.17L371.63 329.79L371.59 329.41L371.58 329.02L371.58 316.28L333.92 316.28L333.92 329.02L333.91 329.41L333.87 329.79L333.8 330.17L333.71 330.54L333.59 330.91L333.45 331.28L333.29 331.63L333.1 331.99L332.89 332.33L332.65 332.67L332.4 333L332.12 333.33L331.82 333.65L331.5 333.96L331.17 334.26L330.81 334.56L330.43 334.85L330.04 335.12L329.62 335.39L329.19 335.65L328.75 335.9L328.28 336.14L327.81 336.37L327.31 336.59L326.81 336.8L326.28 336.99L325.75 337.18L325.2 337.35L324.64 337.51L324.06 337.66L323.48 337.8L322.88 337.92L322.28 338.03L321.66 338.13L321.04 338.21L320.4 338.28L319.76 338.33L319.11 338.37L318.45 338.39L317.78 338.4L317.12 338.39L316.46 338.37L315.81 338.33L315.17 338.28L314.53 338.21L313.91 338.13L313.29 338.03L312.69 337.92L312.09 337.8L311.51 337.66L310.93 337.51L310.37 337.35L309.82 337.18L309.29 336.99L308.76 336.8L308.26 336.59L307.76 336.37L307.28 336.14L306.82 335.9L306.38 335.65L305.95 335.39L305.53 335.12L305.14 334.85L304.76 334.56L304.4 334.26L304.07 333.96L303.75 333.65L303.45 333.33L303.17 333L302.92 332.67L302.68 332.33L302.47 331.99L302.28 331.63L302.12 331.28L301.97 330.91L301.86 330.54L301.77 330.17L301.7 329.79L301.66 329.41L301.65 329.02L301.65 316.28L263.99 316.28L263.99 329.02L263.98 329.41L263.94 329.79L263.87 330.17L263.78 330.54L263.66 330.91L263.52 331.28L263.36 331.63L263.17 331.99L262.95 332.33L262.72 332.67L262.46 333L262.19 333.33L261.89 333.65L261.57 333.96L261.23 334.26L260.87 334.56L260.5 334.85L260.1 335.12L259.69 335.39L259.26 335.65L258.81 335.9L258.35 336.14L257.87 336.37L257.38 336.59L256.87 336.8L256.35 336.99L255.81 337.18L255.27 337.35L254.7 337.51L254.13 337.66L253.55 337.8L252.95 337.92L252.34 338.03L251.73 338.13L251.1 338.21L250.47 338.28L249.83 338.33L249.17 338.37L248.52 338.39L247.85 338.4L247.19 338.39L246.53 338.37L245.88 338.33L245.24 338.28L244.6 338.21L243.98 338.13L243.36 338.03L242.75 337.92L242.16 337.8L241.57 337.66L241 337.51L240.44 337.35L239.89 337.18L239.35 336.99L238.83 336.8L238.32 336.59L237.83 336.37L237.35 336.14L236.89 335.9L236.44 335.65L236.01 335.39L235.6 335.12L235.21 334.85L234.83 334.56L234.47 334.26L234.13 333.96L233.81 333.65L233.52 333.33L233.24 333L232.98 332.67L232.75 332.33L232.54 331.99L232.35 331.63L232.18 331.28L232.04 330.91L231.92 330.54L231.83 330.17L231.77 329.79L231.73 329.41L231.71 329.02L231.71 316.28L177.92 316.28L177.92 531.88ZM371.58 507.13L371.58 471L413.05 471L413.05 507.13L371.58 507.13ZM220.95 507.13L220.95 471L262.43 471L262.43 507.13L220.95 507.13ZM297.83 507.13L297.83 471L339.3 471L339.3 507.13L297.83 507.13ZM297.83 449.52L297.83 413.39L339.3 413.39L339.3 449.52L297.83 449.52ZM220.95 449.52L220.95 413.39L262.43 413.39L262.43 449.52L220.95 449.52ZM371.58 449.52L371.58 413.39L413.05 413.39L413.05 449.52L371.58 449.52ZM297.83 393.28L297.83 357.15L339.3 357.15L339.3 393.28L297.83 393.28ZM220.95 393.28L220.95 357.15L262.43 357.15L262.43 393.28L220.95 393.28ZM371.58 393.28L371.58 357.15L413.05 357.15L413.05 393.28L371.58 393.28Z" id="b84r2o0dLd"></path><path d="M470.2 75.29C480.89 75.29 489.55 83.95 489.55 94.64C489.55 143.71 489.55 271.57 489.55 320.64C489.55 331.33 480.89 340 470.2 340C405.33 340 230.08 340 165.21 340C154.52 340 145.86 331.33 145.86 320.64C145.86 271.57 145.86 143.71 145.86 94.64C145.86 83.95 154.52 75.29 165.21 75.29C230.08 75.29 405.33 75.29 470.2 75.29Z" id="bjr05qwL5"></path><path d="M440 139.27C440 160.41 387.81 177.57 323.54 177.57C259.26 177.57 207.07 160.41 207.07 139.27C207.07 118.14 259.26 100.98 323.54 100.98C387.81 100.98 440 118.14 440 139.27Z" id="f3GL1B9u7n"></path><path d="M350 260C350 275.06 336.56 287.29 320 287.29C303.44 287.29 290 275.06 290 260C290 244.94 303.44 232.71 320 232.71C336.56 232.71 350 244.94 350 260Z" id="ccfZp4fei"></path><path d="M480.22 192.99C482.42 192.98 484.2 194.75 484.2 196.95C484.21 199.3 484.22 202.38 484.22 204.74C484.23 206.93 482.46 208.71 480.26 208.72C413.91 208.88 218.84 209.37 152.49 209.54C150.3 209.54 148.51 207.77 148.51 205.58C148.5 203.23 148.5 200.14 148.49 197.79C148.48 195.6 150.26 193.82 152.45 193.81C218.8 193.64 413.87 193.15 480.22 192.99Z" id="i1ATZ3kj6"></path><path d="M33.26 337.88L8.17 322" id="d9s1rR4vG"></path><path d="M65 362L39.29 347.17" id="b1dz50odZa"></path><path d="M97.86 376.83L72.14 362" id="a1yHAlpFdi"></path><path d="M137.86 396.83L112.14 382" id="d3wFWZRtJV"></path><path d="M30.71 373.69L5 358.86" id="a3ei0p1B73"></path><path d="M61.78 390.83L36.07 376" id="a23VLNqUy"></path><path d="M98.57 400.59L71.43 388.58" id="d49py8ESk4"></path><path d="M137.86 422L112.14 407.17" id="g2gElsArJ5"></path><path d="M46.88 439.78L17.41 436.19" id="anG438bzZ"></path><path d="M51.48 407.89L24.23 396.11" id="b2ZIdnP7lZ"></path><path d="M90.71 432.55L65 417.71" id="jIqQ6ZJLX"></path><path d="M135 442L109.29 427.17" id="djygnk1FX"></path><path d="M12.14 589.42L37.86 574.58" id="c3EdvizDSc"></path><path d="M45 569.42L70.71 554.58" id="eTHxCXvSg"></path><path d="M79.29 549.42L105 534.58" id="aCwItTY3"></path><path d="M109.29 529.42L135 514.58" id="b1wVMBFSG6"></path><path d="M25.19 519.72L54.47 514.78" id="a8KOY4BT4"></path><path d="M109 502L135.92 489.5" id="f5FalKJoV"></path><path d="M-723.31 555.43L-693.65 554.21" id="a1r0CclDFH"></path><path d="M-684.92 552.95L-655.26 551.73" id="a1hoTJD445"></path><path d="M15.34 476.43L45 475.21" id="a2zpfDroWi"></path><path d="M87.72 448.23L58.57 442.6" id="brEZupIOl"></path><path d="M135.78 459.95L107.34 451.44" id="b3x6AbSxdx"></path><path d="M65.44 510.89L94.22 503.61" id="bcpN3yWD5"></path><path d="M55.34 476.43L85 475.21" id="a3ZYPXDDB"></path><path d="M110.17 474.86L139.83 473.64" id="a1Iw8nZylP"></path><path d="M5.59 546.45L34.07 538.05" id="d2mqdGdtOv"></path><path d="M85 527L111.92 514.5" id="cTk6ZYbYN"></path><path d="M45.44 535.89L74.22 528.61" id="eIbNuad8d"></path><path d="M568.83 549.58L594.55 564.42" id="b5AoZzsSde"></path><path d="M535.97 534.75L561.69 549.58" id="aS2mDwsmr"></path><path d="M495.97 514.75L521.69 529.58" id="a6f2t2mDJ"></path><path d="M603.12 537.89L628.83 552.73" id="ajnQLU7my"></path><path d="M572.05 520.75L597.76 535.58" id="a8d0kbfl4"></path><path d="M535.26 511L562.41 523" id="a14fD6qWAs"></path><path d="M495.97 489.58L521.69 504.42" id="fm2DbglXY"></path><path d="M586.95 471.8L616.42 475.39" id="a9Askdgvq"></path><path d="M582.35 503.69L609.6 515.48" id="a9BC89Oqku"></path><path d="M543.12 479.03L568.83 493.87" id="a8lsDlrgy"></path><path d="M498.83 469.58L524.55 484.42" id="a1DeHjymkG"></path><path d="M621.69 322.17L595.97 337" id="b1bvqA3oX1"></path><path d="M588.83 342.17L563.12 357" id="h1LTgefomv"></path><path d="M554.55 362.17L528.83 377" id="aHt1kRV1C"></path><path d="M524.55 382.17L498.83 397" id="c1orrNKi2K"></path><path d="M608.64 391.86L579.36 396.8" id="d2Gg7OtnEP"></path><path d="M524.83 409.58L497.91 422.09" id="a1wrTkVCra"></path><path d="M618.49 435.15L588.83 436.37" id="d26utfVZG"></path><path d="M546.11 463.35L575.26 468.98" id="a7StZkP3xO"></path><path d="M498.05 451.63L526.49 460.14" id="bNb8Dd77A"></path><path d="M568.39 400.69L539.61 407.97" id="a7r3w6C8Dr"></path><path d="M578.49 435.15L548.83 436.37" id="a12lIUzu1D"></path><path d="M523.66 436.73L494 437.94" id="c1b3kFaDCZ"></path><path d="M628.24 365.13L599.76 373.53" id="g2Gg5e6Fi1"></path><path d="M548.83 384.58L521.91 397.09" id="fknWpTu82"></path><path d="M588.39 375.69L559.61 382.97" id="a23nBa0jaK"></path></defs><g><g><g><use xlink:href="#a1uDrCiG9k" opacity="1" fill="#439bf3" fill-opacity="1"></use><g><use xlink:href="#a1uDrCiG9k" opacity="1" fill-opacity="0" stroke="#ffffff" stroke-width="1" stroke-opacity="1"></use></g></g><g><use xlink:href="#b84r2o0dLd" opacity="1" fill="#439bf3" fill-opacity="1"></use></g><g><use xlink:href="#bjr05qwL5" opacity="1" fill="#439bf3" fill-opacity="1"></use></g><g><use xlink:href="#f3GL1B9u7n" opacity="1" fill="#439bf3" fill-opacity="1"></use><g><use xlink:href="#f3GL1B9u7n" opacity="1" fill-opacity="0" stroke="#ffffff" stroke-width="10" stroke-opacity="1"></use></g></g><g><use xlink:href="#ccfZp4fei" opacity="1" fill="#439bf3" fill-opacity="1"></use><g><use xlink:href="#ccfZp4fei" opacity="1" fill-opacity="0" stroke="#ffffff" stroke-width="20" stroke-opacity="1"></use></g></g><g><use xlink:href="#i1ATZ3kj6" opacity="1" fill="#ffffff" fill-opacity="1"></use></g><g><g><use xlink:href="#d9s1rR4vG" opacity="1" fill-opacity="0" stroke="#439bf3" stroke-width="5" stroke-opacity="1"></use></g></g><g><g><use xlink:href="#b1dz50odZa" opacity="1" fill-opacity="0" stroke="#439bf3" stroke-width="5" stroke-opacity="1"></use></g></g><g><g><use xlink:href="#a1yHAlpFdi" opacity="1" fill-opacity="0" stroke="#439bf3" stroke-width="5" stroke-opacity="1"></use></g></g><g><g><use xlink:href="#d3wFWZRtJV" opacity="1" fill-opacity="0" stroke="#439bf3" stroke-width="5" stroke-opacity="1"></use></g></g><g><g><use xlink:href="#a3ei0p1B73" opacity="1" fill-opacity="0" stroke="#439bf3" stroke-width="5" stroke-opacity="1"></use></g></g><g><g><use xlink:href="#a23VLNqUy" opacity="1" fill-opacity="0" stroke="#439bf3" stroke-width="5" stroke-opacity="1"></use></g></g><g><g><use xlink:href="#d49py8ESk4" opacity="1" fill-opacity="0" stroke="#439bf3" stroke-width="5" stroke-opacity="1"></use></g></g><g><g><use xlink:href="#g2gElsArJ5" opacity="1" fill-opacity="0" stroke="#439bf3" stroke-width="5" stroke-opacity="1"></use></g></g><g><g><use xlink:href="#anG438bzZ" opacity="1" fill-opacity="0" stroke="#439bf3" stroke-width="5" stroke-opacity="1"></use></g></g><g><g><use xlink:href="#b2ZIdnP7lZ" opacity="1" fill-opacity="0" stroke="#439bf3" stroke-width="5" stroke-opacity="1"></use></g></g><g><g><use xlink:href="#jIqQ6ZJLX" opacity="1" fill-opacity="0" stroke="#439bf3" stroke-width="5" stroke-opacity="1"></use></g></g><g><g><use xlink:href="#djygnk1FX" opacity="1" fill-opacity="0" stroke="#439bf3" stroke-width="5" stroke-opacity="1"></use></g></g><g><g><use xlink:href="#c3EdvizDSc" opacity="1" fill-opacity="0" stroke="#439bf3" stroke-width="6" stroke-opacity="1"></use></g></g><g><g><use xlink:href="#eTHxCXvSg" opacity="1" fill-opacity="0" stroke="#439bf3" stroke-width="6" stroke-opacity="1"></use></g></g><g><g><use xlink:href="#aCwItTY3" opacity="1" fill-opacity="0" stroke="#439bf3" stroke-width="6" stroke-opacity="1"></use></g></g><g><g><use xlink:href="#b1wVMBFSG6" opacity="1" fill-opacity="0" stroke="#439bf3" stroke-width="6" stroke-opacity="1"></use></g></g><g><g><use xlink:href="#a8KOY4BT4" opacity="1" fill-opacity="0" stroke="#439bf3" stroke-width="6" stroke-opacity="1"></use></g></g><g><g><use xlink:href="#f5FalKJoV" opacity="1" fill-opacity="0" stroke="#439bf3" stroke-width="6" stroke-opacity="1"></use></g></g><g><g><use xlink:href="#a1r0CclDFH" opacity="1" fill-opacity="0" stroke="#439bf3" stroke-width="6" stroke-opacity="1"></use></g></g><g><g><use xlink:href="#a1hoTJD445" opacity="1" fill-opacity="0" stroke="#439bf3" stroke-width="6" stroke-opacity="1"></use></g></g><g><g><use xlink:href="#a2zpfDroWi" opacity="1" fill-opacity="0" stroke="#439bf3" stroke-width="6" stroke-opacity="1"></use></g></g><g><g><use xlink:href="#brEZupIOl" opacity="1" fill-opacity="0" stroke="#439bf3" stroke-width="5" stroke-opacity="1"></use></g></g><g><g><use xlink:href="#b3x6AbSxdx" opacity="1" fill-opacity="0" stroke="#439bf3" stroke-width="5" stroke-opacity="1"></use></g></g><g><g><use xlink:href="#bcpN3yWD5" opacity="1" fill-opacity="0" stroke="#439bf3" stroke-width="6" stroke-opacity="1"></use></g></g><g><g><use xlink:href="#a3ZYPXDDB" opacity="1" fill-opacity="0" stroke="#439bf3" stroke-width="6" stroke-opacity="1"></use></g></g><g><g><use xlink:href="#a1Iw8nZylP" opacity="1" fill-opacity="0" stroke="#439bf3" stroke-width="6" stroke-opacity="1"></use></g></g><g><g><use xlink:href="#d2mqdGdtOv" opacity="1" fill-opacity="0" stroke="#439bf3" stroke-width="6" stroke-opacity="1"></use></g></g><g><g><use xlink:href="#cTk6ZYbYN" opacity="1" fill-opacity="0" stroke="#439bf3" stroke-width="6" stroke-opacity="1"></use></g></g><g><g><use xlink:href="#eIbNuad8d" opacity="1" fill-opacity="0" stroke="#439bf3" stroke-width="6" stroke-opacity="1"></use></g></g><g><g><use xlink:href="#b5AoZzsSde" opacity="1" fill-opacity="0" stroke="#439bf3" stroke-width="5" stroke-opacity="1"></use></g></g><g><g><use xlink:href="#aS2mDwsmr" opacity="1" fill-opacity="0" stroke="#439bf3" stroke-width="5" stroke-opacity="1"></use></g></g><g><g><use xlink:href="#a6f2t2mDJ" opacity="1" fill-opacity="0" stroke="#439bf3" stroke-width="5" stroke-opacity="1"></use></g></g><g><g><use xlink:href="#ajnQLU7my" opacity="1" fill-opacity="0" stroke="#439bf3" stroke-width="5" stroke-opacity="1"></use></g></g><g><g><use xlink:href="#a8d0kbfl4" opacity="1" fill-opacity="0" stroke="#439bf3" stroke-width="5" stroke-opacity="1"></use></g></g><g><g><use xlink:href="#a14fD6qWAs" opacity="1" fill-opacity="0" stroke="#439bf3" stroke-width="5" stroke-opacity="1"></use></g></g><g><g><use xlink:href="#fm2DbglXY" opacity="1" fill-opacity="0" stroke="#439bf3" stroke-width="5" stroke-opacity="1"></use></g></g><g><g><use xlink:href="#a9Askdgvq" opacity="1" fill-opacity="0" stroke="#439bf3" stroke-width="5" stroke-opacity="1"></use></g></g><g><g><use xlink:href="#a9BC89Oqku" opacity="1" fill-opacity="0" stroke="#439bf3" stroke-width="5" stroke-opacity="1"></use></g></g><g><g><use xlink:href="#a8lsDlrgy" opacity="1" fill-opacity="0" stroke="#439bf3" stroke-width="5" stroke-opacity="1"></use></g></g><g><g><use xlink:href="#a1DeHjymkG" opacity="1" fill-opacity="0" stroke="#439bf3" stroke-width="5" stroke-opacity="1"></use></g></g><g><g><use xlink:href="#b1bvqA3oX1" opacity="1" fill-opacity="0" stroke="#439bf3" stroke-width="6" stroke-opacity="1"></use></g></g><g><g><use xlink:href="#h1LTgefomv" opacity="1" fill-opacity="0" stroke="#439bf3" stroke-width="6" stroke-opacity="1"></use></g></g><g><g><use xlink:href="#aHt1kRV1C" opacity="1" fill-opacity="0" stroke="#439bf3" stroke-width="6" stroke-opacity="1"></use></g></g><g><g><use xlink:href="#c1orrNKi2K" opacity="1" fill-opacity="0" stroke="#439bf3" stroke-width="6" stroke-opacity="1"></use></g></g><g><g><use xlink:href="#d2Gg7OtnEP" opacity="1" fill-opacity="0" stroke="#439bf3" stroke-width="6" stroke-opacity="1"></use></g></g><g><g><use xlink:href="#a1wrTkVCra" opacity="1" fill-opacity="0" stroke="#439bf3" stroke-width="6" stroke-opacity="1"></use></g></g><g><g><use xlink:href="#d26utfVZG" opacity="1" fill-opacity="0" stroke="#439bf3" stroke-width="6" stroke-opacity="1"></use></g></g><g><g><use xlink:href="#a7StZkP3xO" opacity="1" fill-opacity="0" stroke="#439bf3" stroke-width="5" stroke-opacity="1"></use></g></g><g><g><use xlink:href="#bNb8Dd77A" opacity="1" fill-opacity="0" stroke="#439bf3" stroke-width="5" stroke-opacity="1"></use></g></g><g><g><use xlink:href="#a7r3w6C8Dr" opacity="1" fill-opacity="0" stroke="#439bf3" stroke-width="6" stroke-opacity="1"></use></g></g><g><g><use xlink:href="#a12lIUzu1D" opacity="1" fill-opacity="0" stroke="#439bf3" stroke-width="6" stroke-opacity="1"></use></g></g><g><g><use xlink:href="#c1b3kFaDCZ" opacity="1" fill-opacity="0" stroke="#439bf3" stroke-width="6" stroke-opacity="1"></use></g></g><g><g><use xlink:href="#g2Gg5e6Fi1" opacity="1" fill-opacity="0" stroke="#439bf3" stroke-width="6" stroke-opacity="1"></use></g></g><g><g><use xlink:href="#fknWpTu82" opacity="1" fill-opacity="0" stroke="#439bf3" stroke-width="6" stroke-opacity="1"></use></g></g><g><g><use xlink:href="#a23nBa0jaK" opacity="1" fill-opacity="0" stroke="#439bf3" stroke-width="6" stroke-opacity="1"></use></g></g><path></path></g></g></svg>