<?xml version="1.0" encoding="UTF-8" standalone="no"?>
<!DOCTYPE svg PUBLIC "-//W3C//DTD SVG 1.1//EN" "http://www.w3.org/Graphics/SVG/1.1/DTD/svg11.dtd">
<svg version="1.1" xmlns="http://www.w3.org/2000/svg" xmlns:xlink="http://www.w3.org/1999/xlink" preserveAspectRatio="xMidYMid meet" viewBox="0 0 640 640" width="640" height="640"><defs><path d="M365.45 487.48C257.61 513.13 149.32 446.74 123.77 339.32C98.22 231.9 165.03 123.86 272.87 98.21C380.71 72.56 489 138.95 514.55 246.37C540.1 353.79 473.3 461.83 365.45 487.48Z" id="dme5Wvb2v"></path><clipPath id="clipc2X8xg9lgw"><use xlink:href="#dme5Wvb2v" opacity="1"></use></clipPath><path d="M374.16 515.89C382.02 515.89 388.39 522.26 388.39 530.12C388.39 548.09 388.39 587.8 388.39 605.77C388.39 613.63 382.02 620 374.16 620C349.65 620 290.35 620 265.84 620C257.98 620 251.61 613.63 251.61 605.77C251.61 587.8 251.61 548.09 251.61 530.12C251.61 522.26 257.98 515.89 265.84 515.89C290.35 515.89 349.65 515.89 374.16 515.89Z" id="a1O8xvoCXs"></path><path d="M99.61 336.13C100.64 338.36 99.68 340.99 97.46 342.02C90.62 345.2 74.12 352.85 67.29 356.02C65.06 357.05 62.43 356.09 61.4 353.87C61.02 353.06 61.77 354.67 61.4 353.87C60.37 351.64 61.33 349.01 63.55 347.98C70.39 344.8 86.89 337.15 93.72 333.98C95.95 332.95 98.58 333.91 99.61 336.13C99.99 336.94 99.24 335.33 99.61 336.13Z" id="d28Nqrgj6x"></path><path d="M99.97 248.56C99.7 250.99 97.51 252.75 95.08 252.48C87.58 251.66 69.51 249.67 62.02 248.84C59.58 248.58 57.83 246.38 58.09 243.95C58.19 243.07 58 244.83 58.09 243.95C58.36 241.52 60.55 239.76 62.99 240.03C70.48 240.85 88.56 242.84 96.05 243.67C98.48 243.93 100.24 246.13 99.97 248.56C99.87 249.44 100.07 247.68 99.97 248.56Z" id="b2rpOAFESb"></path><path d="M148.41 436.95C149.98 438.83 149.72 441.62 147.84 443.19C142.05 448.02 128.08 459.66 122.29 464.48C120.41 466.05 117.61 465.8 116.04 463.91C115.34 463.07 116.06 463.93 115.35 463.09C113.79 461.2 114.04 458.41 115.92 456.84C121.71 452.01 135.68 440.37 141.47 435.55C143.36 433.98 146.15 434.24 147.72 436.12C148.43 436.96 147.71 436.1 148.41 436.95Z" id="a3zHHCfJRm"></path><path d="M320 31.67C322.45 31.67 324.43 33.65 324.43 36.1C324.43 43.64 324.43 61.82 324.43 69.36C324.43 71.81 322.45 73.8 320 73.8C319.11 73.8 320.89 73.8 320 73.8C317.55 73.8 315.57 71.81 315.57 69.36C315.57 61.82 315.57 43.64 315.57 36.1C315.57 33.65 317.55 31.67 320 31.67C320.89 31.67 319.11 31.67 320 31.67Z" id="m1yuzCWP30"></path><path d="M458.28 71.68C460.22 73.19 460.57 75.97 459.07 77.91C454.45 83.87 443.31 98.24 438.69 104.19C437.19 106.13 434.41 106.48 432.47 104.98C431.77 104.44 433.17 105.53 432.47 104.98C430.53 103.48 430.18 100.7 431.68 98.76C436.3 92.8 447.44 78.43 452.06 72.47C453.56 70.54 456.35 70.18 458.28 71.68C458.98 72.23 457.58 71.14 458.28 71.68Z" id="dpkEfcn8"></path><path d="M505.34 172.59C503.87 170.62 504.28 167.84 506.24 166.38C512.29 161.88 526.87 151.01 532.92 146.51C534.88 145.04 537.66 145.45 539.12 147.41C539.65 148.12 538.59 146.7 539.12 147.41C540.58 149.38 540.18 152.16 538.21 153.62C532.17 158.12 517.59 168.99 511.54 173.49C509.58 174.96 506.8 174.55 505.34 172.59C504.81 171.88 505.87 173.3 505.34 172.59Z" id="f1vSMgdUZ"></path><path d="M540.1 256.51C539.58 254.11 541.1 251.75 543.49 251.23C550.86 249.63 568.63 245.77 576 244.16C578.39 243.64 580.75 245.16 581.27 247.56C581.46 248.42 581.08 246.69 581.27 247.56C581.79 249.95 580.27 252.31 577.88 252.83C570.51 254.43 552.74 258.3 545.38 259.9C542.98 260.42 540.62 258.9 540.1 256.51C539.91 255.64 540.29 257.37 540.1 256.51Z" id="e1KXhpoHFL"></path><path d="M504.78 478.19C503.33 480.17 500.55 480.59 498.58 479.14C492.5 474.67 477.85 463.9 471.78 459.44C469.8 457.99 469.38 455.21 470.83 453.24C471.36 452.52 470.31 453.95 470.83 453.24C472.28 451.26 475.06 450.84 477.03 452.29C483.11 456.76 497.76 467.53 503.83 471.99C505.8 473.44 506.23 476.22 504.78 478.19C504.25 478.91 505.3 477.48 504.78 478.19Z" id="bYddiYfvF"></path><path d="M93.33 142.58C94.35 140.36 96.99 139.38 99.21 140.41C106.06 143.56 122.57 151.17 129.42 154.33C131.64 155.35 132.62 157.99 131.59 160.21C131.22 161.02 131.96 159.41 131.59 160.21C130.57 162.44 127.93 163.41 125.71 162.38C118.86 159.23 102.35 151.62 95.5 148.46C93.28 147.44 92.3 144.8 93.33 142.58C93.7 141.77 92.96 143.39 93.33 142.58Z" id="buTQucT7"></path><path d="M567.62 371.99C566.62 374.22 563.99 375.21 561.76 374.21C554.88 371.11 538.31 363.64 531.43 360.54C529.2 359.54 528.21 356.91 529.21 354.68C529.58 353.87 528.85 355.49 529.21 354.68C530.22 352.45 532.84 351.45 535.08 352.46C541.95 355.56 558.53 363.02 565.4 366.12C567.63 367.13 568.63 369.75 567.62 371.99C567.26 372.8 567.99 371.18 567.62 371.99Z" id="a1RsmdIppX"></path><path d="M187.45 65.29C189.42 63.83 192.19 64.24 193.65 66.21C198.14 72.26 208.98 86.87 213.47 92.92C214.93 94.89 214.52 97.67 212.55 99.13C211.84 99.66 213.26 98.6 212.55 99.13C210.58 100.59 207.81 100.17 206.35 98.21C201.86 92.15 191.02 77.55 186.53 71.49C185.07 69.53 185.48 66.75 187.45 65.29C188.16 64.76 186.74 65.82 187.45 65.29Z" id="beKi7D1ya"></path><path d="M400.38 533.38C404.03 533.38 407 536.34 407 540C407 541.32 407 538.68 407 540C407 543.66 404.03 546.62 400.38 546.62C365.7 546.62 268.3 546.62 233.62 546.62C229.97 546.62 227 543.66 227 540C227 538.68 227 541.32 227 540C227 536.34 229.97 533.38 233.62 533.38C268.3 533.38 365.7 533.38 400.38 533.38Z" id="awldd5SKa"></path><path d="M400.04 563.38C403.7 563.38 406.67 566.34 406.67 570C406.67 571.32 406.67 568.68 406.67 570C406.67 573.66 403.7 576.62 400.04 576.62C365.37 576.62 267.97 576.62 233.29 576.62C229.63 576.62 226.67 573.66 226.67 570C226.67 568.68 226.67 571.32 226.67 570C226.67 566.34 229.63 563.38 233.29 563.38C267.97 563.38 365.37 563.38 400.04 563.38Z" id="a3sB5YWs7H"></path><path d="M400.04 593.38C403.7 593.38 406.67 596.34 406.67 600C406.67 601.32 406.67 598.68 406.67 600C406.67 603.66 403.7 606.62 400.04 606.62C365.37 606.62 267.97 606.62 233.29 606.62C229.63 606.62 226.67 603.66 226.67 600C226.67 598.68 226.67 601.32 226.67 600C226.67 596.34 229.63 593.38 233.29 593.38C267.97 593.38 365.37 593.38 400.04 593.38Z" id="cIJkPgfzk"></path></defs><g><g><g><use xlink:href="#dme5Wvb2v" opacity="1" fill="#439bf3" fill-opacity="1"></use><g clip-path="url(#clipc2X8xg9lgw)"><use xlink:href="#dme5Wvb2v" opacity="1" fill-opacity="0" stroke="#439bf3" stroke-width="4" stroke-opacity="1"></use></g></g><g><use xlink:href="#a1O8xvoCXs" opacity="1" fill="#439bf3" fill-opacity="1"></use></g><g><use xlink:href="#d28Nqrgj6x" opacity="1" fill="#439bf3" fill-opacity="1"></use><g><use xlink:href="#d28Nqrgj6x" opacity="1" fill-opacity="0" stroke="#439bf3" stroke-width="1" stroke-opacity="1"></use></g></g><g><use xlink:href="#b2rpOAFESb" opacity="1" fill="#439bf3" fill-opacity="1"></use><g><use xlink:href="#b2rpOAFESb" opacity="1" fill-opacity="0" stroke="#439bf3" stroke-width="1" stroke-opacity="1"></use></g></g><g><use xlink:href="#a3zHHCfJRm" opacity="1" fill="#439bf3" fill-opacity="1"></use><g><use xlink:href="#a3zHHCfJRm" opacity="1" fill-opacity="0" stroke="#439bf3" stroke-width="1" stroke-opacity="1"></use></g></g><g><use xlink:href="#m1yuzCWP30" opacity="1" fill="#439bf3" fill-opacity="1"></use><g><use xlink:href="#m1yuzCWP30" opacity="1" fill-opacity="0" stroke="#439bf3" stroke-width="1" stroke-opacity="1"></use></g></g><g><use xlink:href="#dpkEfcn8" opacity="1" fill="#439bf3" fill-opacity="1"></use><g><use xlink:href="#dpkEfcn8" opacity="1" fill-opacity="0" stroke="#439bf3" stroke-width="1" stroke-opacity="1"></use></g></g><g><use xlink:href="#f1vSMgdUZ" opacity="1" fill="#439bf3" fill-opacity="1"></use><g><use xlink:href="#f1vSMgdUZ" opacity="1" fill-opacity="0" stroke="#439bf3" stroke-width="1" stroke-opacity="1"></use></g></g><g><use xlink:href="#e1KXhpoHFL" opacity="1" fill="#439bf3" fill-opacity="1"></use><g><use xlink:href="#e1KXhpoHFL" opacity="1" fill-opacity="0" stroke="#439bf3" stroke-width="1" stroke-opacity="1"></use></g></g><g><use xlink:href="#bYddiYfvF" opacity="1" fill="#439bf3" fill-opacity="1"></use><g><use xlink:href="#bYddiYfvF" opacity="1" fill-opacity="0" stroke="#439bf3" stroke-width="0" stroke-opacity="1"></use></g></g><g><use xlink:href="#buTQucT7" opacity="1" fill="#439bf3" fill-opacity="1"></use><g><use xlink:href="#buTQucT7" opacity="1" fill-opacity="0" stroke="#439bf3" stroke-width="1" stroke-opacity="1"></use></g></g><g><use xlink:href="#a1RsmdIppX" opacity="1" fill="#439bf3" fill-opacity="1"></use><g><use xlink:href="#a1RsmdIppX" opacity="1" fill-opacity="0" stroke="#439bf3" stroke-width="1" stroke-opacity="1"></use></g></g><g><use xlink:href="#beKi7D1ya" opacity="1" fill="#439bf3" fill-opacity="1"></use><g><use xlink:href="#beKi7D1ya" opacity="1" fill-opacity="0" stroke="#439bf3" stroke-width="1" stroke-opacity="1"></use></g></g><g><use xlink:href="#awldd5SKa" opacity="1" fill="#439bf3" fill-opacity="1"></use></g><g><use xlink:href="#a3sB5YWs7H" opacity="1" fill="#439bf3" fill-opacity="1"></use></g><g><use xlink:href="#cIJkPgfzk" opacity="1" fill="#439bf3" fill-opacity="1"></use></g></g></g></svg>