<?xml version="1.0" encoding="UTF-8" standalone="no"?>
<!DOCTYPE svg PUBLIC "-//W3C//DTD SVG 1.1//EN" "http://www.w3.org/Graphics/SVG/1.1/DTD/svg11.dtd">
<svg version="1.1" xmlns="http://www.w3.org/2000/svg" xmlns:xlink="http://www.w3.org/1999/xlink" preserveAspectRatio="xMidYMid meet" viewBox="0 0 640 640" width="640" height="640"><defs><path d="M480.86 251.43C480.86 300.31 417.94 340 340.43 340C262.92 340 200 300.31 200 251.43C200 202.55 262.92 162.86 340.43 162.86C417.94 162.86 480.86 202.55 480.86 251.43Z" id="dy3yZMHFS"></path><path d="M470.09 242.17C477.15 242.17 482.88 247.9 482.88 254.97C482.88 301.68 482.88 429.02 482.88 475.73C482.88 482.8 477.15 488.53 470.09 488.53C415.87 488.53 266.01 488.53 211.8 488.53C204.73 488.53 199 482.8 199 475.73C199 429.02 199 301.68 199 254.97C199 247.9 204.73 242.17 211.8 242.17C266.01 242.17 415.87 242.17 470.09 242.17Z" id="d1Ws6zoikB"></path><path d="M461.69 231.81C469.54 231.81 475.91 238.18 475.91 246.03C475.91 258.47 475.91 281.53 475.91 293.97C475.91 301.82 469.54 308.19 461.69 308.19C410.17 308.19 269.83 308.19 218.31 308.19C210.46 308.19 204.09 301.82 204.09 293.97C204.09 281.53 204.09 258.47 204.09 246.03C204.09 238.18 210.46 231.81 218.31 231.81C269.83 231.81 410.17 231.81 461.69 231.81Z" id="b95uK0nhM"></path><path d="M155.64 248.34L159.45 235.86L161.2 231.34L165.59 221.78L170.57 212.76L178.77 197.62L185.8 187.53L188.43 184.34L193.41 178.5L202.78 169.47L206.59 166.02L209.52 163.37L212.15 160.45L214.49 157.79L218.01 155.67L221.81 152.75L225.04 150.62L228.26 148.76L231.77 146.11L235.58 144.25L240.26 141.86L244.36 140" id="c1PlTPX3nB"></path><path d="M146.64 214.19L148.93 205.64L149.99 202.55L152.63 196.01L155.62 189.82L160.56 179.46L164.78 172.55L166.37 170.37L169.36 166.37L174.99 160.18L177.28 157.82L179.04 156L180.63 154L182.04 152.18L184.15 150.73L186.44 148.73L188.38 147.27L190.31 146L192.43 144.18L194.72 142.91L197.53 141.27L200 140" id="b1EwoFDda"></path><path d="M140 169.56L141.22 165.51L141.78 164.04L143.19 160.94L144.78 158.01L147.4 153.09L149.65 149.82L150.49 148.78L152.08 146.89L155.08 143.96L156.3 142.84L157.24 141.98L158.08 141.03L158.83 140.17L159.95 139.48L161.17 138.53L162.2 137.84L163.23 137.23L164.36 136.37L165.57 135.77L167.07 134.99L168.39 134.39" id="a1hCd8pYF4"></path><path d="M533.72 254.34L529.92 241.86L528.16 237.34L523.77 227.78L518.79 218.76L510.59 203.62L503.56 193.53L500.93 190.34L495.95 184.5L486.58 175.47L482.77 172.02L479.84 169.37L477.21 166.45L474.87 163.79L471.35 161.67L467.55 158.75L464.33 156.62L461.1 154.76L457.59 152.11L453.78 150.25L449.1 147.86L445 146" id="bN3dk0Sr"></path><path d="M542.72 220.19L540.43 211.64L539.37 208.55L536.73 202.01L533.74 195.82L528.81 185.46L524.58 178.55L522.99 176.37L520 172.37L514.37 166.18L512.08 163.82L510.32 162L508.73 160L507.32 158.18L505.21 156.73L502.92 154.73L500.98 153.27L499.05 152L496.93 150.18L494.64 148.91L491.83 147.27L489.36 146" id="a1NH3dLkVw"></path><path d="M549.36 175.56L548.14 171.51L547.58 170.04L546.18 166.94L544.58 164.01L541.96 159.09L539.71 155.82L538.87 154.78L537.28 152.89L534.28 149.96L533.06 148.84L532.12 147.98L531.28 147.03L530.53 146.17L529.41 145.48L528.19 144.53L527.16 143.84L526.13 143.23L525 142.37L523.79 141.77L522.29 140.99L520.98 140.39" id="f2wO0TajFe"></path><path d="M380.68 399.63C380.68 489.11 363.04 561.75 341.32 561.75C319.6 561.75 301.96 489.11 301.96 399.63C301.96 310.15 319.6 237.5 341.32 237.5C363.04 237.5 380.68 310.15 380.68 399.63Z" id="a2yolXI9o"></path><path d="M333.18 463.19C340.7 463.19 346.79 469.28 346.79 476.8C346.79 483.44 346.79 489.75 346.79 496.39C346.79 503.91 340.7 510 333.18 510C330.11 510 334.51 510 331.44 510C323.93 510 317.83 503.91 317.83 496.39C317.83 489.75 317.83 483.44 317.83 476.8C317.83 469.28 323.93 463.19 331.44 463.19C334.51 463.19 330.11 463.19 333.18 463.19Z" id="a2G94nX6sg"></path><path d="M490 491.56C495.52 491.56 500 496.04 500 501.56C500 505.25 500 506.31 500 510C500 515.52 495.52 520 490 520C428 520 252 520 190 520C184.48 520 180 515.52 180 510C180 506.31 180 505.25 180 501.56C180 496.04 184.48 491.56 190 491.56C252 491.56 428 491.56 490 491.56Z" id="a16nhMs7mB"></path><path d="M380 128.43C380 145.85 365.51 160 347.66 160C329.8 160 315.31 145.85 315.31 128.43C315.31 111.01 329.8 96.86 347.66 96.86C365.51 96.86 380 111.01 380 128.43Z" id="bvdy83kFw"></path></defs><g><g><g><use xlink:href="#dy3yZMHFS" opacity="1" fill="#439bf3" fill-opacity="1"></use><g><use xlink:href="#dy3yZMHFS" opacity="1" fill-opacity="0" stroke="#439bf3" stroke-width="5" stroke-opacity="1"></use></g></g><g><use xlink:href="#d1Ws6zoikB" opacity="1" fill="#439bf3" fill-opacity="1"></use><g><use xlink:href="#d1Ws6zoikB" opacity="1" fill-opacity="0" stroke="#439bf3" stroke-width="5" stroke-opacity="1"></use></g></g><g><use xlink:href="#b95uK0nhM" opacity="1" fill="#439bf3" fill-opacity="1"></use><g><use xlink:href="#b95uK0nhM" opacity="1" fill-opacity="0" stroke="#439bf3" stroke-width="5" stroke-opacity="1"></use></g></g><g><g><use xlink:href="#c1PlTPX3nB" opacity="1" fill-opacity="0" stroke="#439bf3" stroke-width="5" stroke-opacity="1"></use></g></g><g><g><use xlink:href="#b1EwoFDda" opacity="1" fill-opacity="0" stroke="#439bf3" stroke-width="5" stroke-opacity="1"></use></g></g><g><g><use xlink:href="#a1hCd8pYF4" opacity="1" fill-opacity="0" stroke="#439bf3" stroke-width="5" stroke-opacity="1"></use></g></g><g><g><use xlink:href="#bN3dk0Sr" opacity="1" fill-opacity="0" stroke="#439bf3" stroke-width="5" stroke-opacity="1"></use></g></g><g><g><use xlink:href="#a1NH3dLkVw" opacity="1" fill-opacity="0" stroke="#439bf3" stroke-width="5" stroke-opacity="1"></use></g></g><g><g><use xlink:href="#f2wO0TajFe" opacity="1" fill-opacity="0" stroke="#439bf3" stroke-width="5" stroke-opacity="1"></use></g></g><g><use xlink:href="#a2yolXI9o" opacity="1" fill="#439bf3" fill-opacity="1"></use></g><g><use xlink:href="#a2G94nX6sg" opacity="1" fill="#439bf3" fill-opacity="1"></use></g><g><use xlink:href="#a16nhMs7mB" opacity="1" fill="#fcfcfc" fill-opacity="1"></use><g><use xlink:href="#a16nhMs7mB" opacity="1" fill-opacity="0" stroke="#439bf3" stroke-width="5" stroke-opacity="1"></use></g></g><g><use xlink:href="#bvdy83kFw" opacity="1" fill="#439bf3" fill-opacity="1"></use><g><use xlink:href="#bvdy83kFw" opacity="1" fill-opacity="0" stroke="#439bf3" stroke-width="5" stroke-opacity="1"></use></g></g></g></g></svg>