<?xml version="1.0" encoding="UTF-8" standalone="no"?>
<!DOCTYPE svg PUBLIC "-//W3C//DTD SVG 1.1//EN" "http://www.w3.org/Graphics/SVG/1.1/DTD/svg11.dtd">
<svg version="1.1" xmlns="http://www.w3.org/2000/svg" xmlns:xlink="http://www.w3.org/1999/xlink" preserveAspectRatio="xMidYMid meet" viewBox="0 0 640 640" width="640" height="640"><defs><path d="" id="a1MO97Wq7J"></path><path d="" id="aAbg1tCcj"></path><path d="" id="c3URmdVUCe"></path><path d="" id="aTYf9ATm0"></path><path d="M403.9 353.71L371.85 404.39L553.56 580L640 443.29L403.9 353.71Z" id="d3aAwSKcM"></path><path d="M394.92 338.63C394.92 376.05 363.4 406.43 324.58 406.43C285.76 406.43 254.24 376.05 254.24 338.63C254.24 301.21 285.76 270.83 324.58 270.83C363.4 270.83 394.92 301.21 394.92 338.63Z" id="a4gHFhCig"></path><path d="M369 339.69C369 364.61 348.84 384.85 324 384.85C299.16 384.85 279 364.61 279 339.69C279 314.78 299.16 294.54 324 294.54C348.84 294.54 369 314.78 369 339.69Z" id="c2opgQCrRd"></path><path d="M295.48 265.49L355.41 267.46L414.84 21.86L253.19 16.54L295.48 265.49Z" id="diX5xupPT"></path><path d="M286.57 407.08L247.84 361.29L25.79 481.92L130.26 605.41L286.57 407.08Z" id="f4R2VZZjRV"></path></defs><g><g><g><g><use xlink:href="#a1MO97Wq7J" opacity="1" fill-opacity="0" stroke="#bd56d9" stroke-width="2" stroke-opacity="1"></use></g></g><g><g><use xlink:href="#aAbg1tCcj" opacity="1" fill-opacity="0" stroke="#bd56d9" stroke-width="2" stroke-opacity="1"></use></g></g><g><g><use xlink:href="#c3URmdVUCe" opacity="1" fill-opacity="0" stroke="#bd56d9" stroke-width="2" stroke-opacity="1"></use></g></g><g><g><use xlink:href="#aTYf9ATm0" opacity="1" fill-opacity="0" stroke="#bd56d9" stroke-width="5" stroke-opacity="1"></use></g></g><g><use xlink:href="#d3aAwSKcM" opacity="1" fill="#439bf3" fill-opacity="1"></use><g><use xlink:href="#d3aAwSKcM" opacity="1" fill-opacity="0" stroke="#000000" stroke-width="0" stroke-opacity="1"></use></g></g><g><use xlink:href="#a4gHFhCig" opacity="1" fill="#ffffff" fill-opacity="1"></use><g><use xlink:href="#a4gHFhCig" opacity="1" fill-opacity="0" stroke="#439bf3" stroke-width="2" stroke-opacity="1"></use></g></g><g><use xlink:href="#c2opgQCrRd" opacity="1" fill="#439bf3" fill-opacity="1"></use><g><use xlink:href="#c2opgQCrRd" opacity="1" fill-opacity="0" stroke="#f88989" stroke-width="0" stroke-opacity="1"></use></g></g><g><use xlink:href="#diX5xupPT" opacity="1" fill="#439bf3" fill-opacity="1"></use><g><use xlink:href="#diX5xupPT" opacity="1" fill-opacity="0" stroke="#000000" stroke-width="0" stroke-opacity="1"></use></g></g><g><use xlink:href="#f4R2VZZjRV" opacity="1" fill="#439bf3" fill-opacity="1"></use><g><use xlink:href="#f4R2VZZjRV" opacity="1" fill-opacity="0" stroke="#000000" stroke-width="0" stroke-opacity="1"></use></g></g></g></g></svg>