<?xml version="1.0" encoding="UTF-8" standalone="no"?>
<!DOCTYPE svg PUBLIC "-//W3C//DTD SVG 1.1//EN" "http://www.w3.org/Graphics/SVG/1.1/DTD/svg11.dtd">
<svg version="1.1" xmlns="http://www.w3.org/2000/svg" xmlns:xlink="http://www.w3.org/1999/xlink" preserveAspectRatio="xMidYMid meet" viewBox="0 0 640 640" width="640" height="640"><defs><path d="M560.03 100C571.06 100 580 108.94 580 119.97C580 203.97 580 436.03 580 520.03C580 531.06 571.06 540 560.03 540C459.3 540 177.06 540 76.33 540C65.3 540 56.36 531.06 56.36 520.03C56.36 436.03 56.36 203.97 56.36 119.97C56.36 108.94 65.3 100 76.33 100C177.06 100 459.3 100 560.03 100Z" id="byPRflL8C"></path><path d="M415.95 165.88C426.54 165.88 435.12 174.47 435.12 185.05C435.12 244.04 435.12 401.84 435.12 460.83C435.12 471.42 426.54 480 415.95 480C352.76 480 182.36 480 119.17 480C108.58 480 100 471.42 100 460.83C100 401.84 100 244.04 100 185.05C100 174.47 108.58 165.88 119.17 165.88C182.36 165.88 352.76 165.88 415.95 165.88Z" id="e1kfZxN1Cj"></path><path d="M536.16 165.39C547.06 165.39 555.89 174.22 555.89 185.11C555.89 244.09 555.89 401.3 555.89 460.28C555.89 471.17 547.06 480 536.16 480C520.93 480 494.96 480 479.72 480C468.83 480 460 471.17 460 460.28C460 401.3 460 244.09 460 185.11C460 174.22 468.83 165.39 479.72 165.39C494.96 165.39 520.93 165.39 536.16 165.39Z" id="c4S3sLmz2m"></path><path d="M470.64 210.73L545.45 210.73L545.45 234.73L470.64 234.73L470.64 210.73Z" id="bAQCbjRsN"></path><path d="M526.38 343.54C526.38 352.63 518.3 360 508.35 360C498.39 360 490.31 352.63 490.31 343.54C490.31 334.46 498.39 327.09 508.35 327.09C518.3 327.09 526.38 334.46 526.38 343.54Z" id="b2ld0jYnl"></path><path d="M424.44 210.76L414.14 211.34L406.12 213.45L400.96 216.53L398.1 219.79L395.81 223.25L393.52 226.9L392.94 230.55L395.24 234.39L401.54 238.42L406.12 241.69L409.55 245.14L414.71 248.6L418.72 251.86L422.73 255.9L424.44 259.35L422.73 262.81L417.57 266.65L413.56 269.73L407.84 273.18L403.25 276.45L398.67 279.9L393.52 283.36L391.8 287.2L391.8 290.47L395.81 294.5L399.82 298.53L405.54 302.57L411.84 306.41L416.43 309.86L419.29 313.71L420.44 316.97L418.72 320.43L411.27 324.08L406.69 327.15L399.82 330.03L392.94 333.49L390.08 337.33L388.93 341.55L387.79 345.78L387.79 349.24" id="hzjOOU17i"></path><path d="M537.69 252.87C540.95 252.87 543.6 255.52 543.6 258.78C543.6 261.42 543.6 263.42 543.6 266.05C543.6 269.32 540.95 271.96 537.69 271.96C532.88 271.96 524.34 271.96 519.53 271.96C516.26 271.96 513.62 269.32 513.62 266.05C513.62 263.42 513.62 261.42 513.62 258.78C513.62 255.52 516.26 252.87 519.53 252.87C524.34 252.87 532.88 252.87 537.69 252.87Z" id="bgCWiwKiu"></path><path d="M363.64 413.58C363.64 421.07 322.49 427.15 271.82 427.15C221.14 427.15 180 421.07 180 413.58C180 406.08 221.14 400 271.82 400C322.49 400 363.64 406.08 363.64 413.58Z" id="bwr0FTOcc"></path><path d="M386.73 446.38L386.73 412.61L154.47 417.09L154.47 446.38L386.73 446.38Z" id="aaXbG9c7W"></path><path d="M391.3 411.63C391.25 424.17 337.69 434.18 271.75 433.96C205.81 433.75 152.31 423.39 152.35 410.84C152.4 398.3 205.96 388.29 271.9 388.51C337.84 388.72 391.34 399.08 391.3 411.63Z" id="afmtYCgMv"></path><path d="M218.33 210.76L208.02 211.34L200 213.45L194.85 216.53L191.98 219.79L189.69 223.25L187.4 226.9L186.83 230.55L189.12 234.39L195.42 238.42L200 241.69L203.44 245.14L208.59 248.6L212.6 251.86L216.61 255.9L218.33 259.35L216.61 262.81L211.45 266.65L207.45 269.73L201.72 273.18L197.14 276.45L192.55 279.9L187.4 283.36L185.68 287.2L185.68 290.47L189.69 294.5L193.7 298.53L199.43 302.57L205.73 306.41L210.31 309.86L213.17 313.71L214.32 316.97L212.6 320.43L205.15 324.08L200.57 327.15L193.7 330.03L186.83 333.49L183.96 337.33L182.82 341.55L181.67 345.78L181.67 349.24" id="d3YmSIXbk"></path><path d="M258.33 210.76L248.02 211.34L240 213.45L234.85 216.53L231.98 219.79L229.69 223.25L227.4 226.9L226.83 230.55L229.12 234.39L235.42 238.42L240 241.69L243.44 245.14L248.59 248.6L252.6 251.86L256.61 255.9L258.33 259.35L256.61 262.81L251.45 266.65L247.45 269.73L241.72 273.18L237.14 276.45L232.55 279.9L227.4 283.36L225.68 287.2L225.68 290.47L229.69 294.5L233.7 298.53L239.43 302.57L245.73 306.41L250.31 309.86L253.17 313.71L254.32 316.97L252.6 320.43L245.15 324.08L240.57 327.15L233.7 330.03L226.83 333.49L223.96 337.33L222.82 341.55L221.67 345.78L221.67 349.24" id="arj77mUki"></path><path d="M298.33 210.76L288.02 211.34L280 213.45L274.85 216.53L271.98 219.79L269.69 223.25L267.4 226.9L266.83 230.55L269.12 234.39L275.42 238.42L280 241.69L283.44 245.14L288.59 248.6L292.6 251.86L296.61 255.9L298.33 259.35L296.61 262.81L291.45 266.65L287.45 269.73L281.72 273.18L277.14 276.45L272.55 279.9L267.4 283.36L265.68 287.2L265.68 290.47L269.69 294.5L273.7 298.53L279.43 302.57L285.73 306.41L290.31 309.86L293.17 313.71L294.32 316.97L292.6 320.43L285.15 324.08L280.57 327.15L273.7 330.03L266.83 333.49L263.96 337.33L262.82 341.55L261.67 345.78L261.67 349.24" id="b58OT7u2nc"></path><path d="M338.33 210.76L328.02 211.34L320 213.45L314.85 216.53L311.98 219.79L309.69 223.25L307.4 226.9L306.83 230.55L309.12 234.39L315.42 238.42L320 241.69L323.44 245.14L328.59 248.6L332.6 251.86L336.61 255.9L338.33 259.35L336.61 262.81L331.45 266.65L327.45 269.73L321.72 273.18L317.14 276.45L312.55 279.9L307.4 283.36L305.68 287.2L305.68 290.47L309.69 294.5L313.7 298.53L319.43 302.57L325.73 306.41L330.31 309.86L333.17 313.71L334.32 316.97L332.6 320.43L325.15 324.08L320.57 327.15L313.7 330.03L306.83 333.49L303.96 337.33L302.82 341.55L301.67 345.78L301.67 349.24" id="a25tRpzrp6"></path><path d="M386.38 210.76L376.07 211.34L368.06 213.45L362.9 216.53L360.04 219.79L357.75 223.25L355.46 226.9L354.88 230.55L357.17 234.39L363.47 238.42L368.06 241.69L371.49 245.14L376.65 248.6L380.66 251.86L384.66 255.9L386.38 259.35L384.66 262.81L379.51 266.65L375.5 269.73L369.77 273.18L365.19 276.45L360.61 279.9L355.46 283.36L353.74 287.2L353.74 290.47L357.75 294.5L361.76 298.53L367.48 302.57L373.78 306.41L378.36 309.86L381.23 313.71L382.37 316.97L380.66 320.43L373.21 324.08L368.63 327.15L361.76 330.03L354.88 333.49L352.02 337.33L350.87 341.55L349.73 345.78L349.73 349.24" id="jtlJnOd3D"></path><path d="M498.69 252.45C501.96 252.45 504.6 255.09 504.6 258.36C504.6 260.99 504.6 262.99 504.6 265.63C504.6 268.89 501.96 271.54 498.69 271.54C493.88 271.54 485.35 271.54 480.53 271.54C477.27 271.54 474.62 268.89 474.62 265.63C474.62 262.99 474.62 260.99 474.62 258.36C474.62 255.09 477.27 252.45 480.53 252.45C485.35 252.45 493.88 252.45 498.69 252.45Z" id="a1QssFEw3r"></path><path d="M525.96 400C525.96 409.08 517.88 416.46 507.92 416.46C497.97 416.46 489.88 409.08 489.88 400C489.88 390.92 497.97 383.54 507.92 383.54C517.88 383.54 525.96 390.92 525.96 400Z" id="d98jIMr1J"></path><path d="M212.51 548.29C218.98 548.29 224.22 553.54 224.22 560C224.22 562.34 224.22 557.66 224.22 560C224.22 566.46 218.98 571.71 212.51 571.71C195.19 571.71 154.95 571.71 137.63 571.71C131.17 571.71 125.93 566.46 125.93 560C125.93 557.66 125.93 562.34 125.93 560C125.93 553.54 131.17 548.29 137.63 548.29C154.95 548.29 195.19 548.29 212.51 548.29Z" id="e1hHNdL8LE"></path><path d="M136.67 240C145.87 240 153.33 247.46 153.33 256.67C153.33 281.83 153.33 340.67 153.33 365.83C153.33 375.04 145.87 382.5 136.67 382.5C133.33 382.5 140 382.5 136.67 382.5C127.46 382.5 120 375.04 120 365.83C120 340.67 120 281.83 120 256.67C120 247.46 127.46 240 136.67 240C140 240 133.33 240 136.67 240Z" id="d52GYAhjX8"></path><path d="M135.05 263.33C136.74 263.33 138.11 264.7 138.11 266.4C138.11 285.12 138.11 338.22 138.11 356.94C138.11 358.63 136.74 360 135.05 360C134.44 360 135.66 360 135.05 360C133.36 360 131.99 358.63 131.99 356.94C131.99 338.22 131.99 285.12 131.99 266.4C131.99 264.7 133.36 263.33 135.05 263.33C135.66 263.33 134.44 263.33 135.05 263.33Z" id="dHSMT2Lox"></path><path d="M486.58 548.29C493.05 548.29 498.29 553.54 498.29 560C498.29 562.34 498.29 557.66 498.29 560C498.29 566.46 493.05 571.71 486.58 571.71C469.27 571.71 429.02 571.71 411.71 571.71C405.24 571.71 400 566.46 400 560C400 557.66 400 562.34 400 560C400 553.54 405.24 548.29 411.71 548.29C429.02 548.29 469.27 548.29 486.58 548.29Z" id="eCPvMKIV8"></path></defs><g><g><g><use xlink:href="#byPRflL8C" opacity="1" fill="#439bf3" fill-opacity="1"></use><g><use xlink:href="#byPRflL8C" opacity="1" fill-opacity="0" stroke="#439bf3" stroke-width="5" stroke-opacity="1"></use></g></g><g><use xlink:href="#e1kfZxN1Cj" opacity="1" fill="#ffffff" fill-opacity="1"></use><g><use xlink:href="#e1kfZxN1Cj" opacity="1" fill-opacity="0" stroke="#439bf3" stroke-width="5" stroke-opacity="1"></use></g></g><g><use xlink:href="#c4S3sLmz2m" opacity="1" fill="#fbfbfb" fill-opacity="1"></use><g><use xlink:href="#c4S3sLmz2m" opacity="1" fill-opacity="0" stroke="#439bf3" stroke-width="5" stroke-opacity="1"></use></g></g><g><use xlink:href="#bAQCbjRsN" opacity="1" fill="#439bf3" fill-opacity="1"></use><g><use xlink:href="#bAQCbjRsN" opacity="1" fill-opacity="0" stroke="#439bf3" stroke-width="2" stroke-opacity="1"></use></g></g><g><use xlink:href="#b2ld0jYnl" opacity="1" fill="#439bf3" fill-opacity="1"></use><g><use xlink:href="#b2ld0jYnl" opacity="1" fill-opacity="0" stroke="#439bf3" stroke-width="2" stroke-opacity="1"></use></g></g><g><use xlink:href="#hzjOOU17i" opacity="1" fill="#fdfdfd" fill-opacity="1"></use><g><use xlink:href="#hzjOOU17i" opacity="1" fill-opacity="0" stroke="#439bf3" stroke-width="2" stroke-opacity="1"></use></g></g><g><use xlink:href="#bgCWiwKiu" opacity="1" fill="#439bf3" fill-opacity="1"></use><g><use xlink:href="#bgCWiwKiu" opacity="1" fill-opacity="0" stroke="#439bf3" stroke-width="2" stroke-opacity="1"></use></g></g><g><use xlink:href="#bwr0FTOcc" opacity="1" fill="#439bf3" fill-opacity="1"></use></g><g><use xlink:href="#aaXbG9c7W" opacity="1" fill="#439bf3" fill-opacity="1"></use><g><use xlink:href="#aaXbG9c7W" opacity="1" fill-opacity="0" stroke="#000000" stroke-width="1" stroke-opacity="1"></use></g></g><g><use xlink:href="#afmtYCgMv" opacity="1" fill="#439bf3" fill-opacity="1"></use><g><use xlink:href="#afmtYCgMv" opacity="1" fill-opacity="0" stroke="#010101" stroke-width="1" stroke-opacity="1"></use></g></g><g><use xlink:href="#d3YmSIXbk" opacity="1" fill="#fdfdfd" fill-opacity="1"></use><g><use xlink:href="#d3YmSIXbk" opacity="1" fill-opacity="0" stroke="#439bf3" stroke-width="2" stroke-opacity="1"></use></g></g><g><use xlink:href="#arj77mUki" opacity="1" fill="#fdfdfd" fill-opacity="1"></use><g><use xlink:href="#arj77mUki" opacity="1" fill-opacity="0" stroke="#439bf3" stroke-width="2" stroke-opacity="1"></use></g></g><g><use xlink:href="#b58OT7u2nc" opacity="1" fill="#fdfdfd" fill-opacity="1"></use><g><use xlink:href="#b58OT7u2nc" opacity="1" fill-opacity="0" stroke="#439bf3" stroke-width="2" stroke-opacity="1"></use></g></g><g><use xlink:href="#a25tRpzrp6" opacity="1" fill="#fdfdfd" fill-opacity="1"></use><g><use xlink:href="#a25tRpzrp6" opacity="1" fill-opacity="0" stroke="#439bf3" stroke-width="2" stroke-opacity="1"></use></g></g><g><use xlink:href="#jtlJnOd3D" opacity="1" fill="#fdfdfd" fill-opacity="1"></use><g><use xlink:href="#jtlJnOd3D" opacity="1" fill-opacity="0" stroke="#439bf3" stroke-width="2" stroke-opacity="1"></use></g></g><g><use xlink:href="#a1QssFEw3r" opacity="1" fill="#439bf3" fill-opacity="1"></use><g><use xlink:href="#a1QssFEw3r" opacity="1" fill-opacity="0" stroke="#439bf3" stroke-width="2" stroke-opacity="1"></use></g></g><g><use xlink:href="#d98jIMr1J" opacity="1" fill="#439bf3" fill-opacity="1"></use><g><use xlink:href="#d98jIMr1J" opacity="1" fill-opacity="0" stroke="#439bf3" stroke-width="2" stroke-opacity="1"></use></g></g><g><use xlink:href="#e1hHNdL8LE" opacity="1" fill="#439bf3" fill-opacity="1"></use><g><use xlink:href="#e1hHNdL8LE" opacity="1" fill-opacity="0" stroke="#439bf3" stroke-width="5" stroke-opacity="1"></use></g></g><g><use xlink:href="#d52GYAhjX8" opacity="1" fill="#ffffff" fill-opacity="1"></use><g><use xlink:href="#d52GYAhjX8" opacity="1" fill-opacity="0" stroke="#439bf3" stroke-width="5" stroke-opacity="1"></use></g></g><g><use xlink:href="#dHSMT2Lox" opacity="1" fill="#3f9af6" fill-opacity="1"></use></g><g><use xlink:href="#eCPvMKIV8" opacity="1" fill="#439bf3" fill-opacity="1"></use><g><use xlink:href="#eCPvMKIV8" opacity="1" fill-opacity="0" stroke="#439bf3" stroke-width="5" stroke-opacity="1"></use></g></g></g></g></svg>