<?xml version="1.0" encoding="UTF-8" standalone="no"?>
<!DOCTYPE svg PUBLIC "-//W3C//DTD SVG 1.1//EN" "http://www.w3.org/Graphics/SVG/1.1/DTD/svg11.dtd">
<svg version="1.1" xmlns="http://www.w3.org/2000/svg" xmlns:xlink="http://www.w3.org/1999/xlink" preserveAspectRatio="xMidYMid meet" viewBox="0 0 640 640" width="640" height="640"><defs><path d="M489.93 48.91C498.67 48.91 505.75 56 505.75 64.73C505.75 166.94 505.75 457.76 505.75 559.97C505.75 568.71 498.67 575.79 489.93 575.79C422.95 575.79 237.8 575.79 170.82 575.79C162.08 575.79 155 568.71 155 559.97C155 457.76 155 166.94 155 64.73C155 56 162.08 48.91 170.82 48.91C237.8 48.91 422.95 48.91 489.93 48.91Z" id="b1n9JY7V0N"></path><path d="M459.06 74.36C470.63 74.36 480 83.73 480 95.3C480 128.24 480 206.12 480 239.06C480 250.63 470.63 260 459.06 260C403.25 260 256.75 260 200.94 260C189.37 260 180 250.63 180 239.06C180 206.12 180 128.24 180 95.3C180 83.73 189.37 74.36 200.94 74.36C256.75 74.36 403.25 74.36 459.06 74.36Z" id="a1B51KR3Q"></path><path d="M459.73 287.69C470.92 287.69 480 296.77 480 307.97C480 354.37 480 473.32 480 519.73C480 530.92 470.92 540 459.73 540C404.34 540 258.45 540 203.06 540C191.87 540 182.79 530.92 182.79 519.73C182.79 473.32 182.79 354.37 182.79 307.97C182.79 296.77 191.87 287.69 203.06 287.69C258.45 287.69 404.34 287.69 459.73 287.69Z" id="b3HUdEeax2"></path><path d="M236.73 126.67C245.97 126.67 253.46 134.16 253.46 143.39C253.46 154.72 253.46 171.95 253.46 183.27C253.46 192.51 245.97 200 236.73 200C233.38 200 240.07 200 236.73 200C227.49 200 220 192.51 220 183.27C220 171.95 220 154.72 220 143.39C220 134.16 227.49 126.67 236.73 126.67C240.07 126.67 233.38 126.67 236.73 126.67Z" id="hd7pKTYo6"></path><path d="M236.73 380C245.97 380 253.46 387.49 253.46 396.73C253.46 408.05 253.46 425.28 253.46 436.61C253.46 445.84 245.97 453.33 236.73 453.33C233.38 453.33 240.07 453.33 236.73 453.33C227.49 453.33 220 445.84 220 436.61C220 425.28 220 408.05 220 396.73C220 387.49 227.49 380 236.73 380C240.07 380 233.38 380 236.73 380Z" id="c11ehulVKX"></path><path d="M235.06 134.36C237.79 134.36 240 136.57 240 139.3C240 150.31 240 178.41 240 189.42C240 192.15 237.79 194.36 235.06 194.36C234.07 194.36 236.05 194.36 235.06 194.36C232.33 194.36 230.12 192.15 230.12 189.42C230.12 178.41 230.12 150.31 230.12 139.3C230.12 136.57 232.33 134.36 235.06 134.36C236.05 134.36 234.07 134.36 235.06 134.36Z" id="cwm0iKG2Q"></path><path d="M235.06 386.03C237.79 386.03 240 388.24 240 390.96C240 401.98 240 430.07 240 441.09C240 443.81 237.79 446.03 235.06 446.03C234.07 446.03 236.05 446.03 235.06 446.03C232.33 446.03 230.12 443.81 230.12 441.09C230.12 430.07 230.12 401.98 230.12 390.96C230.12 388.24 232.33 386.03 235.06 386.03C236.05 386.03 234.07 386.03 235.06 386.03Z" id="b4EE0NQ2uH"></path><path d="M279.48 587.18C283.02 587.18 285.89 590.05 285.89 593.59C285.89 594.87 285.89 592.31 285.89 593.59C285.89 597.13 283.02 600 279.48 600C262.41 600 217.59 600 200.52 600C196.98 600 194.11 597.13 194.11 593.59C194.11 592.31 194.11 594.87 194.11 593.59C194.11 590.05 196.98 587.18 200.52 587.18C217.59 587.18 262.41 587.18 279.48 587.18Z" id="a1SELCD5xn"></path><path d="M465.38 587.18C468.92 587.18 471.79 590.05 471.79 593.59C471.79 594.87 471.79 592.31 471.79 593.59C471.79 597.13 468.92 600 465.38 600C448.3 600 403.49 600 386.41 600C382.87 600 380 597.13 380 593.59C380 592.31 380 594.87 380 593.59C380 590.05 382.87 587.18 386.41 587.18C403.49 587.18 448.3 587.18 465.38 587.18Z" id="c4ush0CdCD"></path></defs><g><g><g><use xlink:href="#b1n9JY7V0N" opacity="1" fill="#f9f9f9" fill-opacity="1"></use><g><use xlink:href="#b1n9JY7V0N" opacity="1" fill-opacity="0" stroke="#439bf3" stroke-width="8" stroke-opacity="1"></use></g></g><g><use xlink:href="#a1B51KR3Q" opacity="1" fill="#439bf3" fill-opacity="1"></use></g><g><use xlink:href="#b3HUdEeax2" opacity="1" fill="#439bf3" fill-opacity="1"></use><g><use xlink:href="#b3HUdEeax2" opacity="1" fill-opacity="0" stroke="#439bf3" stroke-width="1" stroke-opacity="1"></use></g></g><g><use xlink:href="#hd7pKTYo6" opacity="1" fill="#fdfafd" fill-opacity="1"></use><g><use xlink:href="#hd7pKTYo6" opacity="1" fill-opacity="0" stroke="#439bf3" stroke-width="5" stroke-opacity="1"></use></g></g><g><use xlink:href="#c11ehulVKX" opacity="1" fill="#fdfafd" fill-opacity="1"></use><g><use xlink:href="#c11ehulVKX" opacity="1" fill-opacity="0" stroke="#439bf3" stroke-width="5" stroke-opacity="1"></use></g></g><g><use xlink:href="#cwm0iKG2Q" opacity="1" fill="#439bf3" fill-opacity="1"></use></g><g><use xlink:href="#b4EE0NQ2uH" opacity="1" fill="#439bf3" fill-opacity="1"></use></g><g><use xlink:href="#a1SELCD5xn" opacity="1" fill="#ffffff" fill-opacity="1"></use><g><use xlink:href="#a1SELCD5xn" opacity="1" fill-opacity="0" stroke="#439bf3" stroke-width="5" stroke-opacity="1"></use></g></g><g><use xlink:href="#c4ush0CdCD" opacity="1" fill="#ffffff" fill-opacity="1"></use><g><use xlink:href="#c4ush0CdCD" opacity="1" fill-opacity="0" stroke="#439bf3" stroke-width="5" stroke-opacity="1"></use></g></g></g></g></svg>