<?xml version="1.0" encoding="UTF-8" standalone="no"?>
<!DOCTYPE svg PUBLIC "-//W3C//DTD SVG 1.1//EN" "http://www.w3.org/Graphics/SVG/1.1/DTD/svg11.dtd">
<svg version="1.1" xmlns="http://www.w3.org/2000/svg" xmlns:xlink="http://www.w3.org/1999/xlink" preserveAspectRatio="xMidYMid meet" viewBox="0 0 640 640" width="640" height="640"><defs><path d="M590.59 306.93C590.59 446.6 474.09 560 330.59 560C187.09 560 70.59 446.6 70.59 306.93C70.59 167.25 187.09 53.85 330.59 53.85C474.09 53.85 590.59 167.25 590.59 306.93Z" id="d8eSpt1zr"></path><path d="" id="fg27mHtGv"></path><path d="M444.31 363.25C449.83 363.25 454.31 367.72 454.31 373.25C454.31 383.25 454.31 403.25 454.31 413.25C454.31 418.77 449.83 423.25 444.31 423.25C428.58 423.25 391.42 423.25 375.69 423.25C370.17 423.25 365.69 418.77 365.69 413.25C365.69 403.25 365.69 383.25 365.69 373.25C365.69 367.72 370.17 363.25 375.69 363.25C391.42 363.25 428.58 363.25 444.31 363.25Z" id="a3F2ni5q8r"></path><path d="M393.2 303C401.25 303 407.78 309.53 407.78 317.58C407.78 336.81 407.78 379.91 407.78 399.14C407.78 407.19 401.25 413.72 393.2 413.72C362.56 413.72 285.22 413.72 254.58 413.72C246.53 413.72 240 407.19 240 399.14C240 379.91 240 336.81 240 317.58C240 309.53 246.53 303 254.58 303C285.22 303 362.56 303 393.2 303Z" id="aaaFc3vjj"></path><path d="M364.06 407.52L404.75 360L323.37 360L242 360L282.68 407.52L323.37 455.03L364.06 407.52Z" id="cawLciQGvP"></path><path d="M367.84 215.56C374.56 215.56 380 221 380 227.71C380 254.17 380 321.39 380 347.84C380 354.56 374.56 360 367.84 360C365.41 360 370.27 360 367.84 360C361.13 360 355.69 354.56 355.69 347.84C355.69 321.39 355.69 254.17 355.69 227.71C355.69 221 361.13 215.56 367.84 215.56C370.27 215.56 365.41 215.56 367.84 215.56Z" id="afsIsMKcd"></path><path d="" id="g1xX5Mu1yo"></path><path d="" id="eT5gfvvnZ"></path><path d="M280 215.56C286.71 215.56 292.16 221 292.16 227.71C292.16 254.17 292.16 321.39 292.16 347.84C292.16 354.56 286.71 360 280 360C277.57 360 282.43 360 280 360C273.29 360 267.84 354.56 267.84 347.84C267.84 321.39 267.84 254.17 267.84 227.71C267.84 221 273.29 215.56 280 215.56C282.43 215.56 277.57 215.56 280 215.56Z" id="aQ2tMv9qZ"></path><path d="M260 316.77L383.53 316.77L383.53 322L260 322L260 316.77Z" id="b1tC7mtfh0"></path><path d="M332.55 80L305.88 181.56L332.55 181.56L313.5 254.9L385.88 153.35L347.79 153.35L374.45 80L332.55 80Z" id="acIKD4pPu"></path><path d="M323 450.62L323 558L323 450.62Z" id="icqPufsNb"></path><path d="M460.21 531.64C471.25 531.75 480.11 540.8 480 551.84C479.89 562.75 479.75 575.45 479.64 586.35C479.53 597.4 470.48 606.26 459.44 606.15C432.6 605.87 372.09 605.24 345.26 604.96C334.21 604.85 325.35 595.8 325.47 584.76C325.58 573.86 325.71 561.15 325.82 550.25C325.94 539.21 334.98 530.34 346.03 530.46C372.86 530.74 433.37 531.36 460.21 531.64Z" id="bAVMljZjq"></path><path d="M260 328.89L383.53 328.89L383.53 334.12L260 334.12L260 328.89Z" id="c3x01t93Wb"></path><path d="M260 340L383.53 340L383.53 345.23L260 345.23L260 340Z" id="a4vtBdoFPO"></path><path d="M260 352.77L383.53 352.77L383.53 358L260 358L260 352.77Z" id="b12qgxl5V8"></path><path d="M260 365.32L383.53 365.32L383.53 370.55L260 370.55L260 365.32Z" id="hDin19LIW"></path><path d="M371.73 224.84C375.19 224.84 378 227.65 378 231.11C378 239.09 378 256.74 378 264.72C378 268.18 375.19 270.99 371.73 270.99C368.98 270.99 367.02 270.99 364.27 270.99C360.81 270.99 358 268.18 358 264.72C358 256.74 358 239.09 358 231.11C358 227.65 360.81 224.84 364.27 224.84C367.02 224.84 368.98 224.84 371.73 224.84Z" id="e1BdbUgi4N"></path><path d="M283.73 225.24C287.19 225.24 290 228.04 290 231.51C290 239.48 290 257.14 290 265.11C290 268.57 287.19 271.38 283.73 271.38C280.98 271.38 279.02 271.38 276.27 271.38C272.81 271.38 270 268.57 270 265.11C270 257.14 270 239.48 270 231.51C270 228.04 272.81 225.24 276.27 225.24C279.02 225.24 280.98 225.24 283.73 225.24Z" id="c3e1ZKTCy1"></path></defs><g><g><g><use xlink:href="#d8eSpt1zr" opacity="1" fill="#ffffff" fill-opacity="1"></use><g><use xlink:href="#d8eSpt1zr" opacity="1" fill-opacity="0" stroke="#439bf3" stroke-width="8" stroke-opacity="1"></use></g></g><g><g><use xlink:href="#fg27mHtGv" opacity="1" fill-opacity="0" stroke="#f88989" stroke-width="5" stroke-opacity="1"></use></g></g><g><use xlink:href="#a3F2ni5q8r" opacity="1" fill="#fefefe" fill-opacity="1"></use></g><g><use xlink:href="#aaaFc3vjj" opacity="1" fill="#439bf3" fill-opacity="1"></use></g><g><use xlink:href="#cawLciQGvP" opacity="1" fill="#439bf3" fill-opacity="1"></use></g><g><use xlink:href="#afsIsMKcd" opacity="1" fill="#439bf3" fill-opacity="1"></use></g><g><g><use xlink:href="#g1xX5Mu1yo" opacity="1" fill-opacity="0" stroke="#000000" stroke-width="1" stroke-opacity="1"></use></g></g><g><g><use xlink:href="#eT5gfvvnZ" opacity="1" fill-opacity="0" stroke="#000000" stroke-width="1" stroke-opacity="1"></use></g></g><g><use xlink:href="#aQ2tMv9qZ" opacity="1" fill="#439bf3" fill-opacity="1"></use></g><g><use xlink:href="#b1tC7mtfh0" opacity="1" fill="#ffffff" fill-opacity="1"></use><g><use xlink:href="#b1tC7mtfh0" opacity="1" fill-opacity="0" stroke="#439bf3" stroke-width="1" stroke-opacity="1"></use></g></g><g><use xlink:href="#acIKD4pPu" opacity="1" fill="#439bf3" fill-opacity="1"></use><g><use xlink:href="#acIKD4pPu" opacity="1" fill-opacity="0" stroke="#439bf3" stroke-width="1" stroke-opacity="1"></use></g></g><g><use xlink:href="#icqPufsNb" opacity="1" fill="#439bf3" fill-opacity="1"></use><g><use xlink:href="#icqPufsNb" opacity="1" fill-opacity="0" stroke="#439bf3" stroke-width="8" stroke-opacity="1"></use></g></g><g><use xlink:href="#bAVMljZjq" opacity="1" fill="#ffffff" fill-opacity="1"></use></g><g><use xlink:href="#c3x01t93Wb" opacity="1" fill="#ffffff" fill-opacity="1"></use><g><use xlink:href="#c3x01t93Wb" opacity="1" fill-opacity="0" stroke="#439bf3" stroke-width="1" stroke-opacity="1"></use></g></g><g><use xlink:href="#a4vtBdoFPO" opacity="1" fill="#ffffff" fill-opacity="1"></use><g><use xlink:href="#a4vtBdoFPO" opacity="1" fill-opacity="0" stroke="#439bf3" stroke-width="1" stroke-opacity="1"></use></g></g><g><use xlink:href="#b12qgxl5V8" opacity="1" fill="#ffffff" fill-opacity="1"></use><g><use xlink:href="#b12qgxl5V8" opacity="1" fill-opacity="0" stroke="#439bf3" stroke-width="1" stroke-opacity="1"></use></g></g><g><use xlink:href="#hDin19LIW" opacity="1" fill="#ffffff" fill-opacity="1"></use><g><use xlink:href="#hDin19LIW" opacity="1" fill-opacity="0" stroke="#439bf3" stroke-width="1" stroke-opacity="1"></use></g></g><g><use xlink:href="#e1BdbUgi4N" opacity="1" fill="#ffffff" fill-opacity="1"></use><g><use xlink:href="#e1BdbUgi4N" opacity="1" fill-opacity="0" stroke="#439bf3" stroke-width="1" stroke-opacity="1"></use></g></g><g><use xlink:href="#c3e1ZKTCy1" opacity="1" fill="#ffffff" fill-opacity="1"></use><g><use xlink:href="#c3e1ZKTCy1" opacity="1" fill-opacity="0" stroke="#439bf3" stroke-width="1" stroke-opacity="1"></use></g></g></g></g></svg>