<?xml version="1.0" encoding="UTF-8" standalone="no"?>
<!DOCTYPE svg PUBLIC "-//W3C//DTD SVG 1.1//EN" "http://www.w3.org/Graphics/SVG/1.1/DTD/svg11.dtd">
<svg version="1.1" xmlns="http://www.w3.org/2000/svg" xmlns:xlink="http://www.w3.org/1999/xlink" preserveAspectRatio="xMidYMid meet" viewBox="0 0 640 640" width="640" height="640"><defs><path d="M600.7 112.84C608.21 112.84 614.29 118.92 614.29 126.43C614.29 180.89 614.29 330.7 614.29 385.17C614.29 392.68 608.21 398.76 600.7 398.76C496.06 398.76 195.72 398.76 91.07 398.76C83.57 398.76 77.48 392.68 77.48 385.17C77.48 330.7 77.48 180.89 77.48 126.43C77.48 118.92 83.57 112.84 91.07 112.84C195.72 112.84 496.06 112.84 600.7 112.84Z" id="fPqMnW2rn"></path><path d="M583.32 123.01C594.75 123.01 604.02 132.28 604.02 143.71C604.02 192.56 604.02 318.38 604.02 367.22C604.02 378.66 594.75 387.93 583.32 387.93C483.95 387.93 206.54 387.93 107.18 387.93C95.74 387.93 86.47 378.66 86.47 367.22C86.47 318.38 86.47 192.56 86.47 143.71C86.47 132.28 95.74 123.01 107.18 123.01C206.54 123.01 483.95 123.01 583.32 123.01Z" id="f1hz0iNXY"></path><path d="M197 461.4L484.53 461.4L484.53 484.6L197 484.6L197 461.4Z" id="m2cieG6sdA"></path><path d="M89.69 412.09C96.34 412.09 101.73 417.48 101.73 424.13C101.73 461.11 101.73 559.99 101.73 596.96C101.73 603.61 96.34 609 89.69 609C76.76 609 50.01 609 37.08 609C30.43 609 25.04 603.61 25.04 596.96C25.04 559.99 25.04 461.11 25.04 424.13C25.04 417.48 30.43 412.09 37.08 412.09C50.01 412.09 76.76 412.09 89.69 412.09Z" id="akeRBUR7i"></path><path d="M49.26 439.07C49.26 444.08 45.11 448.15 40 448.15C34.89 448.15 30.74 444.08 30.74 439.07C30.74 434.07 34.89 430 40 430C45.11 430 49.26 434.07 49.26 439.07Z" id="a1k3agw4Qy"></path><path d="M73 439.07C73 444.08 68.85 448.15 63.74 448.15C58.63 448.15 54.48 444.08 54.48 439.07C54.48 434.07 58.63 430 63.74 430C68.85 430 73 434.07 73 439.07Z" id="a4WMln3lh"></path><path d="M73.78 469.07C73.78 474.08 69.63 478.15 64.52 478.15C59.41 478.15 55.26 474.08 55.26 469.07C55.26 464.07 59.41 460 64.52 460C69.63 460 73.78 464.07 73.78 469.07Z" id="h24AUwXXdG"></path><path d="M94.96 468.93C94.96 473.93 90.81 478 85.7 478C80.59 478 76.44 473.93 76.44 468.93C76.44 463.92 80.59 459.85 85.7 459.85C90.81 459.85 94.96 463.92 94.96 468.93Z" id="a1qAbIyiaR"></path><path d="M95.56 439.07C95.56 444.08 91.41 448.15 86.3 448.15C81.19 448.15 77.04 444.08 77.04 439.07C77.04 434.07 81.19 430 86.3 430C91.41 430 95.56 434.07 95.56 439.07Z" id="aywiOfW1X"></path><path d="M50 469.07C50 474.08 45.85 478.15 40.74 478.15C35.63 478.15 31.48 474.08 31.48 469.07C31.48 464.07 35.63 460 40.74 460C45.85 460 50 464.07 50 469.07Z" id="bLGZgLOD"></path><path d="M50.26 495.07C50.26 500.08 46.11 504.15 41 504.15C35.89 504.15 31.74 500.08 31.74 495.07C31.74 490.07 35.89 486 41 486C46.11 486 50.26 490.07 50.26 495.07Z" id="def827UPI"></path><path d="M74 495.07C74 500.08 69.85 504.15 64.74 504.15C59.63 504.15 55.48 500.08 55.48 495.07C55.48 490.07 59.63 486 64.74 486C69.85 486 74 490.07 74 495.07Z" id="ash5Vgj6F"></path><path d="M74.78 525.07C74.78 530.08 70.63 534.15 65.52 534.15C60.41 534.15 56.26 530.08 56.26 525.07C56.26 520.07 60.41 516 65.52 516C70.63 516 74.78 520.07 74.78 525.07Z" id="g3dCEg6L0c"></path><path d="M95.96 524.93C95.96 529.93 91.81 534 86.7 534C81.59 534 77.44 529.93 77.44 524.93C77.44 519.92 81.59 515.85 86.7 515.85C91.81 515.85 95.96 519.92 95.96 524.93Z" id="f1gOv85ONv"></path><path d="M375.71 412.06C380.3 412.06 384.02 415.77 384.02 420.36C384.02 425.88 384.02 434.13 384.02 439.65C384.02 444.24 380.3 447.96 375.71 447.96C359.77 447.96 320.23 447.96 304.29 447.96C299.7 447.96 295.98 444.24 295.98 439.65C295.98 434.13 295.98 425.88 295.98 420.36C295.98 415.77 299.7 412.06 304.29 412.06C320.23 412.06 359.77 412.06 375.71 412.06Z" id="a5OzeOUd6j"></path><path d="M96.56 495.07C96.56 500.08 92.41 504.15 87.3 504.15C82.19 504.15 78.04 500.08 78.04 495.07C78.04 490.07 82.19 486 87.3 486C92.41 486 96.56 490.07 96.56 495.07Z" id="b35PZyIcg9"></path><path d="M51 525.07C51 530.08 46.85 534.15 41.74 534.15C36.63 534.15 32.48 530.08 32.48 525.07C32.48 520.07 36.63 516 41.74 516C46.85 516 51 520.07 51 525.07Z" id="bI3ze1Nw9"></path><path d="M85.8 552.58C89.56 552.58 92.61 555.63 92.61 559.39C92.61 565.21 92.61 575.85 92.61 581.67C92.61 585.43 89.56 588.48 85.8 588.48C75.17 588.48 50.09 588.48 39.46 588.48C35.7 588.48 32.65 585.43 32.65 581.67C32.65 575.85 32.65 565.21 32.65 559.39C32.65 555.63 35.7 552.58 39.46 552.58C50.09 552.58 75.17 552.58 85.8 552.58Z" id="aHFCr89ag"></path></defs><g><g><g><use xlink:href="#fPqMnW2rn" opacity="1" fill="#f9f9f9" fill-opacity="1"></use><g><use xlink:href="#fPqMnW2rn" opacity="1" fill-opacity="0" stroke="#439bf3" stroke-width="8" stroke-opacity="1"></use></g></g><g><use xlink:href="#f1hz0iNXY" opacity="1" fill="#439bf3" fill-opacity="1"></use></g><g><use xlink:href="#m2cieG6sdA" opacity="1" fill="#439bf3" fill-opacity="1"></use><g><use xlink:href="#m2cieG6sdA" opacity="1" fill-opacity="0" stroke="#439bf3" stroke-width="3" stroke-opacity="1"></use></g></g><g><use xlink:href="#akeRBUR7i" opacity="1" fill="#ffffff" fill-opacity="1"></use><g><use xlink:href="#akeRBUR7i" opacity="1" fill-opacity="0" stroke="#439bf3" stroke-width="8" stroke-opacity="1"></use></g></g><g><use xlink:href="#a1k3agw4Qy" opacity="1" fill="#439bf3" fill-opacity="1"></use></g><g><use xlink:href="#a4WMln3lh" opacity="1" fill="#439bf3" fill-opacity="1"></use></g><g><use xlink:href="#h24AUwXXdG" opacity="1" fill="#439bf3" fill-opacity="1"></use></g><g><use xlink:href="#a1qAbIyiaR" opacity="1" fill="#439bf3" fill-opacity="1"></use></g><g><use xlink:href="#aywiOfW1X" opacity="1" fill="#439bf3" fill-opacity="1"></use></g><g><use xlink:href="#bLGZgLOD" opacity="1" fill="#439bf3" fill-opacity="1"></use></g><g><use xlink:href="#def827UPI" opacity="1" fill="#439bf3" fill-opacity="1"></use></g><g><use xlink:href="#ash5Vgj6F" opacity="1" fill="#439bf3" fill-opacity="1"></use></g><g><use xlink:href="#g3dCEg6L0c" opacity="1" fill="#439bf3" fill-opacity="1"></use></g><g><use xlink:href="#f1gOv85ONv" opacity="1" fill="#439bf3" fill-opacity="1"></use></g><g><use xlink:href="#a5OzeOUd6j" opacity="1" fill="#439bf3" fill-opacity="1"></use><g><use xlink:href="#a5OzeOUd6j" opacity="1" fill-opacity="0" stroke="#439bf3" stroke-width="4" stroke-opacity="1"></use></g></g><g><use xlink:href="#b35PZyIcg9" opacity="1" fill="#439bf3" fill-opacity="1"></use></g><g><use xlink:href="#bI3ze1Nw9" opacity="1" fill="#439bf3" fill-opacity="1"></use></g><g><use xlink:href="#aHFCr89ag" opacity="1" fill="#439bf3" fill-opacity="1"></use><g><use xlink:href="#aHFCr89ag" opacity="1" fill-opacity="0" stroke="#439bf3" stroke-width="4" stroke-opacity="1"></use></g></g></g></g></svg>