<?xml version="1.0" encoding="UTF-8" standalone="no"?>
<!DOCTYPE svg PUBLIC "-//W3C//DTD SVG 1.1//EN" "http://www.w3.org/Graphics/SVG/1.1/DTD/svg11.dtd">
<svg version="1.1" xmlns="http://www.w3.org/2000/svg" xmlns:xlink="http://www.w3.org/1999/xlink" preserveAspectRatio="xMidYMid meet" viewBox="0 0 640 640" width="640" height="640"><defs><path d="M474.43 85.7C499.6 85.7 520 106.1 520 131.27C520 221.95 520 448.44 520 539.12C520 564.29 499.6 584.69 474.43 584.69C403.54 584.69 236.46 584.69 165.57 584.69C140.4 584.69 120 564.29 120 539.12C120 448.44 120 221.95 120 131.27C120 106.1 140.4 85.7 165.57 85.7C236.46 85.7 403.54 85.7 474.43 85.7Z" id="a42VR7QDZ8"></path><path d="M264.37 589.2C267.04 589.2 269.2 591.36 269.2 594.03C269.2 596.24 269.2 598.04 269.2 600.26C269.2 602.92 267.04 605.08 264.37 605.08C254.77 605.08 230.79 605.08 221.19 605.08C218.52 605.08 216.36 602.92 216.36 600.26C216.36 598.04 216.36 596.24 216.36 594.03C216.36 591.36 218.52 589.2 221.19 589.2C230.79 589.2 254.77 589.2 264.37 589.2Z" id="aEB2mQGF"></path><path d="M432.39 116C448.74 116 462 129.26 462 145.61C462 153.89 462 149.11 462 157.39C462 173.74 448.74 187 432.39 187C380.11 187 252.89 187 200.61 187C184.26 187 171 173.74 171 157.39C171 149.11 171 153.89 171 145.61C171 129.26 184.26 116 200.61 116C252.89 116 380.11 116 432.39 116Z" id="aAjqAbkYd"></path><path d="M434.64 203.88C454.17 203.88 470 219.71 470 239.24C470 295.39 470 428.49 470 484.64C470 504.17 454.17 520 434.64 520C382.31 520 260.69 520 208.36 520C188.83 520 173 504.17 173 484.64C173 428.49 173 295.39 173 239.24C173 219.71 188.83 203.88 208.36 203.88C260.69 203.88 382.31 203.88 434.64 203.88Z" id="b1jDYEHsdi"></path><path d="M416.5 395.75C416.5 448.6 373.26 491.5 320 491.5C266.74 491.5 223.5 448.6 223.5 395.75C223.5 342.9 266.74 300 320 300C373.26 300 416.5 342.9 416.5 395.75Z" id="aAslGIent"></path><path d="M373.59 147.59C373.59 151.79 369.87 155.19 365.29 155.19C360.72 155.19 357 151.79 357 147.59C357 143.4 360.72 140 365.29 140C369.87 140 373.59 143.4 373.59 147.59Z" id="a2nICbRYgJ"></path><path d="M195 140L288.1 140L288.1 159.63L195 159.63L195 140Z" id="c3hZXdHyh"></path><path d="M250.93 361.56C250.93 366.22 248.69 370 245.93 370C243.17 370 240.93 366.22 240.93 361.56C240.93 356.89 243.17 353.11 245.93 346C248.69 353.11 250.93 356.89 250.93 361.56Z" id="e13vJUhH4D"></path><path d="M309.58 406.68C309.81 406.68 310 406.86 310 407.1C310 407.68 310 409 310 409.58C310 409.81 309.81 410 309.58 410C307.13 410 300.21 410 297.76 410C297.53 410 297.34 409.81 297.34 409.58C297.34 409 297.34 407.68 297.34 407.1C297.34 406.86 297.53 406.68 297.76 406.68C300.21 406.68 307.13 406.68 309.58 406.68Z" id="f3I0eP1Zgi"></path><path d="M362.95 406.68C363.18 406.68 363.37 406.86 363.37 407.1C363.37 407.68 363.37 409 363.37 409.58C363.37 409.81 363.18 410 362.95 410C360.5 410 353.58 410 351.13 410C350.9 410 350.71 409.81 350.71 409.58C350.71 409 350.71 407.68 350.71 407.1C350.71 406.86 350.9 406.68 351.13 406.68C353.58 406.68 360.5 406.68 362.95 406.68Z" id="fKtHgVaPa"></path><path d="M274.58 406.68C274.81 406.68 275 406.86 275 407.1C275 407.68 275 409 275 409.58C275 409.81 274.81 410 274.58 410C272.13 410 265.21 410 262.76 410C262.53 410 262.34 409.81 262.34 409.58C262.34 409 262.34 407.68 262.34 407.1C262.34 406.86 262.53 406.68 262.76 406.68C265.21 406.68 272.13 406.68 274.58 406.68Z" id="e9LkjBfaR"></path><path d="M390.91 416.68C391.14 416.68 391.33 416.86 391.33 417.1C391.33 417.68 391.33 419 391.33 419.58C391.33 419.81 391.14 420 390.91 420C388.46 420 381.54 420 379.09 420C378.86 420 378.67 419.81 378.67 419.58C378.67 419 378.67 417.68 378.67 417.1C378.67 416.86 378.86 416.68 379.09 416.68C381.54 416.68 388.46 416.68 390.91 416.68Z" id="d2MscpkrHv"></path><path d="M395.91 421.68C396.14 421.68 396.33 421.86 396.33 422.1C396.33 422.68 396.33 424 396.33 424.58C396.33 424.81 396.14 425 395.91 425C393.46 425 386.54 425 384.09 425C383.86 425 383.67 424.81 383.67 424.58C383.67 424 383.67 422.68 383.67 422.1C383.67 421.86 383.86 421.68 384.09 421.68C386.54 421.68 393.46 421.68 395.91 421.68Z" id="d3il8N2BjC"></path><path d="M400.91 426.68C401.14 426.68 401.33 426.86 401.33 427.1C401.33 427.68 401.33 429 401.33 429.58C401.33 429.81 401.14 430 400.91 430C398.46 430 391.54 430 389.09 430C388.86 430 388.67 429.81 388.67 429.58C388.67 429 388.67 427.68 388.67 427.1C388.67 426.86 388.86 426.68 389.09 426.68C391.54 426.68 398.46 426.68 400.91 426.68Z" id="c3nGrNeSlq"></path><path d="M405.91 431.68C406.14 431.68 406.33 431.86 406.33 432.1C406.33 432.68 406.33 434 406.33 434.58C406.33 434.81 406.14 435 405.91 435C403.46 435 396.54 435 394.09 435C393.86 435 393.67 434.81 393.67 434.58C393.67 434 393.67 432.68 393.67 432.1C393.67 431.86 393.86 431.68 394.09 431.68C396.54 431.68 403.46 431.68 405.91 431.68Z" id="a1YAJWkRl"></path><path d="M410.91 436.68C411.14 436.68 411.33 436.86 411.33 437.1C411.33 437.68 411.33 439 411.33 439.58C411.33 439.81 411.14 440 410.91 440C408.46 440 401.54 440 399.09 440C398.86 440 398.67 439.81 398.67 439.58C398.67 439 398.67 437.68 398.67 437.1C398.67 436.86 398.86 436.68 399.09 436.68C401.54 436.68 408.46 436.68 410.91 436.68Z" id="bVPl5VkHB"></path><path d="M415.91 441.68C416.14 441.68 416.33 441.86 416.33 442.1C416.33 442.68 416.33 444 416.33 444.58C416.33 444.81 416.14 445 415.91 445C413.46 445 406.54 445 404.09 445C403.86 445 403.67 444.81 403.67 444.58C403.67 444 403.67 442.68 403.67 442.1C403.67 441.86 403.86 441.68 404.09 441.68C406.54 441.68 413.46 441.68 415.91 441.68Z" id="btL9wQcB"></path><path d="M420.91 446.68C421.14 446.68 421.33 446.86 421.33 447.1C421.33 447.68 421.33 449 421.33 449.58C421.33 449.81 421.14 450 420.91 450C418.46 450 411.54 450 409.09 450C408.86 450 408.67 449.81 408.67 449.58C408.67 449 408.67 447.68 408.67 447.1C408.67 446.86 408.86 446.68 409.09 446.68C411.54 446.68 418.46 446.68 420.91 446.68Z" id="b4Tqa1deqX"></path><path d="M367.95 411.68C368.18 411.68 368.37 411.86 368.37 412.1C368.37 412.68 368.37 414 368.37 414.58C368.37 414.81 368.18 415 367.95 415C365.5 415 358.58 415 356.13 415C355.9 415 355.71 414.81 355.71 414.58C355.71 414 355.71 412.68 355.71 412.1C355.71 411.86 355.9 411.68 356.13 411.68C358.58 411.68 365.5 411.68 367.95 411.68Z" id="bo0qJEBvF"></path><path d="M372.95 416.68C373.18 416.68 373.37 416.86 373.37 417.1C373.37 417.68 373.37 419 373.37 419.58C373.37 419.81 373.18 420 372.95 420C370.5 420 363.58 420 361.13 420C360.9 420 360.71 419.81 360.71 419.58C360.71 419 360.71 417.68 360.71 417.1C360.71 416.86 360.9 416.68 361.13 416.68C363.58 416.68 370.5 416.68 372.95 416.68Z" id="aLtpIoyPb"></path><path d="M377.95 421.68C378.18 421.68 378.37 421.86 378.37 422.1C378.37 422.68 378.37 424 378.37 424.58C378.37 424.81 378.18 425 377.95 425C375.5 425 368.58 425 366.13 425C365.9 425 365.71 424.81 365.71 424.58C365.71 424 365.71 422.68 365.71 422.1C365.71 421.86 365.9 421.68 366.13 421.68C368.58 421.68 375.5 421.68 377.95 421.68Z" id="i4UV7f79H"></path><path d="M382.95 426.68C383.18 426.68 383.37 426.86 383.37 427.1C383.37 427.68 383.37 429 383.37 429.58C383.37 429.81 383.18 430 382.95 430C380.5 430 373.58 430 371.13 430C370.9 430 370.71 429.81 370.71 429.58C370.71 429 370.71 427.68 370.71 427.1C370.71 426.86 370.9 426.68 371.13 426.68C373.58 426.68 380.5 426.68 382.95 426.68Z" id="a5LSYgJudz"></path><path d="M387.95 431.68C388.18 431.68 388.37 431.86 388.37 432.1C388.37 432.68 388.37 434 388.37 434.58C388.37 434.81 388.18 435 387.95 435C385.5 435 378.58 435 376.13 435C375.9 435 375.71 434.81 375.71 434.58C375.71 434 375.71 432.68 375.71 432.1C375.71 431.86 375.9 431.68 376.13 431.68C378.58 431.68 385.5 431.68 387.95 431.68Z" id="a1Ilh6NaFN"></path><path d="M397.95 441.68C398.18 441.68 398.37 441.86 398.37 442.1C398.37 442.68 398.37 444 398.37 444.58C398.37 444.81 398.18 445 397.95 445C395.5 445 388.58 445 386.13 445C385.9 445 385.71 444.81 385.71 444.58C385.71 444 385.71 442.68 385.71 442.1C385.71 441.86 385.9 441.68 386.13 441.68C388.58 441.68 395.5 441.68 397.95 441.68Z" id="hRGmd6jQc"></path><path d="M402.95 446.68C403.18 446.68 403.37 446.86 403.37 447.1C403.37 447.68 403.37 449 403.37 449.58C403.37 449.81 403.18 450 402.95 450C400.5 450 393.58 450 391.13 450C390.9 450 390.71 449.81 390.71 449.58C390.71 449 390.71 447.68 390.71 447.1C390.71 446.86 390.9 446.68 391.13 446.68C393.58 446.68 400.5 446.68 402.95 446.68Z" id="f1FJS0qea0"></path><path d="M407.95 451.68C408.18 451.68 408.37 451.86 408.37 452.1C408.37 452.68 408.37 454 408.37 454.58C408.37 454.81 408.18 455 407.95 455C405.5 455 398.58 455 396.13 455C395.9 455 395.71 454.81 395.71 454.58C395.71 454 395.71 452.68 395.71 452.1C395.71 451.86 395.9 451.68 396.13 451.68C398.58 451.68 405.5 451.68 407.95 451.68Z" id="b1nwBmhLRA"></path><path d="M412.95 456.68C413.18 456.68 413.37 456.86 413.37 457.1C413.37 457.68 413.37 459 413.37 459.58C413.37 459.81 413.18 460 412.95 460C410.5 460 403.58 460 401.13 460C400.9 460 400.71 459.81 400.71 459.58C400.71 459 400.71 457.68 400.71 457.1C400.71 456.86 400.9 456.68 401.13 456.68C403.58 456.68 410.5 456.68 412.95 456.68Z" id="arAO784Fx"></path><path d="M349.58 411.68C349.81 411.68 350 411.86 350 412.1C350 412.68 350 414 350 414.58C350 414.81 349.81 415 349.58 415C347.13 415 340.21 415 337.76 415C337.53 415 337.34 414.81 337.34 414.58C337.34 414 337.34 412.68 337.34 412.1C337.34 411.86 337.53 411.68 337.76 411.68C340.21 411.68 347.13 411.68 349.58 411.68Z" id="b1rHRWPy9k"></path><path d="M354.58 416.68C354.81 416.68 355 416.86 355 417.1C355 417.68 355 419 355 419.58C355 419.81 354.81 420 354.58 420C352.13 420 345.21 420 342.76 420C342.53 420 342.34 419.81 342.34 419.58C342.34 419 342.34 417.68 342.34 417.1C342.34 416.86 342.53 416.68 342.76 416.68C345.21 416.68 352.13 416.68 354.58 416.68Z" id="d1HxlHwO0c"></path><path d="M359.58 421.68C359.81 421.68 360 421.86 360 422.1C360 422.68 360 424 360 424.58C360 424.81 359.81 425 359.58 425C357.13 425 350.21 425 347.76 425C347.53 425 347.34 424.81 347.34 424.58C347.34 424 347.34 422.68 347.34 422.1C347.34 421.86 347.53 421.68 347.76 421.68C350.21 421.68 357.13 421.68 359.58 421.68Z" id="did5qAssN"></path><path d="M364.58 426.68C364.81 426.68 365 426.86 365 427.1C365 427.68 365 429 365 429.58C365 429.81 364.81 430 364.58 430C362.13 430 355.21 430 352.76 430C352.53 430 352.34 429.81 352.34 429.58C352.34 429 352.34 427.68 352.34 427.1C352.34 426.86 352.53 426.68 352.76 426.68C355.21 426.68 362.13 426.68 364.58 426.68Z" id="a1SVWu5pAy"></path><path d="M369.58 431.68C369.81 431.68 370 431.86 370 432.1C370 432.68 370 434 370 434.58C370 434.81 369.81 435 369.58 435C367.13 435 360.21 435 357.76 435C357.53 435 357.34 434.81 357.34 434.58C357.34 434 357.34 432.68 357.34 432.1C357.34 431.86 357.53 431.68 357.76 431.68C360.21 431.68 367.13 431.68 369.58 431.68Z" id="b29I06K8yA"></path><path d="M374.58 436.68C374.81 436.68 375 436.86 375 437.1C375 437.68 375 439 375 439.58C375 439.81 374.81 440 374.58 440C372.13 440 365.21 440 362.76 440C362.53 440 362.34 439.81 362.34 439.58C362.34 439 362.34 437.68 362.34 437.1C362.34 436.86 362.53 436.68 362.76 436.68C365.21 436.68 372.13 436.68 374.58 436.68Z" id="e1qL4ZYTlg"></path><path d="M379.58 441.68C379.81 441.68 380 441.86 380 442.1C380 442.68 380 444 380 444.58C380 444.81 379.81 445 379.58 445C377.13 445 370.21 445 367.76 445C367.53 445 367.34 444.81 367.34 444.58C367.34 444 367.34 442.68 367.34 442.1C367.34 441.86 367.53 441.68 367.76 441.68C370.21 441.68 377.13 441.68 379.58 441.68Z" id="b19NwQATFM"></path><path d="M389.58 451.68C389.81 451.68 390 451.86 390 452.1C390 452.68 390 454 390 454.58C390 454.81 389.81 455 389.58 455C387.13 455 380.21 455 377.76 455C377.53 455 377.34 454.81 377.34 454.58C377.34 454 377.34 452.68 377.34 452.1C377.34 451.86 377.53 451.68 377.76 451.68C380.21 451.68 387.13 451.68 389.58 451.68Z" id="c2aLcjQSVh"></path><path d="M384.58 446.68C384.81 446.68 385 446.86 385 447.1C385 447.68 385 449 385 449.58C385 449.81 384.81 450 384.58 450C382.13 450 375.21 450 372.76 450C372.53 450 372.34 449.81 372.34 449.58C372.34 449 372.34 447.68 372.34 447.1C372.34 446.86 372.53 446.68 372.76 446.68C375.21 446.68 382.13 446.68 384.58 446.68Z" id="aINHNvlJ2"></path><path d="M394.58 456.68C394.81 456.68 395 456.86 395 457.1C395 457.68 395 459 395 459.58C395 459.81 394.81 460 394.58 460C392.13 460 385.21 460 382.76 460C382.53 460 382.34 459.81 382.34 459.58C382.34 459 382.34 457.68 382.34 457.1C382.34 456.86 382.53 456.68 382.76 456.68C385.21 456.68 392.13 456.68 394.58 456.68Z" id="a1o34pc3hj"></path><path d="M399.58 461.68C399.81 461.68 400 461.86 400 462.1C400 462.68 400 464 400 464.58C400 464.81 399.81 465 399.58 465C397.13 465 390.21 465 387.76 465C387.53 465 387.34 464.81 387.34 464.58C387.34 464 387.34 462.68 387.34 462.1C387.34 461.86 387.53 461.68 387.76 461.68C390.21 461.68 397.13 461.68 399.58 461.68Z" id="ci4J6pug3"></path><path d="M404.58 466.68C404.81 466.68 405 466.86 405 467.1C405 467.68 405 469 405 469.58C405 469.81 404.81 470 404.58 470C402.13 470 395.21 470 392.76 470C392.53 470 392.34 469.81 392.34 469.58C392.34 469 392.34 467.68 392.34 467.1C392.34 466.86 392.53 466.68 392.76 466.68C395.21 466.68 402.13 466.68 404.58 466.68Z" id="bhPmJSTS5"></path><path d="M337.24 420C337.47 420 337.66 419.81 337.66 419.58C337.66 419 337.66 417.68 337.66 417.1C337.66 416.86 337.47 416.68 337.24 416.68C334.79 416.68 327.87 416.68 325.42 416.68C325.19 416.68 325 416.86 325 417.1C325 417.68 325 419 325 419.58C325 419.81 325.19 420 325.42 420C327.87 420 334.79 420 337.24 420Z" id="abBBxcJsr"></path><path d="M342.24 425C342.47 425 342.66 424.81 342.66 424.58C342.66 424 342.66 422.68 342.66 422.1C342.66 421.86 342.47 421.68 342.24 421.68C339.79 421.68 332.87 421.68 330.42 421.68C330.19 421.68 330 421.86 330 422.1C330 422.68 330 424 330 424.58C330 424.81 330.19 425 330.42 425C332.87 425 339.79 425 342.24 425Z" id="b6FWeP95Ua"></path><path d="M347.24 426.68C347.47 426.68 347.66 426.86 347.66 427.1C347.66 427.68 347.66 429 347.66 429.58C347.66 429.81 347.47 430 347.24 430C344.79 430 337.87 430 335.42 430C335.19 430 335 429.81 335 429.58C335 429 335 427.68 335 427.1C335 426.86 335.19 426.68 335.42 426.68C337.87 426.68 344.79 426.68 347.24 426.68Z" id="b1QkuHdysF"></path><path d="M352.24 431.68C352.47 431.68 352.66 431.86 352.66 432.1C352.66 432.68 352.66 434 352.66 434.58C352.66 434.81 352.47 435 352.24 435C349.79 435 342.87 435 340.42 435C340.19 435 340 434.81 340 434.58C340 434 340 432.68 340 432.1C340 431.86 340.19 431.68 340.42 431.68C342.87 431.68 349.79 431.68 352.24 431.68Z" id="jcRtCXcN"></path><path d="M345.42 436.68C345.19 436.68 345 436.86 345 437.1C345 437.68 345 439 345 439.58C345 439.81 345.19 440 345.42 440C347.87 440 354.79 440 357.24 440C357.47 440 357.66 439.81 357.66 439.58C357.66 439 357.66 437.68 357.66 437.1C357.66 436.86 357.47 436.68 357.24 436.68C354.79 436.68 347.87 436.68 345.42 436.68Z" id="agangOVwc"></path><path d="M362.24 441.68C362.47 441.68 362.66 441.86 362.66 442.1C362.66 442.68 362.66 444 362.66 444.58C362.66 444.81 362.47 445 362.24 445C359.79 445 352.87 445 350.42 445C350.19 445 350 444.81 350 444.58C350 444 350 442.68 350 442.1C350 441.86 350.19 441.68 350.42 441.68C352.87 441.68 359.79 441.68 362.24 441.68Z" id="aSbe8vX1w"></path><path d="M367.24 446.68C367.47 446.68 367.66 446.86 367.66 447.1C367.66 447.68 367.66 449 367.66 449.58C367.66 449.81 367.47 450 367.24 450C364.79 450 357.87 450 355.42 450C355.19 450 355 449.81 355 449.58C355 449 355 447.68 355 447.1C355 446.86 355.19 446.68 355.42 446.68C357.87 446.68 364.79 446.68 367.24 446.68Z" id="h15T9L85H"></path><path d="M372.24 451.68C372.47 451.68 372.66 451.86 372.66 452.1C372.66 452.68 372.66 454 372.66 454.58C372.66 454.81 372.47 455 372.24 455C369.79 455 362.87 455 360.42 455C360.19 455 360 454.81 360 454.58C360 454 360 452.68 360 452.1C360 451.86 360.19 451.68 360.42 451.68C362.87 451.68 369.79 451.68 372.24 451.68Z" id="kH8p21Qzs"></path><path d="M377.24 456.68C377.47 456.68 377.66 456.86 377.66 457.1C377.66 457.68 377.66 459 377.66 459.58C377.66 459.81 377.47 460 377.24 460C374.79 460 367.87 460 365.42 460C365.19 460 365 459.81 365 459.58C365 459 365 457.68 365 457.1C365 456.86 365.19 456.68 365.42 456.68C367.87 456.68 374.79 456.68 377.24 456.68Z" id="a2c1noq9EA"></path><path d="M382.24 461.68C382.47 461.68 382.66 461.86 382.66 462.1C382.66 462.68 382.66 464 382.66 464.58C382.66 464.81 382.47 465 382.24 465C379.79 465 372.87 465 370.42 465C370.19 465 370 464.81 370 464.58C370 464 370 462.68 370 462.1C370 461.86 370.19 461.68 370.42 461.68C372.87 461.68 379.79 461.68 382.24 461.68Z" id="ame731DM3"></path><path d="M387.24 466.68C387.47 466.68 387.66 466.86 387.66 467.1C387.66 467.68 387.66 469 387.66 469.58C387.66 469.81 387.47 470 387.24 470C384.79 470 377.87 470 375.42 470C375.19 470 375 469.81 375 469.58C375 469 375 467.68 375 467.1C375 466.86 375.19 466.68 375.42 466.68C377.87 466.68 384.79 466.68 387.24 466.68Z" id="a1xKJW5EFt"></path><path d="M392.24 471.68C392.47 471.68 392.66 471.86 392.66 472.1C392.66 472.68 392.66 474 392.66 474.58C392.66 474.81 392.47 475 392.24 475C389.79 475 382.87 475 380.42 475C380.19 475 380 474.81 380 474.58C380 474 380 472.68 380 472.1C380 471.86 380.19 471.68 380.42 471.68C382.87 471.68 389.79 471.68 392.24 471.68Z" id="d1ia1EDPJ5"></path><path d="M314.58 411.68C314.81 411.68 315 411.86 315 412.1C315 412.68 315 414 315 414.58C315 414.81 314.81 415 314.58 415C312.13 415 305.21 415 302.76 415C302.53 415 302.34 414.81 302.34 414.58C302.34 414 302.34 412.68 302.34 412.1C302.34 411.86 302.53 411.68 302.76 411.68C305.21 411.68 312.13 411.68 314.58 411.68Z" id="a1v9SH7U0e"></path><path d="M319.58 416.68C319.81 416.68 320 416.86 320 417.1C320 417.68 320 419 320 419.58C320 419.81 319.81 420 319.58 420C317.13 420 310.21 420 307.76 420C307.53 420 307.34 419.81 307.34 419.58C307.34 419 307.34 417.68 307.34 417.1C307.34 416.86 307.53 416.68 307.76 416.68C310.21 416.68 317.13 416.68 319.58 416.68Z" id="d1FRuxvzyh"></path><path d="M324.58 421.68C324.81 421.68 325 421.86 325 422.1C325 422.68 325 424 325 424.58C325 424.81 324.81 425 324.58 425C322.13 425 315.21 425 312.76 425C312.53 425 312.34 424.81 312.34 424.58C312.34 424 312.34 422.68 312.34 422.1C312.34 421.86 312.53 421.68 312.76 421.68C315.21 421.68 322.13 421.68 324.58 421.68Z" id="f1hfVtDs2N"></path><path d="M329.58 426.68C329.81 426.68 330 426.86 330 427.1C330 427.68 330 429 330 429.58C330 429.81 329.81 430 329.58 430C327.13 430 320.21 430 317.76 430C317.53 430 317.34 429.81 317.34 429.58C317.34 429 317.34 427.68 317.34 427.1C317.34 426.86 317.53 426.68 317.76 426.68C320.21 426.68 327.13 426.68 329.58 426.68Z" id="a5788Cur5t"></path><path d="M334.58 431.68C334.81 431.68 335 431.86 335 432.1C335 432.68 335 434 335 434.58C335 434.81 334.81 435 334.58 435C332.13 435 325.21 435 322.76 435C322.53 435 322.34 434.81 322.34 434.58C322.34 434 322.34 432.68 322.34 432.1C322.34 431.86 322.53 431.68 322.76 431.68C325.21 431.68 332.13 431.68 334.58 431.68Z" id="a2aPCIExoj"></path><path d="M339.58 436.68C339.81 436.68 340 436.86 340 437.1C340 437.68 340 439 340 439.58C340 439.81 339.81 440 339.58 440C337.13 440 330.21 440 327.76 440C327.53 440 327.34 439.81 327.34 439.58C327.34 439 327.34 437.68 327.34 437.1C327.34 436.86 327.53 436.68 327.76 436.68C330.21 436.68 337.13 436.68 339.58 436.68Z" id="e80qLcF8ON"></path><path d="M344.58 441.68C344.81 441.68 345 441.86 345 442.1C345 442.68 345 444 345 444.58C345 444.81 344.81 445 344.58 445C342.13 445 335.21 445 332.76 445C332.53 445 332.34 444.81 332.34 444.58C332.34 444 332.34 442.68 332.34 442.1C332.34 441.86 332.53 441.68 332.76 441.68C335.21 441.68 342.13 441.68 344.58 441.68Z" id="g5qtlGOGYJ"></path><path d="M349.58 446.68C349.81 446.68 350 446.86 350 447.1C350 447.68 350 449 350 449.58C350 449.81 349.81 450 349.58 450C347.13 450 340.21 450 337.76 450C337.53 450 337.34 449.81 337.34 449.58C337.34 449 337.34 447.68 337.34 447.1C337.34 446.86 337.53 446.68 337.76 446.68C340.21 446.68 347.13 446.68 349.58 446.68Z" id="b1hMWA5r1h"></path><path d="M354.58 451.68C354.81 451.68 355 451.86 355 452.1C355 452.68 355 454 355 454.58C355 454.81 354.81 455 354.58 455C352.13 455 345.21 455 342.76 455C342.53 455 342.34 454.81 342.34 454.58C342.34 454 342.34 452.68 342.34 452.1C342.34 451.86 342.53 451.68 342.76 451.68C345.21 451.68 352.13 451.68 354.58 451.68Z" id="c6oVsV0AP9"></path><path d="M359.58 456.68C359.81 456.68 360 456.86 360 457.1C360 457.68 360 459 360 459.58C360 459.81 359.81 460 359.58 460C357.13 460 350.21 460 347.76 460C347.53 460 347.34 459.81 347.34 459.58C347.34 459 347.34 457.68 347.34 457.1C347.34 456.86 347.53 456.68 347.76 456.68C350.21 456.68 357.13 456.68 359.58 456.68Z" id="d6iipXlo"></path><path d="M364.58 461.68C364.81 461.68 365 461.86 365 462.1C365 462.68 365 464 365 464.58C365 464.81 364.81 465 364.58 465C362.13 465 355.21 465 352.76 465C352.53 465 352.34 464.81 352.34 464.58C352.34 464 352.34 462.68 352.34 462.1C352.34 461.86 352.53 461.68 352.76 461.68C355.21 461.68 362.13 461.68 364.58 461.68Z" id="czwreF1Eb"></path><path d="M369.58 466.68C369.81 466.68 370 466.86 370 467.1C370 467.68 370 469 370 469.58C370 469.81 369.81 470 369.58 470C367.13 470 360.21 470 357.76 470C357.53 470 357.34 469.81 357.34 469.58C357.34 469 357.34 467.68 357.34 467.1C357.34 466.86 357.53 466.68 357.76 466.68C360.21 466.68 367.13 466.68 369.58 466.68Z" id="bmuhBeEmJ"></path><path d="M374.58 471.68C374.81 471.68 375 471.86 375 472.1C375 472.68 375 474 375 474.58C375 474.81 374.81 475 374.58 475C372.13 475 365.21 475 362.76 475C362.53 475 362.34 474.81 362.34 474.58C362.34 474 362.34 472.68 362.34 472.1C362.34 471.86 362.53 471.68 362.76 471.68C365.21 471.68 372.13 471.68 374.58 471.68Z" id="d20FnFWxHk"></path><path d="M379.58 476.68C379.81 476.68 380 476.86 380 477.1C380 477.68 380 479 380 479.58C380 479.81 379.81 480 379.58 480C377.13 480 370.21 480 367.76 480C367.53 480 367.34 479.81 367.34 479.58C367.34 479 367.34 477.68 367.34 477.1C367.34 476.86 367.53 476.68 367.76 476.68C370.21 476.68 377.13 476.68 379.58 476.68Z" id="a1RbE2rC9T"></path><path d="M302.24 416.68C302.47 416.68 302.66 416.86 302.66 417.1C302.66 417.68 302.66 419 302.66 419.58C302.66 419.81 302.47 420 302.24 420C299.79 420 292.87 420 290.42 420C290.19 420 290 419.81 290 419.58C290 419 290 417.68 290 417.1C290 416.86 290.19 416.68 290.42 416.68C292.87 416.68 299.79 416.68 302.24 416.68Z" id="d1Fw7EQzBO"></path><path d="M307.24 421.68C307.47 421.68 307.66 421.86 307.66 422.1C307.66 422.68 307.66 424 307.66 424.58C307.66 424.81 307.47 425 307.24 425C304.79 425 297.87 425 295.42 425C295.19 425 295 424.81 295 424.58C295 424 295 422.68 295 422.1C295 421.86 295.19 421.68 295.42 421.68C297.87 421.68 304.79 421.68 307.24 421.68Z" id="i9jni02c9"></path><path d="M312.24 426.68C312.47 426.68 312.66 426.86 312.66 427.1C312.66 427.68 312.66 429 312.66 429.58C312.66 429.81 312.47 430 312.24 430C309.79 430 302.87 430 300.42 430C300.19 430 300 429.81 300 429.58C300 429 300 427.68 300 427.1C300 426.86 300.19 426.68 300.42 426.68C302.87 426.68 309.79 426.68 312.24 426.68Z" id="d1eGxSPbCd"></path><path d="M317.24 431.68C317.47 431.68 317.66 431.86 317.66 432.1C317.66 432.68 317.66 434 317.66 434.58C317.66 434.81 317.47 435 317.24 435C314.79 435 307.87 435 305.42 435C305.19 435 305 434.81 305 434.58C305 434 305 432.68 305 432.1C305 431.86 305.19 431.68 305.42 431.68C307.87 431.68 314.79 431.68 317.24 431.68Z" id="ci50VboNa"></path><path d="M322.24 436.68C322.47 436.68 322.66 436.86 322.66 437.1C322.66 437.68 322.66 439 322.66 439.58C322.66 439.81 322.47 440 322.24 440C319.79 440 312.87 440 310.42 440C310.19 440 310 439.81 310 439.58C310 439 310 437.68 310 437.1C310 436.86 310.19 436.68 310.42 436.68C312.87 436.68 319.79 436.68 322.24 436.68Z" id="c1LOw1c7z3"></path><path d="M327.24 441.68C327.47 441.68 327.66 441.86 327.66 442.1C327.66 442.68 327.66 444 327.66 444.58C327.66 444.81 327.47 445 327.24 445C324.79 445 317.87 445 315.42 445C315.19 445 315 444.81 315 444.58C315 444 315 442.68 315 442.1C315 441.86 315.19 441.68 315.42 441.68C317.87 441.68 324.79 441.68 327.24 441.68Z" id="cBTbJnGdZ"></path><path d="M332.24 446.68C332.47 446.68 332.66 446.86 332.66 447.1C332.66 447.68 332.66 449 332.66 449.58C332.66 449.81 332.47 450 332.24 450C329.79 450 322.87 450 320.42 450C320.19 450 320 449.81 320 449.58C320 449 320 447.68 320 447.1C320 446.86 320.19 446.68 320.42 446.68C322.87 446.68 329.79 446.68 332.24 446.68Z" id="b7o9Vl4xV"></path><path d="M337.24 451.68C337.47 451.68 337.66 451.86 337.66 452.1C337.66 452.68 337.66 454 337.66 454.58C337.66 454.81 337.47 455 337.24 455C334.79 455 327.87 455 325.42 455C325.19 455 325 454.81 325 454.58C325 454 325 452.68 325 452.1C325 451.86 325.19 451.68 325.42 451.68C327.87 451.68 334.79 451.68 337.24 451.68Z" id="boEKCUftN"></path><path d="M342.24 460C342.47 460 342.66 459.81 342.66 459.58C342.66 459 342.66 457.68 342.66 457.1C342.66 456.86 342.47 456.68 342.24 456.68C339.79 456.68 332.87 456.68 330.42 456.68C330.19 456.68 330 456.86 330 457.1C330 457.68 330 459 330 459.58C330 459.81 330.19 460 330.42 460C332.87 460 339.79 460 342.24 460Z" id="a4jln6Are"></path><path d="M347.24 461.68C347.47 461.68 347.66 461.86 347.66 462.1C347.66 462.68 347.66 464 347.66 464.58C347.66 464.81 347.47 465 347.24 465C344.79 465 337.87 465 335.42 465C335.19 465 335 464.81 335 464.58C335 464 335 462.68 335 462.1C335 461.86 335.19 461.68 335.42 461.68C337.87 461.68 344.79 461.68 347.24 461.68Z" id="h1QyQRZmSc"></path><path d="M352.24 470C352.47 470 352.66 469.81 352.66 469.58C352.66 469 352.66 467.68 352.66 467.1C352.66 466.86 352.47 466.68 352.24 466.68C349.79 466.68 342.87 466.68 340.42 466.68C340.19 466.68 340 466.86 340 467.1C340 467.68 340 469 340 469.58C340 469.81 340.19 470 340.42 470C342.87 470 349.79 470 352.24 470Z" id="b1MAET4sSY"></path><path d="M357.24 475C357.47 475 357.66 474.81 357.66 474.58C357.66 474 357.66 472.68 357.66 472.1C357.66 471.86 357.47 471.68 357.24 471.68C354.79 471.68 347.87 471.68 345.42 471.68C345.19 471.68 345 471.86 345 472.1C345 472.68 345 474 345 474.58C345 474.81 345.19 475 345.42 475C347.87 475 354.79 475 357.24 475Z" id="avGVs3HGN"></path><path d="M362.24 476.68C362.47 476.68 362.66 476.86 362.66 477.1C362.66 477.68 362.66 479 362.66 479.58C362.66 479.81 362.47 480 362.24 480C359.79 480 352.87 480 350.42 480C350.19 480 350 479.81 350 479.58C350 479 350 477.68 350 477.1C350 476.86 350.19 476.68 350.42 476.68C352.87 476.68 359.79 476.68 362.24 476.68Z" id="c271P4rdBC"></path><path d="M367.24 481.68C367.47 481.68 367.66 481.86 367.66 482.1C367.66 482.68 367.66 484 367.66 484.58C367.66 484.81 367.47 485 367.24 485C364.79 485 357.87 485 355.42 485C355.19 485 355 484.81 355 484.58C355 484 355 482.68 355 482.1C355 481.86 355.19 481.68 355.42 481.68C357.87 481.68 364.79 481.68 367.24 481.68Z" id="b8NiU5lDn"></path><path d="M279.58 411.68C279.81 411.68 280 411.86 280 412.1C280 412.68 280 414 280 414.58C280 414.81 279.81 415 279.58 415C277.13 415 270.21 415 267.76 415C267.53 415 267.34 414.81 267.34 414.58C267.34 414 267.34 412.68 267.34 412.1C267.34 411.86 267.53 411.68 267.76 411.68C270.21 411.68 277.13 411.68 279.58 411.68Z" id="bhRTbTajx"></path><path d="M284.58 420C284.81 420 285 419.81 285 419.58C285 419 285 417.68 285 417.1C285 416.86 284.81 416.68 284.58 416.68C282.13 416.68 275.21 416.68 272.76 416.68C272.53 416.68 272.34 416.86 272.34 417.1C272.34 417.68 272.34 419 272.34 419.58C272.34 419.81 272.53 420 272.76 420C275.21 420 282.13 420 284.58 420Z" id="c5N4ljukQ"></path><path d="M289.58 421.68C289.81 421.68 290 421.86 290 422.1C290 422.68 290 424 290 424.58C290 424.81 289.81 425 289.58 425C287.13 425 280.21 425 277.76 425C277.53 425 277.34 424.81 277.34 424.58C277.34 424 277.34 422.68 277.34 422.1C277.34 421.86 277.53 421.68 277.76 421.68C280.21 421.68 287.13 421.68 289.58 421.68Z" id="b1oE0jfbYJ"></path><path d="M294.58 426.68C294.81 426.68 295 426.86 295 427.1C295 427.68 295 429 295 429.58C295 429.81 294.81 430 294.58 430C292.13 430 285.21 430 282.76 430C282.53 430 282.34 429.81 282.34 429.58C282.34 429 282.34 427.68 282.34 427.1C282.34 426.86 282.53 426.68 282.76 426.68C285.21 426.68 292.13 426.68 294.58 426.68Z" id="a1j6iZrfum"></path><path d="M299.58 431.68C299.81 431.68 300 431.86 300 432.1C300 432.68 300 434 300 434.58C300 434.81 299.81 435 299.58 435C297.13 435 290.21 435 287.76 435C287.53 435 287.34 434.81 287.34 434.58C287.34 434 287.34 432.68 287.34 432.1C287.34 431.86 287.53 431.68 287.76 431.68C290.21 431.68 297.13 431.68 299.58 431.68Z" id="f9fEfdzMY"></path><path d="M304.58 436.68C304.81 436.68 305 436.86 305 437.1C305 437.68 305 439 305 439.58C305 439.81 304.81 440 304.58 440C302.13 440 295.21 440 292.76 440C292.53 440 292.34 439.81 292.34 439.58C292.34 439 292.34 437.68 292.34 437.1C292.34 436.86 292.53 436.68 292.76 436.68C295.21 436.68 302.13 436.68 304.58 436.68Z" id="b3Gl7129B"></path><path d="M309.58 441.68C309.81 441.68 310 441.86 310 442.1C310 442.68 310 444 310 444.58C310 444.81 309.81 445 309.58 445C307.13 445 300.21 445 297.76 445C297.53 445 297.34 444.81 297.34 444.58C297.34 444 297.34 442.68 297.34 442.1C297.34 441.86 297.53 441.68 297.76 441.68C300.21 441.68 307.13 441.68 309.58 441.68Z" id="g2DSZJRZuE"></path><path d="M314.58 446.68C314.81 446.68 315 446.86 315 447.1C315 447.68 315 449 315 449.58C315 449.81 314.81 450 314.58 450C312.13 450 305.21 450 302.76 450C302.53 450 302.34 449.81 302.34 449.58C302.34 449 302.34 447.68 302.34 447.1C302.34 446.86 302.53 446.68 302.76 446.68C305.21 446.68 312.13 446.68 314.58 446.68Z" id="gqjjJDSsN"></path><path d="M319.58 451.68C319.81 451.68 320 451.86 320 452.1C320 452.68 320 454 320 454.58C320 454.81 319.81 455 319.58 455C317.13 455 310.21 455 307.76 455C307.53 455 307.34 454.81 307.34 454.58C307.34 454 307.34 452.68 307.34 452.1C307.34 451.86 307.53 451.68 307.76 451.68C310.21 451.68 317.13 451.68 319.58 451.68Z" id="b1XLMAvFZl"></path><path d="M324.58 456.68C324.81 456.68 325 456.86 325 457.1C325 457.68 325 459 325 459.58C325 459.81 324.81 460 324.58 460C322.13 460 315.21 460 312.76 460C312.53 460 312.34 459.81 312.34 459.58C312.34 459 312.34 457.68 312.34 457.1C312.34 456.86 312.53 456.68 312.76 456.68C315.21 456.68 322.13 456.68 324.58 456.68Z" id="c2U9yW2rsq"></path><path d="M329.58 461.68C329.81 461.68 330 461.86 330 462.1C330 462.68 330 464 330 464.58C330 464.81 329.81 465 329.58 465C327.13 465 320.21 465 317.76 465C317.53 465 317.34 464.81 317.34 464.58C317.34 464 317.34 462.68 317.34 462.1C317.34 461.86 317.53 461.68 317.76 461.68C320.21 461.68 327.13 461.68 329.58 461.68Z" id="e2qiZ41TYN"></path><path d="M334.58 466.68C334.81 466.68 335 466.86 335 467.1C335 467.68 335 469 335 469.58C335 469.81 334.81 470 334.58 470C332.13 470 325.21 470 322.76 470C322.53 470 322.34 469.81 322.34 469.58C322.34 469 322.34 467.68 322.34 467.1C322.34 466.86 322.53 466.68 322.76 466.68C325.21 466.68 332.13 466.68 334.58 466.68Z" id="c9JJcacVbx"></path><path d="M339.58 471.68C339.81 471.68 340 471.86 340 472.1C340 472.68 340 474 340 474.58C340 474.81 339.81 475 339.58 475C337.13 475 330.21 475 327.76 475C327.53 475 327.34 474.81 327.34 474.58C327.34 474 327.34 472.68 327.34 472.1C327.34 471.86 327.53 471.68 327.76 471.68C330.21 471.68 337.13 471.68 339.58 471.68Z" id="aF5lw2uL5"></path><path d="M344.58 476.68C344.81 476.68 345 476.86 345 477.1C345 477.68 345 479 345 479.58C345 479.81 344.81 480 344.58 480C342.13 480 335.21 480 332.76 480C332.53 480 332.34 479.81 332.34 479.58C332.34 479 332.34 477.68 332.34 477.1C332.34 476.86 332.53 476.68 332.76 476.68C335.21 476.68 342.13 476.68 344.58 476.68Z" id="a3OjHGZeU"></path><path d="M349.58 485C349.81 485 350 484.81 350 484.58C350 484 350 482.68 350 482.1C350 481.86 349.81 481.68 349.58 481.68C347.13 481.68 340.21 481.68 337.76 481.68C337.53 481.68 337.34 481.86 337.34 482.1C337.34 482.68 337.34 484 337.34 484.58C337.34 484.81 337.53 485 337.76 485C340.21 485 347.13 485 349.58 485Z" id="j5lzE26pv5"></path><path d="M395.91 421.68C396.14 421.68 396.33 421.86 396.33 422.1C396.33 422.68 396.33 424 396.33 424.58C396.33 424.81 396.14 425 395.91 425C393.46 425 386.54 425 384.09 425C383.86 425 383.67 424.81 383.67 424.58C383.67 424 383.67 422.68 383.67 422.1C383.67 421.86 383.86 421.68 384.09 421.68C386.54 421.68 393.46 421.68 395.91 421.68Z" id="e2u4MWWtVa"></path><path d="M404.58 411.68C404.81 411.68 405 411.86 405 412.1C405 412.68 405 414 405 414.58C405 414.81 404.81 415 404.58 415C402.13 415 395.21 415 392.76 415C392.53 415 392.34 414.81 392.34 414.58C392.34 414 392.34 412.68 392.34 412.1C392.34 411.86 392.53 411.68 392.76 411.68C395.21 411.68 402.13 411.68 404.58 411.68Z" id="hD67zABxs"></path><path d="M409.58 416.68C409.81 416.68 410 416.86 410 417.1C410 417.68 410 419 410 419.58C410 419.81 409.81 420 409.58 420C407.13 420 400.21 420 397.76 420C397.53 420 397.34 419.81 397.34 419.58C397.34 419 397.34 417.68 397.34 417.1C397.34 416.86 397.53 416.68 397.76 416.68C400.21 416.68 407.13 416.68 409.58 416.68Z" id="b70xcpbjPs"></path><path d="M414.58 421.68C414.81 421.68 415 421.86 415 422.1C415 422.68 415 424 415 424.58C415 424.81 414.81 425 414.58 425C412.13 425 405.21 425 402.76 425C402.53 425 402.34 424.81 402.34 424.58C402.34 424 402.34 422.68 402.34 422.1C402.34 421.86 402.53 421.68 402.76 421.68C405.21 421.68 412.13 421.68 414.58 421.68Z" id="a1kWQU41YB"></path><path d="M424.58 431.68C424.81 431.68 425 431.86 425 432.1C425 432.68 425 434 425 434.58C425 434.81 424.81 435 424.58 435C422.13 435 415.21 435 412.76 435C412.53 435 412.34 434.81 412.34 434.58C412.34 434 412.34 432.68 412.34 432.1C412.34 431.86 412.53 431.68 412.76 431.68C415.21 431.68 422.13 431.68 424.58 431.68Z" id="abSMmEiqT"></path><path d="M240.91 406.68C241.14 406.68 241.33 406.86 241.33 407.1C241.33 407.68 241.33 409 241.33 409.58C241.33 409.81 241.14 410 240.91 410C238.46 410 231.54 410 229.09 410C228.86 410 228.67 409.81 228.67 409.58C228.67 409 228.67 407.68 228.67 407.1C228.67 406.86 228.86 406.68 229.09 406.68C231.54 406.68 238.46 406.68 240.91 406.68Z" id="ajb8aI3bs"></path><path d="M429.58 436.68C429.81 436.68 430 436.86 430 437.1C430 437.68 430 439 430 439.58C430 439.81 429.81 440 429.58 440C427.13 440 420.21 440 417.76 440C417.53 440 417.34 439.81 417.34 439.58C417.34 439 417.34 437.68 417.34 437.1C417.34 436.86 417.53 436.68 417.76 436.68C420.21 436.68 427.13 436.68 429.58 436.68Z" id="bbkJXMkew"></path><path d="M434.58 406.68C434.81 406.68 435 406.86 435 407.1C435 407.68 435 409 435 409.58C435 409.81 434.81 410 434.58 410C432.13 410 425.21 410 422.76 410C422.53 410 422.34 409.81 422.34 409.58C422.34 409 422.34 407.68 422.34 407.1C422.34 406.86 422.53 406.68 422.76 406.68C425.21 406.68 432.13 406.68 434.58 406.68Z" id="c4js8VcIt4"></path><path d="M417.24 406.68C417.47 406.68 417.66 406.86 417.66 407.1C417.66 407.68 417.66 409 417.66 409.58C417.66 409.81 417.47 410 417.24 410C414.79 410 407.87 410 405.42 410C405.19 410 405 409.81 405 409.58C405 409 405 407.68 405 407.1C405 406.86 405.19 406.68 405.42 406.68C407.87 406.68 414.79 406.68 417.24 406.68Z" id="d1kOPbFonK"></path><path d="M442.75 406.68C442.87 406.68 442.96 406.77 442.96 406.89C442.96 407.51 442.96 409.16 442.96 409.78C442.96 409.9 442.87 410 442.75 410C441.48 410 437.91 410 436.64 410C436.53 410 436.43 409.9 436.43 409.78C436.43 409.16 436.43 407.51 436.43 406.89C436.43 406.77 436.53 406.68 436.64 406.68C437.91 406.68 441.48 406.68 442.75 406.68Z" id="b2cs9zj8Dr"></path><path d="M439.58 411.68C439.81 411.68 440 411.86 440 412.1C440 412.68 440 414 440 414.58C440 414.81 439.81 415 439.58 415C437.13 415 430.21 415 427.76 415C427.53 415 427.34 414.81 427.34 414.58C427.34 414 427.34 412.68 427.34 412.1C427.34 411.86 427.53 411.68 427.76 411.68C430.21 411.68 437.13 411.68 439.58 411.68Z" id="bmW76agzg"></path><path d="M439.75 416.68C439.89 416.68 440 416.79 440 416.93C440 417.54 440 419.13 440 419.75C440 419.89 439.89 420 439.75 420C438.27 420 434.08 420 432.6 420C432.46 420 432.34 419.89 432.34 419.75C432.34 419.13 432.34 417.54 432.34 416.93C432.34 416.79 432.46 416.68 432.6 416.68C434.08 416.68 438.27 416.68 439.75 416.68Z" id="aTzvMXxkY"></path><path d="M422.24 411.68C422.47 411.68 422.66 411.86 422.66 412.1C422.66 412.68 422.66 414 422.66 414.58C422.66 414.81 422.47 415 422.24 415C419.79 415 412.87 415 410.42 415C410.19 415 410 414.81 410 414.58C410 414 410 412.68 410 412.1C410 411.86 410.19 411.68 410.42 411.68C412.87 411.68 419.79 411.68 422.24 411.68Z" id="f1i38poFtP"></path><path d="M427.24 416.68C427.47 416.68 427.66 416.86 427.66 417.1C427.66 417.68 427.66 419 427.66 419.58C427.66 419.81 427.47 420 427.24 420C424.79 420 417.87 420 415.42 420C415.19 420 415 419.81 415 419.58C415 419 415 417.68 415 417.1C415 416.86 415.19 416.68 415.42 416.68C417.87 416.68 424.79 416.68 427.24 416.68Z" id="fIgtw9z0B"></path><path d="M432.24 421.68C432.47 421.68 432.66 421.86 432.66 422.1C432.66 422.68 432.66 424 432.66 424.58C432.66 424.81 432.47 425 432.24 425C429.79 425 422.87 425 420.42 425C420.19 425 420 424.81 420 424.58C420 424 420 422.68 420 422.1C420 421.86 420.19 421.68 420.42 421.68C422.87 421.68 429.79 421.68 432.24 421.68Z" id="jLfQZIr5"></path><path d="M437.24 426.68C437.47 426.68 437.66 426.86 437.66 427.1C437.66 427.68 437.66 429 437.66 429.58C437.66 429.81 437.47 430 437.24 430C434.79 430 427.87 430 425.42 430C425.19 430 425 429.81 425 429.58C425 429 425 427.68 425 427.1C425 426.86 425.19 426.68 425.42 426.68C427.87 426.68 434.79 426.68 437.24 426.68Z" id="d1s0m9UNzw"></path><path d="M274.58 421.68C274.81 421.68 275 421.86 275 422.1C275 422.68 275 424 275 424.58C275 424.81 274.81 425 274.58 425C272.13 425 265.21 425 262.76 425C262.53 425 262.34 424.81 262.34 424.58C262.34 424 262.34 422.68 262.34 422.1C262.34 421.86 262.53 421.68 262.76 421.68C265.21 421.68 272.13 421.68 274.58 421.68Z" id="a98rILKBoF"></path><path d="M284.58 416.68C284.81 416.68 285 416.86 285 417.1C285 417.68 285 419 285 419.58C285 419.81 284.81 420 284.58 420C282.13 420 275.21 420 272.76 420C272.53 420 272.34 419.81 272.34 419.58C272.34 419 272.34 417.68 272.34 417.1C272.34 416.86 272.53 416.68 272.76 416.68C275.21 416.68 282.13 416.68 284.58 416.68Z" id="bmEHvE08b"></path><path d="M279.58 426.68C279.81 426.68 280 426.86 280 427.1C280 427.68 280 429 280 429.58C280 429.81 279.81 430 279.58 430C277.13 430 270.21 430 267.76 430C267.53 430 267.34 429.81 267.34 429.58C267.34 429 267.34 427.68 267.34 427.1C267.34 426.86 267.53 426.68 267.76 426.68C270.21 426.68 277.13 426.68 279.58 426.68Z" id="b2voN4aeTF"></path><path d="M284.58 431.68C284.81 431.68 285 431.86 285 432.1C285 432.68 285 434 285 434.58C285 434.81 284.81 435 284.58 435C282.13 435 275.21 435 272.76 435C272.53 435 272.34 434.81 272.34 434.58C272.34 434 272.34 432.68 272.34 432.1C272.34 431.86 272.53 431.68 272.76 431.68C275.21 431.68 282.13 431.68 284.58 431.68Z" id="h1yZlxEyI2"></path><path d="M289.58 436.68C289.81 436.68 290 436.86 290 437.1C290 437.68 290 439 290 439.58C290 439.81 289.81 440 289.58 440C287.13 440 280.21 440 277.76 440C277.53 440 277.34 439.81 277.34 439.58C277.34 439 277.34 437.68 277.34 437.1C277.34 436.86 277.53 436.68 277.76 436.68C280.21 436.68 287.13 436.68 289.58 436.68Z" id="aFJtHxfGl"></path><path d="M294.58 441.68C294.81 441.68 295 441.86 295 442.1C295 442.68 295 444 295 444.58C295 444.81 294.81 445 294.58 445C292.13 445 285.21 445 282.76 445C282.53 445 282.34 444.81 282.34 444.58C282.34 444 282.34 442.68 282.34 442.1C282.34 441.86 282.53 441.68 282.76 441.68C285.21 441.68 292.13 441.68 294.58 441.68Z" id="a13N6tbZyp"></path><path d="M299.58 446.68C299.81 446.68 300 446.86 300 447.1C300 447.68 300 449 300 449.58C300 449.81 299.81 450 299.58 450C297.13 450 290.21 450 287.76 450C287.53 450 287.34 449.81 287.34 449.58C287.34 449 287.34 447.68 287.34 447.1C287.34 446.86 287.53 446.68 287.76 446.68C290.21 446.68 297.13 446.68 299.58 446.68Z" id="a4Wysrjus"></path><path d="M304.58 451.68C304.81 451.68 305 451.86 305 452.1C305 452.68 305 454 305 454.58C305 454.81 304.81 455 304.58 455C302.13 455 295.21 455 292.76 455C292.53 455 292.34 454.81 292.34 454.58C292.34 454 292.34 452.68 292.34 452.1C292.34 451.86 292.53 451.68 292.76 451.68C295.21 451.68 302.13 451.68 304.58 451.68Z" id="anaXbEhzA"></path><path d="M309.58 456.68C309.81 456.68 310 456.86 310 457.1C310 457.68 310 459 310 459.58C310 459.81 309.81 460 309.58 460C307.13 460 300.21 460 297.76 460C297.53 460 297.34 459.81 297.34 459.58C297.34 459 297.34 457.68 297.34 457.1C297.34 456.86 297.53 456.68 297.76 456.68C300.21 456.68 307.13 456.68 309.58 456.68Z" id="a9L5ofeBT"></path><path d="M314.58 461.68C314.81 461.68 315 461.86 315 462.1C315 462.68 315 464 315 464.58C315 464.81 314.81 465 314.58 465C312.13 465 305.21 465 302.76 465C302.53 465 302.34 464.81 302.34 464.58C302.34 464 302.34 462.68 302.34 462.1C302.34 461.86 302.53 461.68 302.76 461.68C305.21 461.68 312.13 461.68 314.58 461.68Z" id="f1ijE1PKa9"></path><path d="M319.58 466.68C319.81 466.68 320 466.86 320 467.1C320 467.68 320 469 320 469.58C320 469.81 319.81 470 319.58 470C317.13 470 310.21 470 307.76 470C307.53 470 307.34 469.81 307.34 469.58C307.34 469 307.34 467.68 307.34 467.1C307.34 466.86 307.53 466.68 307.76 466.68C310.21 466.68 317.13 466.68 319.58 466.68Z" id="a4gysh0k6m"></path><path d="M324.58 471.68C324.81 471.68 325 471.86 325 472.1C325 472.68 325 474 325 474.58C325 474.81 324.81 475 324.58 475C322.13 475 315.21 475 312.76 475C312.53 475 312.34 474.81 312.34 474.58C312.34 474 312.34 472.68 312.34 472.1C312.34 471.86 312.53 471.68 312.76 471.68C315.21 471.68 322.13 471.68 324.58 471.68Z" id="cJdVUkdk"></path><path d="M329.58 476.68C329.81 476.68 330 476.86 330 477.1C330 477.68 330 479 330 479.58C330 479.81 329.81 480 329.58 480C327.13 480 320.21 480 317.76 480C317.53 480 317.34 479.81 317.34 479.58C317.34 479 317.34 477.68 317.34 477.1C317.34 476.86 317.53 476.68 317.76 476.68C320.21 476.68 327.13 476.68 329.58 476.68Z" id="a33yJhUDE"></path><path d="M276.04 436.68C276.18 436.68 276.29 436.79 276.29 436.93C276.29 437.54 276.29 439.13 276.29 439.75C276.29 439.89 276.18 440 276.04 440C274.56 440 270.37 440 268.89 440C268.75 440 268.64 439.89 268.64 439.75C268.64 439.13 268.64 437.54 268.64 436.93C268.64 436.79 268.75 436.68 268.89 436.68C270.37 436.68 274.56 436.68 276.04 436.68Z" id="b9rz8vXOp7"></path><path d="M281.04 441.68C281.18 441.68 281.29 441.79 281.29 441.93C281.29 442.54 281.29 444.13 281.29 444.75C281.29 444.89 281.18 445 281.04 445C279.56 445 275.37 445 273.89 445C273.75 445 273.64 444.89 273.64 444.75C273.64 444.13 273.64 442.54 273.64 441.93C273.64 441.79 273.75 441.68 273.89 441.68C275.37 441.68 279.56 441.68 281.04 441.68Z" id="a1L7yg2O1y"></path><path d="M286.04 446.68C286.18 446.68 286.29 446.79 286.29 446.93C286.29 447.54 286.29 449.13 286.29 449.75C286.29 449.89 286.18 450 286.04 450C284.56 450 280.37 450 278.89 450C278.75 450 278.64 449.89 278.64 449.75C278.64 449.13 278.64 447.54 278.64 446.93C278.64 446.79 278.75 446.68 278.89 446.68C280.37 446.68 284.56 446.68 286.04 446.68Z" id="blXVN6nqj"></path><path d="M291.04 451.68C291.18 451.68 291.29 451.79 291.29 451.93C291.29 452.54 291.29 454.13 291.29 454.75C291.29 454.89 291.18 455 291.04 455C289.56 455 285.37 455 283.89 455C283.75 455 283.64 454.89 283.64 454.75C283.64 454.13 283.64 452.54 283.64 451.93C283.64 451.79 283.75 451.68 283.89 451.68C285.37 451.68 289.56 451.68 291.04 451.68Z" id="b2Se6ZiMV"></path><path d="M296.04 456.68C296.18 456.68 296.29 456.79 296.29 456.93C296.29 457.54 296.29 459.13 296.29 459.75C296.29 459.89 296.18 460 296.04 460C294.56 460 290.37 460 288.89 460C288.75 460 288.64 459.89 288.64 459.75C288.64 459.13 288.64 457.54 288.64 456.93C288.64 456.79 288.75 456.68 288.89 456.68C290.37 456.68 294.56 456.68 296.04 456.68Z" id="b1mcmvdNwP"></path><path d="M301.04 461.68C301.18 461.68 301.29 461.79 301.29 461.93C301.29 462.54 301.29 464.13 301.29 464.75C301.29 464.89 301.18 465 301.04 465C299.56 465 295.37 465 293.89 465C293.75 465 293.64 464.89 293.64 464.75C293.64 464.13 293.64 462.54 293.64 461.93C293.64 461.79 293.75 461.68 293.89 461.68C295.37 461.68 299.56 461.68 301.04 461.68Z" id="aTJVR6mGH"></path><path d="M306.04 466.68C306.18 466.68 306.29 466.79 306.29 466.93C306.29 467.54 306.29 469.13 306.29 469.75C306.29 469.89 306.18 470 306.04 470C304.56 470 300.37 470 298.89 470C298.75 470 298.64 469.89 298.64 469.75C298.64 469.13 298.64 467.54 298.64 466.93C298.64 466.79 298.75 466.68 298.89 466.68C300.37 466.68 304.56 466.68 306.04 466.68Z" id="bu7ud6YBQ"></path><path d="M311.04 471.68C311.18 471.68 311.29 471.79 311.29 471.93C311.29 472.54 311.29 474.13 311.29 474.75C311.29 474.89 311.18 475 311.04 475C309.56 475 305.37 475 303.89 475C303.75 475 303.64 474.89 303.64 474.75C303.64 474.13 303.64 472.54 303.64 471.93C303.64 471.79 303.75 471.68 303.89 471.68C305.37 471.68 309.56 471.68 311.04 471.68Z" id="aVTAWPwHD"></path><path d="M268.58 416.68C268.72 416.68 268.83 416.79 268.83 416.93C268.83 417.54 268.83 419.13 268.83 419.75C268.83 419.89 268.72 420 268.58 420C267.09 420 262.91 420 261.42 420C261.28 420 261.17 419.89 261.17 419.75C261.17 419.13 261.17 417.54 261.17 416.93C261.17 416.79 261.28 416.68 261.42 416.68C262.91 416.68 267.09 416.68 268.58 416.68Z" id="b28E4xj0JE"></path><path d="M441.59 590.12C444.26 590.12 446.42 592.28 446.42 594.95C446.42 597.16 446.42 598.96 446.42 601.17C446.42 603.84 444.26 606 441.59 606C431.99 606 408.01 606 398.41 606C395.74 606 393.58 603.84 393.58 601.17C393.58 598.96 393.58 597.16 393.58 594.95C393.58 592.28 395.74 590.12 398.41 590.12C408.01 590.12 431.99 590.12 441.59 590.12Z" id="dbjSqk7KR"></path><path d="M408.29 147.59C408.29 151.79 404.58 155.19 400 155.19C395.42 155.19 391.71 151.79 391.71 147.59C391.71 143.4 395.42 140 400 140C404.58 140 408.29 143.4 408.29 147.59Z" id="fgf0WtF6w"></path><path d="M440 147.59C440 151.79 436.28 155.19 431.71 155.19C427.13 155.19 423.41 151.79 423.41 147.59C423.41 143.4 427.13 140 431.71 140C436.28 140 440 143.4 440 147.59Z" id="g2hiLUu5Yl"></path><path d="M236.13 411.68C236.27 411.68 236.39 411.79 236.39 411.93C236.39 412.54 236.39 414.13 236.39 414.75C236.39 414.89 236.27 415 236.13 415C234.65 415 230.46 415 228.98 415C228.84 415 228.73 414.89 228.73 414.75C228.73 414.13 228.73 412.54 228.73 411.93C228.73 411.79 228.84 411.68 228.98 411.68C230.46 411.68 234.65 411.68 236.13 411.68Z" id="b1TIPccWJ9"></path><path d="M241.13 416.68C241.27 416.68 241.39 416.79 241.39 416.93C241.39 417.54 241.39 419.13 241.39 419.75C241.39 419.89 241.27 420 241.13 420C239.65 420 235.46 420 233.98 420C233.84 420 233.73 419.89 233.73 419.75C233.73 419.13 233.73 417.54 233.73 416.93C233.73 416.79 233.84 416.68 233.98 416.68C235.46 416.68 239.65 416.68 241.13 416.68Z" id="cfArketCN"></path><path d="M246.13 421.68C246.27 421.68 246.39 421.79 246.39 421.93C246.39 422.54 246.39 424.13 246.39 424.75C246.39 424.89 246.27 425 246.13 425C244.65 425 240.46 425 238.98 425C238.84 425 238.73 424.89 238.73 424.75C238.73 424.13 238.73 422.54 238.73 421.93C238.73 421.79 238.84 421.68 238.98 421.68C240.46 421.68 244.65 421.68 246.13 421.68Z" id="b3FSv3Yowj"></path><path d="M251.13 426.68C251.27 426.68 251.39 426.79 251.39 426.93C251.39 427.54 251.39 429.13 251.39 429.75C251.39 429.89 251.27 430 251.13 430C249.65 430 245.46 430 243.98 430C243.84 430 243.73 429.89 243.73 429.75C243.73 429.13 243.73 427.54 243.73 426.93C243.73 426.79 243.84 426.68 243.98 426.68C245.46 426.68 249.65 426.68 251.13 426.68Z" id="iQoDuqJ4N"></path><path d="M256.13 431.68C256.27 431.68 256.39 431.79 256.39 431.93C256.39 432.54 256.39 434.13 256.39 434.75C256.39 434.89 256.27 435 256.13 435C254.65 435 250.46 435 248.98 435C248.84 435 248.73 434.89 248.73 434.75C248.73 434.13 248.73 432.54 248.73 431.93C248.73 431.79 248.84 431.68 248.98 431.68C250.46 431.68 254.65 431.68 256.13 431.68Z" id="aDoUtaHBn"></path><path d="M261.13 436.68C261.27 436.68 261.39 436.79 261.39 436.93C261.39 437.54 261.39 439.13 261.39 439.75C261.39 439.89 261.27 440 261.13 440C259.65 440 255.46 440 253.98 440C253.84 440 253.73 439.89 253.73 439.75C253.73 439.13 253.73 437.54 253.73 436.93C253.73 436.79 253.84 436.68 253.98 436.68C255.46 436.68 259.65 436.68 261.13 436.68Z" id="bju8NlD8F"></path><path d="M266.13 441.68C266.27 441.68 266.39 441.79 266.39 441.93C266.39 442.54 266.39 444.13 266.39 444.75C266.39 444.89 266.27 445 266.13 445C264.65 445 260.46 445 258.98 445C258.84 445 258.73 444.89 258.73 444.75C258.73 444.13 258.73 442.54 258.73 441.93C258.73 441.79 258.84 441.68 258.98 441.68C260.46 441.68 264.65 441.68 266.13 441.68Z" id="j2gVjJE88"></path><path d="M271.13 446.68C271.27 446.68 271.39 446.79 271.39 446.93C271.39 447.54 271.39 449.13 271.39 449.75C271.39 449.89 271.27 450 271.13 450C269.65 450 265.46 450 263.98 450C263.84 450 263.73 449.89 263.73 449.75C263.73 449.13 263.73 447.54 263.73 446.93C263.73 446.79 263.84 446.68 263.98 446.68C265.46 446.68 269.65 446.68 271.13 446.68Z" id="blkv79Crq"></path><path d="M268.98 451.68C268.84 451.68 268.73 451.79 268.73 451.93C268.73 452.54 268.73 454.13 268.73 454.75C268.73 454.89 268.84 455 268.98 455C270.46 455 274.65 455 276.13 455C276.27 455 276.39 454.89 276.39 454.75C276.39 454.13 276.39 452.54 276.39 451.93C276.39 451.79 276.27 451.68 276.13 451.68C274.65 451.68 270.46 451.68 268.98 451.68Z" id="feBSI65rQ"></path><path d="M281.13 456.68C281.27 456.68 281.39 456.79 281.39 456.93C281.39 457.54 281.39 459.13 281.39 459.75C281.39 459.89 281.27 460 281.13 460C279.65 460 275.46 460 273.98 460C273.84 460 273.73 459.89 273.73 459.75C273.73 459.13 273.73 457.54 273.73 456.93C273.73 456.79 273.84 456.68 273.98 456.68C275.46 456.68 279.65 456.68 281.13 456.68Z" id="bBlcfwLH5"></path><path d="M286.13 461.68C286.27 461.68 286.39 461.79 286.39 461.93C286.39 462.54 286.39 464.13 286.39 464.75C286.39 464.89 286.27 465 286.13 465C284.65 465 280.46 465 278.98 465C278.84 465 278.73 464.89 278.73 464.75C278.73 464.13 278.73 462.54 278.73 461.93C278.73 461.79 278.84 461.68 278.98 461.68C280.46 461.68 284.65 461.68 286.13 461.68Z" id="f4b3Dwy3JQ"></path><path d="M291.13 466.68C291.27 466.68 291.39 466.79 291.39 466.93C291.39 467.54 291.39 469.13 291.39 469.75C291.39 469.89 291.27 470 291.13 470C289.65 470 285.46 470 283.98 470C283.84 470 283.73 469.89 283.73 469.75C283.73 469.13 283.73 467.54 283.73 466.93C283.73 466.79 283.84 466.68 283.98 466.68C285.46 466.68 289.65 466.68 291.13 466.68Z" id="fu3nyPVZW"></path><path d="M296.13 471.68C296.27 471.68 296.39 471.79 296.39 471.93C296.39 472.54 296.39 474.13 296.39 474.75C296.39 474.89 296.27 475 296.13 475C294.65 475 290.46 475 288.98 475C288.84 475 288.73 474.89 288.73 474.75C288.73 474.13 288.73 472.54 288.73 471.93C288.73 471.79 288.84 471.68 288.98 471.68C290.46 471.68 294.65 471.68 296.13 471.68Z" id="a2hU8V1gHr"></path><path d="M301.13 476.68C301.27 476.68 301.39 476.79 301.39 476.93C301.39 477.54 301.39 479.13 301.39 479.75C301.39 479.89 301.27 480 301.13 480C299.65 480 295.46 480 293.98 480C293.84 480 293.73 479.89 293.73 479.75C293.73 479.13 293.73 477.54 293.73 476.93C293.73 476.79 293.84 476.68 293.98 476.68C295.46 476.68 299.65 476.68 301.13 476.68Z" id="i4wxWVfYYZ"></path><path d="M306.13 481.68C306.27 481.68 306.39 481.79 306.39 481.93C306.39 482.54 306.39 484.13 306.39 484.75C306.39 484.89 306.27 485 306.13 485C304.65 485 300.46 485 298.98 485C298.84 485 298.73 484.89 298.73 484.75C298.73 484.13 298.73 482.54 298.73 481.93C298.73 481.79 298.84 481.68 298.98 481.68C300.46 481.68 304.65 481.68 306.13 481.68Z" id="eVG3nLAE"></path><path d="M311.13 486.68C311.27 486.68 311.39 486.79 311.39 486.93C311.39 487.54 311.39 489.13 311.39 489.75C311.39 489.89 311.27 490 311.13 490C309.65 490 305.46 490 303.98 490C303.84 490 303.73 489.89 303.73 489.75C303.73 489.13 303.73 487.54 303.73 486.93C303.73 486.79 303.84 486.68 303.98 486.68C305.46 486.68 309.65 486.68 311.13 486.68Z" id="b1MA3BJ65C"></path><path d="M237.4 421.68C237.54 421.68 237.66 421.79 237.66 421.93C237.66 422.54 237.66 424.13 237.66 424.75C237.66 424.89 237.54 425 237.4 425C235.92 425 231.73 425 230.25 425C230.11 425 230 424.89 230 424.75C230 424.13 230 422.54 230 421.93C230 421.79 230.11 421.68 230.25 421.68C231.73 421.68 235.92 421.68 237.4 421.68Z" id="b1cpYrTA5Y"></path><path d="M242.4 426.68C242.54 426.68 242.66 426.79 242.66 426.93C242.66 427.54 242.66 429.13 242.66 429.75C242.66 429.89 242.54 430 242.4 430C240.92 430 236.73 430 235.25 430C235.11 430 235 429.89 235 429.75C235 429.13 235 427.54 235 426.93C235 426.79 235.11 426.68 235.25 426.68C236.73 426.68 240.92 426.68 242.4 426.68Z" id="f17rPHn1jD"></path><path d="M247.4 431.68C247.54 431.68 247.66 431.79 247.66 431.93C247.66 432.54 247.66 434.13 247.66 434.75C247.66 434.89 247.54 435 247.4 435C245.92 435 241.73 435 240.25 435C240.11 435 240 434.89 240 434.75C240 434.13 240 432.54 240 431.93C240 431.79 240.11 431.68 240.25 431.68C241.73 431.68 245.92 431.68 247.4 431.68Z" id="a1z8HfK1Gt"></path><path d="M252.4 436.68C252.54 436.68 252.66 436.79 252.66 436.93C252.66 437.54 252.66 439.13 252.66 439.75C252.66 439.89 252.54 440 252.4 440C250.92 440 246.73 440 245.25 440C245.11 440 245 439.89 245 439.75C245 439.13 245 437.54 245 436.93C245 436.79 245.11 436.68 245.25 436.68C246.73 436.68 250.92 436.68 252.4 436.68Z" id="a2y3EnK7Ks"></path><path d="M257.4 441.68C257.54 441.68 257.66 441.79 257.66 441.93C257.66 442.54 257.66 444.13 257.66 444.75C257.66 444.89 257.54 445 257.4 445C255.92 445 251.73 445 250.25 445C250.11 445 250 444.89 250 444.75C250 444.13 250 442.54 250 441.93C250 441.79 250.11 441.68 250.25 441.68C251.73 441.68 255.92 441.68 257.4 441.68Z" id="i7u6tqb5l6"></path><path d="M262.4 446.68C262.54 446.68 262.66 446.79 262.66 446.93C262.66 447.54 262.66 449.13 262.66 449.75C262.66 449.89 262.54 450 262.4 450C260.92 450 256.73 450 255.25 450C255.11 450 255 449.89 255 449.75C255 449.13 255 447.54 255 446.93C255 446.79 255.11 446.68 255.25 446.68C256.73 446.68 260.92 446.68 262.4 446.68Z" id="a1ZWPQsQ6f"></path><path d="M267.4 451.68C267.54 451.68 267.66 451.79 267.66 451.93C267.66 452.54 267.66 454.13 267.66 454.75C267.66 454.89 267.54 455 267.4 455C265.92 455 261.73 455 260.25 455C260.11 455 260 454.89 260 454.75C260 454.13 260 452.54 260 451.93C260 451.79 260.11 451.68 260.25 451.68C261.73 451.68 265.92 451.68 267.4 451.68Z" id="c1uVONsKKJ"></path><path d="M272.4 456.68C272.54 456.68 272.66 456.79 272.66 456.93C272.66 457.54 272.66 459.13 272.66 459.75C272.66 459.89 272.54 460 272.4 460C270.92 460 266.73 460 265.25 460C265.11 460 265 459.89 265 459.75C265 459.13 265 457.54 265 456.93C265 456.79 265.11 456.68 265.25 456.68C266.73 456.68 270.92 456.68 272.4 456.68Z" id="bwwXhmovF"></path><path d="M277.4 461.68C277.54 461.68 277.66 461.79 277.66 461.93C277.66 462.54 277.66 464.13 277.66 464.75C277.66 464.89 277.54 465 277.4 465C275.92 465 271.73 465 270.25 465C270.11 465 270 464.89 270 464.75C270 464.13 270 462.54 270 461.93C270 461.79 270.11 461.68 270.25 461.68C271.73 461.68 275.92 461.68 277.4 461.68Z" id="b4iBDSccr"></path><path d="M287.4 471.68C287.54 471.68 287.66 471.79 287.66 471.93C287.66 472.54 287.66 474.13 287.66 474.75C287.66 474.89 287.54 475 287.4 475C285.92 475 281.73 475 280.25 475C280.11 475 280 474.89 280 474.75C280 474.13 280 472.54 280 471.93C280 471.79 280.11 471.68 280.25 471.68C281.73 471.68 285.92 471.68 287.4 471.68Z" id="fQqoajHl1"></path><path d="M282.4 466.68C282.54 466.68 282.66 466.79 282.66 466.93C282.66 467.54 282.66 469.13 282.66 469.75C282.66 469.89 282.54 470 282.4 470C280.92 470 276.73 470 275.25 470C275.11 470 275 469.89 275 469.75C275 469.13 275 467.54 275 466.93C275 466.79 275.11 466.68 275.25 466.68C276.73 466.68 280.92 466.68 282.4 466.68Z" id="b1aVWpDCs"></path><path d="M292.4 476.68C292.54 476.68 292.66 476.79 292.66 476.93C292.66 477.54 292.66 479.13 292.66 479.75C292.66 479.89 292.54 480 292.4 480C290.92 480 286.73 480 285.25 480C285.11 480 285 479.89 285 479.75C285 479.13 285 477.54 285 476.93C285 476.79 285.11 476.68 285.25 476.68C286.73 476.68 290.92 476.68 292.4 476.68Z" id="abPKz4ojT5"></path><path d="M297.4 481.68C297.54 481.68 297.66 481.79 297.66 481.93C297.66 482.54 297.66 484.13 297.66 484.75C297.66 484.89 297.54 485 297.4 485C295.92 485 291.73 485 290.25 485C290.11 485 290 484.89 290 484.75C290 484.13 290 482.54 290 481.93C290 481.79 290.11 481.68 290.25 481.68C291.73 481.68 295.92 481.68 297.4 481.68Z" id="f1i7amDVPe"></path><path d="M302.4 486.68C302.54 486.68 302.66 486.79 302.66 486.93C302.66 487.54 302.66 489.13 302.66 489.75C302.66 489.89 302.54 490 302.4 490C300.92 490 296.73 490 295.25 490C295.11 490 295 489.89 295 489.75C295 489.13 295 487.54 295 486.93C295 486.79 295.11 486.68 295.25 486.68C296.73 486.68 300.92 486.68 302.4 486.68Z" id="a3wg8gsFcm"></path><path d="M243.58 436.68C243.72 436.68 243.83 436.79 243.83 436.93C243.83 437.54 243.83 439.13 243.83 439.75C243.83 439.89 243.72 440 243.58 440C242.09 440 237.91 440 236.42 440C236.28 440 236.17 439.89 236.17 439.75C236.17 439.13 236.17 437.54 236.17 436.93C236.17 436.79 236.28 436.68 236.42 436.68C237.91 436.68 242.09 436.68 243.58 436.68Z" id="cIuw9e6nU"></path><path d="M248.58 441.68C248.72 441.68 248.83 441.79 248.83 441.93C248.83 442.54 248.83 444.13 248.83 444.75C248.83 444.89 248.72 445 248.58 445C247.09 445 242.91 445 241.42 445C241.28 445 241.17 444.89 241.17 444.75C241.17 444.13 241.17 442.54 241.17 441.93C241.17 441.79 241.28 441.68 241.42 441.68C242.91 441.68 247.09 441.68 248.58 441.68Z" id="aXUHHz5D9"></path><path d="M253.58 446.68C253.72 446.68 253.83 446.79 253.83 446.93C253.83 447.54 253.83 449.13 253.83 449.75C253.83 449.89 253.72 450 253.58 450C252.09 450 247.91 450 246.42 450C246.28 450 246.17 449.89 246.17 449.75C246.17 449.13 246.17 447.54 246.17 446.93C246.17 446.79 246.28 446.68 246.42 446.68C247.91 446.68 252.09 446.68 253.58 446.68Z" id="a24CSjNcQ"></path><path d="M258.58 451.68C258.72 451.68 258.83 451.79 258.83 451.93C258.83 452.54 258.83 454.13 258.83 454.75C258.83 454.89 258.72 455 258.58 455C257.09 455 252.91 455 251.42 455C251.28 455 251.17 454.89 251.17 454.75C251.17 454.13 251.17 452.54 251.17 451.93C251.17 451.79 251.28 451.68 251.42 451.68C252.91 451.68 257.09 451.68 258.58 451.68Z" id="fcE1Xas59"></path><path d="M263.58 456.68C263.72 456.68 263.83 456.79 263.83 456.93C263.83 457.54 263.83 459.13 263.83 459.75C263.83 459.89 263.72 460 263.58 460C262.09 460 257.91 460 256.42 460C256.28 460 256.17 459.89 256.17 459.75C256.17 459.13 256.17 457.54 256.17 456.93C256.17 456.79 256.28 456.68 256.42 456.68C257.91 456.68 262.09 456.68 263.58 456.68Z" id="ag4yuzc4"></path><path d="M268.58 461.68C268.72 461.68 268.83 461.79 268.83 461.93C268.83 462.54 268.83 464.13 268.83 464.75C268.83 464.89 268.72 465 268.58 465C267.09 465 262.91 465 261.42 465C261.28 465 261.17 464.89 261.17 464.75C261.17 464.13 261.17 462.54 261.17 461.93C261.17 461.79 261.28 461.68 261.42 461.68C262.91 461.68 267.09 461.68 268.58 461.68Z" id="a1b6EahMIg"></path><path d="M273.58 466.68C273.72 466.68 273.83 466.79 273.83 466.93C273.83 467.54 273.83 469.13 273.83 469.75C273.83 469.89 273.72 470 273.58 470C272.09 470 267.91 470 266.42 470C266.28 470 266.17 469.89 266.17 469.75C266.17 469.13 266.17 467.54 266.17 466.93C266.17 466.79 266.28 466.68 266.42 466.68C267.91 466.68 272.09 466.68 273.58 466.68Z" id="cNS2t0yV"></path><path d="M278.58 471.68C278.72 471.68 278.83 471.79 278.83 471.93C278.83 472.54 278.83 474.13 278.83 474.75C278.83 474.89 278.72 475 278.58 475C277.09 475 272.91 475 271.42 475C271.28 475 271.17 474.89 271.17 474.75C271.17 474.13 271.17 472.54 271.17 471.93C271.17 471.79 271.28 471.68 271.42 471.68C272.91 471.68 277.09 471.68 278.58 471.68Z" id="b1ASV40Db"></path><path d="M283.58 476.68C283.72 476.68 283.83 476.79 283.83 476.93C283.83 477.54 283.83 479.13 283.83 479.75C283.83 479.89 283.72 480 283.58 480C282.09 480 277.91 480 276.42 480C276.28 480 276.17 479.89 276.17 479.75C276.17 479.13 276.17 477.54 276.17 476.93C276.17 476.79 276.28 476.68 276.42 476.68C277.91 476.68 282.09 476.68 283.58 476.68Z" id="a6FBitQu5"></path><path d="M288.58 481.68C288.72 481.68 288.83 481.79 288.83 481.93C288.83 482.54 288.83 484.13 288.83 484.75C288.83 484.89 288.72 485 288.58 485C287.09 485 282.91 485 281.42 485C281.28 485 281.17 484.89 281.17 484.75C281.17 484.13 281.17 482.54 281.17 481.93C281.17 481.79 281.28 481.68 281.42 481.68C282.91 481.68 287.09 481.68 288.58 481.68Z" id="b35W4TF7Yn"></path><path d="M256.18 416.68C256.32 416.68 256.43 416.79 256.43 416.93C256.43 417.54 256.43 419.13 256.43 419.75C256.43 419.89 256.32 420 256.18 420C254.7 420 250.51 420 249.03 420C248.89 420 248.77 419.89 248.77 419.75C248.77 419.13 248.77 417.54 248.77 416.93C248.77 416.79 248.89 416.68 249.03 416.68C250.51 416.68 254.7 416.68 256.18 416.68Z" id="a3IbZrl2FR"></path><path d="M261.18 421.68C261.32 421.68 261.43 421.79 261.43 421.93C261.43 422.54 261.43 424.13 261.43 424.75C261.43 424.89 261.32 425 261.18 425C259.7 425 255.51 425 254.03 425C253.89 425 253.77 424.89 253.77 424.75C253.77 424.13 253.77 422.54 253.77 421.93C253.77 421.79 253.89 421.68 254.03 421.68C255.51 421.68 259.7 421.68 261.18 421.68Z" id="bnHDrcyBh"></path><path d="M266.18 426.68C266.32 426.68 266.43 426.79 266.43 426.93C266.43 427.54 266.43 429.13 266.43 429.75C266.43 429.89 266.32 430 266.18 430C264.7 430 260.51 430 259.03 430C258.89 430 258.77 429.89 258.77 429.75C258.77 429.13 258.77 427.54 258.77 426.93C258.77 426.79 258.89 426.68 259.03 426.68C260.51 426.68 264.7 426.68 266.18 426.68Z" id="a4cuwXkjy6"></path><path d="M271.18 435C271.32 435 271.43 434.89 271.43 434.75C271.43 434.13 271.43 432.54 271.43 431.93C271.43 431.79 271.32 431.68 271.18 431.68C269.7 431.68 265.51 431.68 264.03 431.68C263.89 431.68 263.77 431.79 263.77 431.93C263.77 432.54 263.77 434.13 263.77 434.75C263.77 434.89 263.89 435 264.03 435C265.51 435 269.7 435 271.18 435Z" id="afLOGaKHd"></path><path d="M276.18 440C276.32 440 276.43 439.89 276.43 439.75C276.43 439.13 276.43 437.54 276.43 436.93C276.43 436.79 276.32 436.68 276.18 436.68C274.7 436.68 270.51 436.68 269.03 436.68C268.89 436.68 268.77 436.79 268.77 436.93C268.77 437.54 268.77 439.13 268.77 439.75C268.77 439.89 268.89 440 269.03 440C270.51 440 274.7 440 276.18 440Z" id="a3MF1LTZ4R"></path><path d="M316.04 476.68C316.18 476.68 316.29 476.79 316.29 476.93C316.29 477.54 316.29 479.13 316.29 479.75C316.29 479.89 316.18 480 316.04 480C314.56 480 310.37 480 308.89 480C308.75 480 308.64 479.89 308.64 479.75C308.64 479.13 308.64 477.54 308.64 476.93C308.64 476.79 308.75 476.68 308.89 476.68C310.37 476.68 314.56 476.68 316.04 476.68Z" id="dJj9JAz5n"></path><path d="M321.04 481.68C321.18 481.68 321.29 481.79 321.29 481.93C321.29 482.54 321.29 484.13 321.29 484.75C321.29 484.89 321.18 485 321.04 485C319.56 485 315.37 485 313.89 485C313.75 485 313.64 484.89 313.64 484.75C313.64 484.13 313.64 482.54 313.64 481.93C313.64 481.79 313.75 481.68 313.89 481.68C315.37 481.68 319.56 481.68 321.04 481.68Z" id="gk29TJwyL"></path><path d="M326.04 486.68C326.18 486.68 326.29 486.79 326.29 486.93C326.29 487.54 326.29 489.13 326.29 489.75C326.29 489.89 326.18 490 326.04 490C324.56 490 320.37 490 318.89 490C318.75 490 318.64 489.89 318.64 489.75C318.64 489.13 318.64 487.54 318.64 486.93C318.64 486.79 318.75 486.68 318.89 486.68C320.37 486.68 324.56 486.68 326.04 486.68Z" id="b3JJkJVEAY"></path><path d="M334.58 481.68C334.81 481.68 335 481.86 335 482.1C335 482.68 335 484 335 484.58C335 484.81 334.81 485 334.58 485C332.13 485 325.21 485 322.76 485C322.53 485 322.34 484.81 322.34 484.58C322.34 484 322.34 482.68 322.34 482.1C322.34 481.86 322.53 481.68 322.76 481.68C325.21 481.68 332.13 481.68 334.58 481.68Z" id="bdKUisBDG"></path><path d="M249.75 416.68C249.89 416.68 250 416.79 250 416.93C250 417.54 250 419.13 250 419.75C250 419.89 249.89 420 249.75 420C248.27 420 244.08 420 242.6 420C242.46 420 242.34 419.89 242.34 419.75C242.34 419.13 242.34 417.54 242.34 416.93C242.34 416.79 242.46 416.68 242.6 416.68C244.08 416.68 248.27 416.68 249.75 416.68Z" id="b1KbxVCTNz"></path><path d="M251.13 426.68C251.27 426.68 251.39 426.79 251.39 426.93C251.39 427.54 251.39 429.13 251.39 429.75C251.39 429.89 251.27 430 251.13 430C249.65 430 245.46 430 243.98 430C243.84 430 243.73 429.89 243.73 429.75C243.73 429.13 243.73 427.54 243.73 426.93C243.73 426.79 243.84 426.68 243.98 426.68C245.46 426.68 249.65 426.68 251.13 426.68Z" id="eYbjrEWpr"></path><path d="M254.75 421.68C254.89 421.68 255 421.79 255 421.93C255 422.54 255 424.13 255 424.75C255 424.89 254.89 425 254.75 425C253.27 425 249.08 425 247.6 425C247.46 425 247.34 424.89 247.34 424.75C247.34 424.13 247.34 422.54 247.34 421.93C247.34 421.79 247.46 421.68 247.6 421.68C249.08 421.68 253.27 421.68 254.75 421.68Z" id="b56Mo8Yh"></path><path d="M259.75 426.68C259.89 426.68 260 426.79 260 426.93C260 427.54 260 429.13 260 429.75C260 429.89 259.89 430 259.75 430C258.27 430 254.08 430 252.6 430C252.46 430 252.34 429.89 252.34 429.75C252.34 429.13 252.34 427.54 252.34 426.93C252.34 426.79 252.46 426.68 252.6 426.68C254.08 426.68 258.27 426.68 259.75 426.68Z" id="h3qR64Afnh"></path><path d="M264.75 431.68C264.89 431.68 265 431.79 265 431.93C265 432.54 265 434.13 265 434.75C265 434.89 264.89 435 264.75 435C263.27 435 259.08 435 257.6 435C257.46 435 257.34 434.89 257.34 434.75C257.34 434.13 257.34 432.54 257.34 431.93C257.34 431.79 257.46 431.68 257.6 431.68C259.08 431.68 263.27 431.68 264.75 431.68Z" id="bnDmtkBHi"></path><path d="M269.75 436.68C269.89 436.68 270 436.79 270 436.93C270 437.54 270 439.13 270 439.75C270 439.89 269.89 440 269.75 440C268.27 440 264.08 440 262.6 440C262.46 440 262.34 439.89 262.34 439.75C262.34 439.13 262.34 437.54 262.34 436.93C262.34 436.79 262.46 436.68 262.6 436.68C264.08 436.68 268.27 436.68 269.75 436.68Z" id="a1dugixZ6S"></path><path d="M274.75 441.68C274.89 441.68 275 441.79 275 441.93C275 442.54 275 444.13 275 444.75C275 444.89 274.89 445 274.75 445C273.27 445 269.08 445 267.6 445C267.46 445 267.34 444.89 267.34 444.75C267.34 444.13 267.34 442.54 267.34 441.93C267.34 441.79 267.46 441.68 267.6 441.68C269.08 441.68 273.27 441.68 274.75 441.68Z" id="aD6V6nnoN"></path><path d="M279.75 446.68C279.89 446.68 280 446.79 280 446.93C280 447.54 280 449.13 280 449.75C280 449.89 279.89 450 279.75 450C278.27 450 274.08 450 272.6 450C272.46 450 272.34 449.89 272.34 449.75C272.34 449.13 272.34 447.54 272.34 446.93C272.34 446.79 272.46 446.68 272.6 446.68C274.08 446.68 278.27 446.68 279.75 446.68Z" id="a4WdvrqZVG"></path><path d="M284.75 451.68C284.89 451.68 285 451.79 285 451.93C285 452.54 285 454.13 285 454.75C285 454.89 284.89 455 284.75 455C283.27 455 279.08 455 277.6 455C277.46 455 277.34 454.89 277.34 454.75C277.34 454.13 277.34 452.54 277.34 451.93C277.34 451.79 277.46 451.68 277.6 451.68C279.08 451.68 283.27 451.68 284.75 451.68Z" id="acA88mrmt"></path><path d="M289.75 456.68C289.89 456.68 290 456.79 290 456.93C290 457.54 290 459.13 290 459.75C290 459.89 289.89 460 289.75 460C288.27 460 284.08 460 282.6 460C282.46 460 282.34 459.89 282.34 459.75C282.34 459.13 282.34 457.54 282.34 456.93C282.34 456.79 282.46 456.68 282.6 456.68C284.08 456.68 288.27 456.68 289.75 456.68Z" id="b2ohkym9J8"></path><path d="M294.75 461.68C294.89 461.68 295 461.79 295 461.93C295 462.54 295 464.13 295 464.75C295 464.89 294.89 465 294.75 465C293.27 465 289.08 465 287.6 465C287.46 465 287.34 464.89 287.34 464.75C287.34 464.13 287.34 462.54 287.34 461.93C287.34 461.79 287.46 461.68 287.6 461.68C289.08 461.68 293.27 461.68 294.75 461.68Z" id="btxSbhpi9"></path><path d="M299.75 466.68C299.89 466.68 300 466.79 300 466.93C300 467.54 300 469.13 300 469.75C300 469.89 299.89 470 299.75 470C298.27 470 294.08 470 292.6 470C292.46 470 292.34 469.89 292.34 469.75C292.34 469.13 292.34 467.54 292.34 466.93C292.34 466.79 292.46 466.68 292.6 466.68C294.08 466.68 298.27 466.68 299.75 466.68Z" id="e1GPiUafdC"></path><path d="M304.75 471.68C304.89 471.68 305 471.79 305 471.93C305 472.54 305 474.13 305 474.75C305 474.89 304.89 475 304.75 475C303.27 475 299.08 475 297.6 475C297.46 475 297.34 474.89 297.34 474.75C297.34 474.13 297.34 472.54 297.34 471.93C297.34 471.79 297.46 471.68 297.6 471.68C299.08 471.68 303.27 471.68 304.75 471.68Z" id="b1r9Go18Id"></path><path d="M309.75 476.68C309.89 476.68 310 476.79 310 476.93C310 477.54 310 479.13 310 479.75C310 479.89 309.89 480 309.75 480C308.27 480 304.08 480 302.6 480C302.46 480 302.34 479.89 302.34 479.75C302.34 479.13 302.34 477.54 302.34 476.93C302.34 476.79 302.46 476.68 302.6 476.68C304.08 476.68 308.27 476.68 309.75 476.68Z" id="b4A8ZMxwM7"></path><path d="M314.75 481.68C314.89 481.68 315 481.79 315 481.93C315 482.54 315 484.13 315 484.75C315 484.89 314.89 485 314.75 485C313.27 485 309.08 485 307.6 485C307.46 485 307.34 484.89 307.34 484.75C307.34 484.13 307.34 482.54 307.34 481.93C307.34 481.79 307.46 481.68 307.6 481.68C309.08 481.68 313.27 481.68 314.75 481.68Z" id="byhDRMbVP"></path><path d="M241.13 416.68C241.27 416.68 241.39 416.79 241.39 416.93C241.39 417.54 241.39 419.13 241.39 419.75C241.39 419.89 241.27 420 241.13 420C239.65 420 235.46 420 233.98 420C233.84 420 233.73 419.89 233.73 419.75C233.73 419.13 233.73 417.54 233.73 416.93C233.73 416.79 233.84 416.68 233.98 416.68C235.46 416.68 239.65 416.68 241.13 416.68Z" id="a1wIx9sDsQ"></path><path d="M246.13 421.68C246.27 421.68 246.39 421.79 246.39 421.93C246.39 422.54 246.39 424.13 246.39 424.75C246.39 424.89 246.27 425 246.13 425C244.65 425 240.46 425 238.98 425C238.84 425 238.73 424.89 238.73 424.75C238.73 424.13 238.73 422.54 238.73 421.93C238.73 421.79 238.84 421.68 238.98 421.68C240.46 421.68 244.65 421.68 246.13 421.68Z" id="a11XN4WLTq"></path><path d="M245.91 411.68C246.14 411.68 246.33 411.86 246.33 412.1C246.33 412.68 246.33 414 246.33 414.58C246.33 414.81 246.14 415 245.91 415C243.46 415 236.54 415 234.09 415C233.86 415 233.67 414.81 233.67 414.58C233.67 414 233.67 412.68 233.67 412.1C233.67 411.86 233.86 411.68 234.09 411.68C236.54 411.68 243.46 411.68 245.91 411.68Z" id="cy8BC15kf"></path><path d="M263.54 411.68C263.77 411.68 263.96 411.86 263.96 412.1C263.96 412.68 263.96 414 263.96 414.58C263.96 414.81 263.77 415 263.54 415C261.09 415 254.17 415 251.72 415C251.49 415 251.3 414.81 251.3 414.58C251.3 414 251.3 412.68 251.3 412.1C251.3 411.86 251.49 411.68 251.72 411.68C254.17 411.68 261.09 411.68 263.54 411.68Z" id="cpBt4p19n"></path><path d="M296.57 383.56C296.57 388.22 294.33 392 291.57 392C288.81 392 286.57 388.22 286.57 383.56C286.57 378.89 288.81 375.11 291.57 368C294.33 375.11 296.57 378.89 296.57 383.56Z" id="b9L9sgnnU"></path><path d="M363.22 388.56C363.22 393.22 360.98 397 358.22 397C355.45 397 353.22 393.22 353.22 388.56C353.22 383.89 355.45 380.11 358.22 373C360.98 380.11 363.22 383.89 363.22 388.56Z" id="aduv60XHa"></path><path d="M310 326.56C310 331.22 307.76 335 305 335C302.24 335 300 331.22 300 326.56C300 321.89 302.24 318.11 305 311C307.76 318.11 310 321.89 310 326.56Z" id="b1rfp4cRGS"></path><path d="M387.37 353.56C387.37 358.22 385.13 362 382.37 362C379.61 362 377.37 358.22 377.37 353.56C377.37 348.89 379.61 345.11 382.37 338C385.13 345.11 387.37 348.89 387.37 353.56Z" id="bVWu3Pf1I"></path><path d="M336.59 147.59C336.59 151.79 332.87 155.19 328.29 155.19C323.72 155.19 320 151.79 320 147.59C320 143.4 323.72 140 328.29 140C332.87 140 336.59 143.4 336.59 147.59Z" id="a16YVUYfz9"></path><path d="M455.3 534.67C464.08 534.67 471.2 541.79 471.2 550.58C471.2 553.76 471.2 547.4 471.2 550.58C471.2 559.36 464.08 566.49 455.3 566.49C399.02 566.49 246.12 566.49 189.85 566.49C181.06 566.49 173.94 559.36 173.94 550.58C173.94 547.4 173.94 553.76 173.94 550.58C173.94 541.79 181.06 534.67 189.85 534.67C246.12 534.67 399.02 534.67 455.3 534.67Z" id="czW2z4H8h"></path></defs><g><g><g><use xlink:href="#a42VR7QDZ8" opacity="1" fill="#ffffff" fill-opacity="1"></use><g><use xlink:href="#a42VR7QDZ8" opacity="1" fill-opacity="0" stroke="#439bf3" stroke-width="5" stroke-opacity="1"></use></g></g><g><use xlink:href="#aEB2mQGF" opacity="1" fill="#f9f9f9" fill-opacity="1"></use><g><use xlink:href="#aEB2mQGF" opacity="1" fill-opacity="0" stroke="#439bf3" stroke-width="3" stroke-opacity="1"></use></g></g><g><use xlink:href="#aAjqAbkYd" opacity="1" fill="#ffffff" fill-opacity="1"></use><g><use xlink:href="#aAjqAbkYd" opacity="1" fill-opacity="0" stroke="#439bf3" stroke-width="5" stroke-opacity="1"></use></g></g><g><use xlink:href="#b1jDYEHsdi" opacity="1" fill="#439bf3" fill-opacity="1"></use><g><use xlink:href="#b1jDYEHsdi" opacity="1" fill-opacity="0" stroke="#f88989" stroke-width="0" stroke-opacity="1"></use></g></g><g><use xlink:href="#aAslGIent" opacity="1" fill="#ffffff" fill-opacity="1"></use><g><use xlink:href="#aAslGIent" opacity="1" fill-opacity="0" stroke="#439bf3" stroke-width="5" stroke-opacity="1"></use></g></g><g><use xlink:href="#a2nICbRYgJ" opacity="1" fill="#439bf3" fill-opacity="1"></use><g><use xlink:href="#a2nICbRYgJ" opacity="1" fill-opacity="0" stroke="#439bf3" stroke-width="1" stroke-opacity="1"></use></g></g><g><use xlink:href="#c3hZXdHyh" opacity="1" fill="#ffffff" fill-opacity="1"></use><g><use xlink:href="#c3hZXdHyh" opacity="1" fill-opacity="0" stroke="#439bf3" stroke-width="3" stroke-opacity="1"></use></g></g><g><use xlink:href="#e13vJUhH4D" opacity="1" fill="#ffffff" fill-opacity="1"></use><g><use xlink:href="#e13vJUhH4D" opacity="1" fill-opacity="0" stroke="#439bf3" stroke-width="5" stroke-opacity="1"></use></g></g><g><use xlink:href="#f3I0eP1Zgi" opacity="1" fill="#439bf3" fill-opacity="1"></use></g><g><use xlink:href="#fKtHgVaPa" opacity="1" fill="#439bf3" fill-opacity="1"></use></g><g><use xlink:href="#e9LkjBfaR" opacity="1" fill="#439bf3" fill-opacity="1"></use></g><g><use xlink:href="#d2MscpkrHv" opacity="1" fill="#439bf3" fill-opacity="1"></use></g><g><use xlink:href="#d3il8N2BjC" opacity="1" fill="#439bf3" fill-opacity="1"></use></g><g><use xlink:href="#c3nGrNeSlq" opacity="1" fill="#439bf3" fill-opacity="1"></use></g><g><use xlink:href="#a1YAJWkRl" opacity="1" fill="#439bf3" fill-opacity="1"></use></g><g><use xlink:href="#bVPl5VkHB" opacity="1" fill="#439bf3" fill-opacity="1"></use></g><g><use xlink:href="#btL9wQcB" opacity="1" fill="#439bf3" fill-opacity="1"></use></g><g><use xlink:href="#b4Tqa1deqX" opacity="1" fill="#439bf3" fill-opacity="1"></use></g><g><use xlink:href="#bo0qJEBvF" opacity="1" fill="#439bf3" fill-opacity="1"></use></g><g><use xlink:href="#aLtpIoyPb" opacity="1" fill="#439bf3" fill-opacity="1"></use></g><g><use xlink:href="#i4UV7f79H" opacity="1" fill="#439bf3" fill-opacity="1"></use></g><g><use xlink:href="#a5LSYgJudz" opacity="1" fill="#439bf3" fill-opacity="1"></use></g><g><use xlink:href="#a1Ilh6NaFN" opacity="1" fill="#439bf3" fill-opacity="1"></use></g><g><use xlink:href="#hRGmd6jQc" opacity="1" fill="#439bf3" fill-opacity="1"></use></g><g><use xlink:href="#f1FJS0qea0" opacity="1" fill="#439bf3" fill-opacity="1"></use></g><g><use xlink:href="#b1nwBmhLRA" opacity="1" fill="#439bf3" fill-opacity="1"></use></g><g><use xlink:href="#arAO784Fx" opacity="1" fill="#439bf3" fill-opacity="1"></use></g><g><use xlink:href="#b1rHRWPy9k" opacity="1" fill="#439bf3" fill-opacity="1"></use></g><g><use xlink:href="#d1HxlHwO0c" opacity="1" fill="#439bf3" fill-opacity="1"></use></g><g><use xlink:href="#did5qAssN" opacity="1" fill="#439bf3" fill-opacity="1"></use></g><g><use xlink:href="#a1SVWu5pAy" opacity="1" fill="#439bf3" fill-opacity="1"></use></g><g><use xlink:href="#b29I06K8yA" opacity="1" fill="#439bf3" fill-opacity="1"></use></g><g><use xlink:href="#e1qL4ZYTlg" opacity="1" fill="#439bf3" fill-opacity="1"></use></g><g><use xlink:href="#b19NwQATFM" opacity="1" fill="#439bf3" fill-opacity="1"></use></g><g><use xlink:href="#c2aLcjQSVh" opacity="1" fill="#439bf3" fill-opacity="1"></use></g><g><use xlink:href="#aINHNvlJ2" opacity="1" fill="#439bf3" fill-opacity="1"></use></g><g><use xlink:href="#a1o34pc3hj" opacity="1" fill="#439bf3" fill-opacity="1"></use></g><g><use xlink:href="#ci4J6pug3" opacity="1" fill="#439bf3" fill-opacity="1"></use></g><g><use xlink:href="#bhPmJSTS5" opacity="1" fill="#439bf3" fill-opacity="1"></use></g><g><use xlink:href="#abBBxcJsr" opacity="1" fill="#439bf3" fill-opacity="1"></use></g><g><use xlink:href="#b6FWeP95Ua" opacity="1" fill="#439bf3" fill-opacity="1"></use></g><g><use xlink:href="#b1QkuHdysF" opacity="1" fill="#439bf3" fill-opacity="1"></use></g><g><use xlink:href="#jcRtCXcN" opacity="1" fill="#439bf3" fill-opacity="1"></use></g><g><use xlink:href="#agangOVwc" opacity="1" fill="#439bf3" fill-opacity="1"></use></g><g><use xlink:href="#aSbe8vX1w" opacity="1" fill="#439bf3" fill-opacity="1"></use></g><g><use xlink:href="#h15T9L85H" opacity="1" fill="#439bf3" fill-opacity="1"></use></g><g><use xlink:href="#kH8p21Qzs" opacity="1" fill="#439bf3" fill-opacity="1"></use></g><g><use xlink:href="#a2c1noq9EA" opacity="1" fill="#439bf3" fill-opacity="1"></use></g><g><use xlink:href="#ame731DM3" opacity="1" fill="#439bf3" fill-opacity="1"></use></g><g><use xlink:href="#a1xKJW5EFt" opacity="1" fill="#439bf3" fill-opacity="1"></use></g><g><use xlink:href="#d1ia1EDPJ5" opacity="1" fill="#439bf3" fill-opacity="1"></use></g><g><use xlink:href="#a1v9SH7U0e" opacity="1" fill="#439bf3" fill-opacity="1"></use></g><g><use xlink:href="#d1FRuxvzyh" opacity="1" fill="#439bf3" fill-opacity="1"></use></g><g><use xlink:href="#f1hfVtDs2N" opacity="1" fill="#439bf3" fill-opacity="1"></use></g><g><use xlink:href="#a5788Cur5t" opacity="1" fill="#439bf3" fill-opacity="1"></use></g><g><use xlink:href="#a2aPCIExoj" opacity="1" fill="#439bf3" fill-opacity="1"></use></g><g><use xlink:href="#e80qLcF8ON" opacity="1" fill="#439bf3" fill-opacity="1"></use></g><g><use xlink:href="#g5qtlGOGYJ" opacity="1" fill="#439bf3" fill-opacity="1"></use></g><g><use xlink:href="#b1hMWA5r1h" opacity="1" fill="#439bf3" fill-opacity="1"></use></g><g><use xlink:href="#c6oVsV0AP9" opacity="1" fill="#439bf3" fill-opacity="1"></use></g><g><use xlink:href="#d6iipXlo" opacity="1" fill="#439bf3" fill-opacity="1"></use></g><g><use xlink:href="#czwreF1Eb" opacity="1" fill="#439bf3" fill-opacity="1"></use></g><g><use xlink:href="#bmuhBeEmJ" opacity="1" fill="#439bf3" fill-opacity="1"></use></g><g><use xlink:href="#d20FnFWxHk" opacity="1" fill="#439bf3" fill-opacity="1"></use></g><g><use xlink:href="#a1RbE2rC9T" opacity="1" fill="#439bf3" fill-opacity="1"></use></g><g><use xlink:href="#d1Fw7EQzBO" opacity="1" fill="#439bf3" fill-opacity="1"></use></g><g><use xlink:href="#i9jni02c9" opacity="1" fill="#439bf3" fill-opacity="1"></use></g><g><use xlink:href="#d1eGxSPbCd" opacity="1" fill="#439bf3" fill-opacity="1"></use></g><g><use xlink:href="#ci50VboNa" opacity="1" fill="#439bf3" fill-opacity="1"></use></g><g><use xlink:href="#c1LOw1c7z3" opacity="1" fill="#439bf3" fill-opacity="1"></use></g><g><use xlink:href="#cBTbJnGdZ" opacity="1" fill="#439bf3" fill-opacity="1"></use></g><g><use xlink:href="#b7o9Vl4xV" opacity="1" fill="#439bf3" fill-opacity="1"></use></g><g><use xlink:href="#boEKCUftN" opacity="1" fill="#439bf3" fill-opacity="1"></use></g><g><use xlink:href="#a4jln6Are" opacity="1" fill="#439bf3" fill-opacity="1"></use></g><g><use xlink:href="#h1QyQRZmSc" opacity="1" fill="#439bf3" fill-opacity="1"></use></g><g><use xlink:href="#b1MAET4sSY" opacity="1" fill="#439bf3" fill-opacity="1"></use></g><g><use xlink:href="#avGVs3HGN" opacity="1" fill="#439bf3" fill-opacity="1"></use></g><g><use xlink:href="#c271P4rdBC" opacity="1" fill="#439bf3" fill-opacity="1"></use></g><g><use xlink:href="#b8NiU5lDn" opacity="1" fill="#439bf3" fill-opacity="1"></use></g><g><use xlink:href="#bhRTbTajx" opacity="1" fill="#439bf3" fill-opacity="1"></use></g><g><use xlink:href="#c5N4ljukQ" opacity="1" fill="#439bf3" fill-opacity="1"></use></g><g><use xlink:href="#b1oE0jfbYJ" opacity="1" fill="#439bf3" fill-opacity="1"></use></g><g><use xlink:href="#a1j6iZrfum" opacity="1" fill="#439bf3" fill-opacity="1"></use></g><g><use xlink:href="#f9fEfdzMY" opacity="1" fill="#439bf3" fill-opacity="1"></use></g><g><use xlink:href="#b3Gl7129B" opacity="1" fill="#439bf3" fill-opacity="1"></use></g><g><use xlink:href="#g2DSZJRZuE" opacity="1" fill="#439bf3" fill-opacity="1"></use></g><g><use xlink:href="#gqjjJDSsN" opacity="1" fill="#439bf3" fill-opacity="1"></use></g><g><use xlink:href="#b1XLMAvFZl" opacity="1" fill="#439bf3" fill-opacity="1"></use></g><g><use xlink:href="#c2U9yW2rsq" opacity="1" fill="#439bf3" fill-opacity="1"></use></g><g><use xlink:href="#e2qiZ41TYN" opacity="1" fill="#439bf3" fill-opacity="1"></use></g><g><use xlink:href="#c9JJcacVbx" opacity="1" fill="#439bf3" fill-opacity="1"></use></g><g><use xlink:href="#aF5lw2uL5" opacity="1" fill="#439bf3" fill-opacity="1"></use></g><g><use xlink:href="#a3OjHGZeU" opacity="1" fill="#439bf3" fill-opacity="1"></use></g><g><use xlink:href="#j5lzE26pv5" opacity="1" fill="#439bf3" fill-opacity="1"></use></g><g><use xlink:href="#e2u4MWWtVa" opacity="1" fill="#439bf3" fill-opacity="1"></use></g><g><use xlink:href="#hD67zABxs" opacity="1" fill="#439bf3" fill-opacity="1"></use></g><g><use xlink:href="#b70xcpbjPs" opacity="1" fill="#439bf3" fill-opacity="1"></use></g><g><use xlink:href="#a1kWQU41YB" opacity="1" fill="#439bf3" fill-opacity="1"></use></g><g><use xlink:href="#abSMmEiqT" opacity="1" fill="#439bf3" fill-opacity="1"></use></g><g><use xlink:href="#ajb8aI3bs" opacity="1" fill="#439bf3" fill-opacity="1"></use></g><g><use xlink:href="#bbkJXMkew" opacity="1" fill="#439bf3" fill-opacity="1"></use></g><g><use xlink:href="#c4js8VcIt4" opacity="1" fill="#439bf3" fill-opacity="1"></use></g><g><use xlink:href="#d1kOPbFonK" opacity="1" fill="#439bf3" fill-opacity="1"></use></g><g><use xlink:href="#b2cs9zj8Dr" opacity="1" fill="#439bf3" fill-opacity="1"></use></g><g><use xlink:href="#bmW76agzg" opacity="1" fill="#439bf3" fill-opacity="1"></use></g><g><use xlink:href="#aTzvMXxkY" opacity="1" fill="#439bf3" fill-opacity="1"></use></g><g><use xlink:href="#f1i38poFtP" opacity="1" fill="#439bf3" fill-opacity="1"></use></g><g><use xlink:href="#fIgtw9z0B" opacity="1" fill="#439bf3" fill-opacity="1"></use></g><g><use xlink:href="#jLfQZIr5" opacity="1" fill="#439bf3" fill-opacity="1"></use></g><g><use xlink:href="#d1s0m9UNzw" opacity="1" fill="#439bf3" fill-opacity="1"></use></g><g><use xlink:href="#a98rILKBoF" opacity="1" fill="#439bf3" fill-opacity="1"></use></g><g><use xlink:href="#bmEHvE08b" opacity="1" fill="#439bf3" fill-opacity="1"></use></g><g><use xlink:href="#b2voN4aeTF" opacity="1" fill="#439bf3" fill-opacity="1"></use></g><g><use xlink:href="#h1yZlxEyI2" opacity="1" fill="#439bf3" fill-opacity="1"></use></g><g><use xlink:href="#aFJtHxfGl" opacity="1" fill="#439bf3" fill-opacity="1"></use></g><g><use xlink:href="#a13N6tbZyp" opacity="1" fill="#439bf3" fill-opacity="1"></use></g><g><use xlink:href="#a4Wysrjus" opacity="1" fill="#439bf3" fill-opacity="1"></use></g><g><use xlink:href="#anaXbEhzA" opacity="1" fill="#439bf3" fill-opacity="1"></use></g><g><use xlink:href="#a9L5ofeBT" opacity="1" fill="#439bf3" fill-opacity="1"></use></g><g><use xlink:href="#f1ijE1PKa9" opacity="1" fill="#439bf3" fill-opacity="1"></use></g><g><use xlink:href="#a4gysh0k6m" opacity="1" fill="#439bf3" fill-opacity="1"></use></g><g><use xlink:href="#cJdVUkdk" opacity="1" fill="#439bf3" fill-opacity="1"></use></g><g><use xlink:href="#a33yJhUDE" opacity="1" fill="#439bf3" fill-opacity="1"></use></g><g><use xlink:href="#b9rz8vXOp7" opacity="1" fill="#439bf3" fill-opacity="1"></use></g><g><use xlink:href="#a1L7yg2O1y" opacity="1" fill="#439bf3" fill-opacity="1"></use></g><g><use xlink:href="#blXVN6nqj" opacity="1" fill="#439bf3" fill-opacity="1"></use></g><g><use xlink:href="#b2Se6ZiMV" opacity="1" fill="#439bf3" fill-opacity="1"></use></g><g><use xlink:href="#b1mcmvdNwP" opacity="1" fill="#439bf3" fill-opacity="1"></use></g><g><use xlink:href="#aTJVR6mGH" opacity="1" fill="#439bf3" fill-opacity="1"></use></g><g><use xlink:href="#bu7ud6YBQ" opacity="1" fill="#439bf3" fill-opacity="1"></use></g><g><use xlink:href="#aVTAWPwHD" opacity="1" fill="#439bf3" fill-opacity="1"></use></g><g><use xlink:href="#b28E4xj0JE" opacity="1" fill="#439bf3" fill-opacity="1"></use></g><g><use xlink:href="#dbjSqk7KR" opacity="1" fill="#f9f9f9" fill-opacity="1"></use><g><use xlink:href="#dbjSqk7KR" opacity="1" fill-opacity="0" stroke="#439bf3" stroke-width="3" stroke-opacity="1"></use></g></g><g><use xlink:href="#fgf0WtF6w" opacity="1" fill="#439bf3" fill-opacity="1"></use><g><use xlink:href="#fgf0WtF6w" opacity="1" fill-opacity="0" stroke="#439bf3" stroke-width="1" stroke-opacity="1"></use></g></g><g><use xlink:href="#g2hiLUu5Yl" opacity="1" fill="#439bf3" fill-opacity="1"></use><g><use xlink:href="#g2hiLUu5Yl" opacity="1" fill-opacity="0" stroke="#439bf3" stroke-width="1" stroke-opacity="1"></use></g></g><g><use xlink:href="#b1TIPccWJ9" opacity="1" fill="#439bf3" fill-opacity="1"></use></g><g><use xlink:href="#cfArketCN" opacity="1" fill="#439bf3" fill-opacity="1"></use></g><g><use xlink:href="#b3FSv3Yowj" opacity="1" fill="#439bf3" fill-opacity="1"></use></g><g><use xlink:href="#iQoDuqJ4N" opacity="1" fill="#439bf3" fill-opacity="1"></use></g><g><use xlink:href="#aDoUtaHBn" opacity="1" fill="#439bf3" fill-opacity="1"></use></g><g><use xlink:href="#bju8NlD8F" opacity="1" fill="#439bf3" fill-opacity="1"></use></g><g><use xlink:href="#j2gVjJE88" opacity="1" fill="#439bf3" fill-opacity="1"></use></g><g><use xlink:href="#blkv79Crq" opacity="1" fill="#439bf3" fill-opacity="1"></use></g><g><use xlink:href="#feBSI65rQ" opacity="1" fill="#439bf3" fill-opacity="1"></use></g><g><use xlink:href="#bBlcfwLH5" opacity="1" fill="#439bf3" fill-opacity="1"></use></g><g><use xlink:href="#f4b3Dwy3JQ" opacity="1" fill="#439bf3" fill-opacity="1"></use></g><g><use xlink:href="#fu3nyPVZW" opacity="1" fill="#439bf3" fill-opacity="1"></use></g><g><use xlink:href="#a2hU8V1gHr" opacity="1" fill="#439bf3" fill-opacity="1"></use></g><g><use xlink:href="#i4wxWVfYYZ" opacity="1" fill="#439bf3" fill-opacity="1"></use></g><g><use xlink:href="#eVG3nLAE" opacity="1" fill="#439bf3" fill-opacity="1"></use></g><g><use xlink:href="#b1MA3BJ65C" opacity="1" fill="#439bf3" fill-opacity="1"></use></g><g><use xlink:href="#b1cpYrTA5Y" opacity="1" fill="#439bf3" fill-opacity="1"></use></g><g><use xlink:href="#f17rPHn1jD" opacity="1" fill="#439bf3" fill-opacity="1"></use></g><g><use xlink:href="#a1z8HfK1Gt" opacity="1" fill="#439bf3" fill-opacity="1"></use></g><g><use xlink:href="#a2y3EnK7Ks" opacity="1" fill="#439bf3" fill-opacity="1"></use></g><g><use xlink:href="#i7u6tqb5l6" opacity="1" fill="#439bf3" fill-opacity="1"></use></g><g><use xlink:href="#a1ZWPQsQ6f" opacity="1" fill="#439bf3" fill-opacity="1"></use></g><g><use xlink:href="#c1uVONsKKJ" opacity="1" fill="#439bf3" fill-opacity="1"></use></g><g><use xlink:href="#bwwXhmovF" opacity="1" fill="#439bf3" fill-opacity="1"></use></g><g><use xlink:href="#b4iBDSccr" opacity="1" fill="#439bf3" fill-opacity="1"></use></g><g><use xlink:href="#fQqoajHl1" opacity="1" fill="#439bf3" fill-opacity="1"></use></g><g><use xlink:href="#b1aVWpDCs" opacity="1" fill="#439bf3" fill-opacity="1"></use></g><g><use xlink:href="#abPKz4ojT5" opacity="1" fill="#439bf3" fill-opacity="1"></use></g><g><use xlink:href="#f1i7amDVPe" opacity="1" fill="#439bf3" fill-opacity="1"></use></g><g><use xlink:href="#a3wg8gsFcm" opacity="1" fill="#439bf3" fill-opacity="1"></use></g><g><use xlink:href="#cIuw9e6nU" opacity="1" fill="#439bf3" fill-opacity="1"></use></g><g><use xlink:href="#aXUHHz5D9" opacity="1" fill="#439bf3" fill-opacity="1"></use></g><g><use xlink:href="#a24CSjNcQ" opacity="1" fill="#439bf3" fill-opacity="1"></use></g><g><use xlink:href="#fcE1Xas59" opacity="1" fill="#439bf3" fill-opacity="1"></use></g><g><use xlink:href="#ag4yuzc4" opacity="1" fill="#439bf3" fill-opacity="1"></use></g><g><use xlink:href="#a1b6EahMIg" opacity="1" fill="#439bf3" fill-opacity="1"></use></g><g><use xlink:href="#cNS2t0yV" opacity="1" fill="#439bf3" fill-opacity="1"></use></g><g><use xlink:href="#b1ASV40Db" opacity="1" fill="#439bf3" fill-opacity="1"></use></g><g><use xlink:href="#a6FBitQu5" opacity="1" fill="#439bf3" fill-opacity="1"></use></g><g><use xlink:href="#b35W4TF7Yn" opacity="1" fill="#439bf3" fill-opacity="1"></use></g><g><use xlink:href="#a3IbZrl2FR" opacity="1" fill="#439bf3" fill-opacity="1"></use></g><g><use xlink:href="#bnHDrcyBh" opacity="1" fill="#439bf3" fill-opacity="1"></use></g><g><use xlink:href="#a4cuwXkjy6" opacity="1" fill="#439bf3" fill-opacity="1"></use></g><g><use xlink:href="#afLOGaKHd" opacity="1" fill="#439bf3" fill-opacity="1"></use></g><g><use xlink:href="#a3MF1LTZ4R" opacity="1" fill="#439bf3" fill-opacity="1"></use></g><g><use xlink:href="#dJj9JAz5n" opacity="1" fill="#439bf3" fill-opacity="1"></use></g><g><use xlink:href="#gk29TJwyL" opacity="1" fill="#439bf3" fill-opacity="1"></use></g><g><use xlink:href="#b3JJkJVEAY" opacity="1" fill="#439bf3" fill-opacity="1"></use></g><g><use xlink:href="#bdKUisBDG" opacity="1" fill="#439bf3" fill-opacity="1"></use></g><g><use xlink:href="#b1KbxVCTNz" opacity="1" fill="#439bf3" fill-opacity="1"></use></g><g><use xlink:href="#eYbjrEWpr" opacity="1" fill="#439bf3" fill-opacity="1"></use></g><g><use xlink:href="#b56Mo8Yh" opacity="1" fill="#439bf3" fill-opacity="1"></use></g><g><use xlink:href="#h3qR64Afnh" opacity="1" fill="#439bf3" fill-opacity="1"></use></g><g><use xlink:href="#bnDmtkBHi" opacity="1" fill="#439bf3" fill-opacity="1"></use></g><g><use xlink:href="#a1dugixZ6S" opacity="1" fill="#439bf3" fill-opacity="1"></use></g><g><use xlink:href="#aD6V6nnoN" opacity="1" fill="#439bf3" fill-opacity="1"></use></g><g><use xlink:href="#a4WdvrqZVG" opacity="1" fill="#439bf3" fill-opacity="1"></use></g><g><use xlink:href="#acA88mrmt" opacity="1" fill="#439bf3" fill-opacity="1"></use></g><g><use xlink:href="#b2ohkym9J8" opacity="1" fill="#439bf3" fill-opacity="1"></use></g><g><use xlink:href="#btxSbhpi9" opacity="1" fill="#439bf3" fill-opacity="1"></use></g><g><use xlink:href="#e1GPiUafdC" opacity="1" fill="#439bf3" fill-opacity="1"></use></g><g><use xlink:href="#b1r9Go18Id" opacity="1" fill="#439bf3" fill-opacity="1"></use></g><g><use xlink:href="#b4A8ZMxwM7" opacity="1" fill="#439bf3" fill-opacity="1"></use></g><g><use xlink:href="#byhDRMbVP" opacity="1" fill="#439bf3" fill-opacity="1"></use></g><g><use xlink:href="#a1wIx9sDsQ" opacity="1" fill="#439bf3" fill-opacity="1"></use></g><g><use xlink:href="#a11XN4WLTq" opacity="1" fill="#439bf3" fill-opacity="1"></use></g><g><use xlink:href="#cy8BC15kf" opacity="1" fill="#439bf3" fill-opacity="1"></use></g><g><use xlink:href="#cpBt4p19n" opacity="1" fill="#439bf3" fill-opacity="1"></use></g><g><use xlink:href="#b9L9sgnnU" opacity="1" fill="#ffffff" fill-opacity="1"></use><g><use xlink:href="#b9L9sgnnU" opacity="1" fill-opacity="0" stroke="#439bf3" stroke-width="5" stroke-opacity="1"></use></g></g><g><use xlink:href="#aduv60XHa" opacity="1" fill="#ffffff" fill-opacity="1"></use><g><use xlink:href="#aduv60XHa" opacity="1" fill-opacity="0" stroke="#439bf3" stroke-width="5" stroke-opacity="1"></use></g></g><g><use xlink:href="#b1rfp4cRGS" opacity="1" fill="#ffffff" fill-opacity="1"></use><g><use xlink:href="#b1rfp4cRGS" opacity="1" fill-opacity="0" stroke="#439bf3" stroke-width="5" stroke-opacity="1"></use></g></g><g><use xlink:href="#bVWu3Pf1I" opacity="1" fill="#ffffff" fill-opacity="1"></use><g><use xlink:href="#bVWu3Pf1I" opacity="1" fill-opacity="0" stroke="#439bf3" stroke-width="5" stroke-opacity="1"></use></g></g><g><use xlink:href="#a16YVUYfz9" opacity="1" fill="#439bf3" fill-opacity="1"></use><g><use xlink:href="#a16YVUYfz9" opacity="1" fill-opacity="0" stroke="#439bf3" stroke-width="1" stroke-opacity="1"></use></g></g><g><use xlink:href="#czW2z4H8h" opacity="1" fill="#439bf3" fill-opacity="1"></use></g></g></g></svg>