<?xml version="1.0" encoding="UTF-8" standalone="no"?>
<!DOCTYPE svg PUBLIC "-//W3C//DTD SVG 1.1//EN" "http://www.w3.org/Graphics/SVG/1.1/DTD/svg11.dtd">
<svg version="1.1" xmlns="http://www.w3.org/2000/svg" xmlns:xlink="http://www.w3.org/1999/xlink" preserveAspectRatio="xMidYMid meet" viewBox="0 0 640 640" width="640" height="640"><defs><path d="M334.17 527L333.54 526.99L332.9 526.95L332.28 526.88L331.66 526.78L331.04 526.65L330.43 526.49L329.83 526.3L329.23 526.08L328.65 525.83L328.07 525.56L327.5 525.27L326.94 524.94L326.39 524.59L325.86 524.22L325.33 523.82L324.82 523.4L324.32 522.96L323.83 522.49L323.36 522L322.9 521.5L322.45 520.97L322.02 520.42L321.61 519.85L321.22 519.26L320.84 518.65L320.48 518.03L320.14 517.39L319.81 516.73L319.51 516.05L319.23 515.36L318.96 514.66L318.72 513.94L318.5 513.2L318.31 512.46L318.13 511.7L317.98 510.93L317.86 510.14L317.75 509.35L317.68 508.55L317.63 507.76L317.61 506.97L317.61 506.18L317.63 505.39L317.68 504.6L317.76 503.82L317.85 503.03L317.97 502.24L318.11 501.44L318.27 500.65L318.45 499.85L318.65 499.04L318.87 498.22L319.11 497.4L319.37 496.57L319.64 495.74L319.93 494.89L320.24 494.03L320.56 493.16L320.9 492.28L321.25 491.38L321.61 490.47L321.99 489.55L322.38 488.61L322.79 487.65L323.2 486.68L323.62 485.69L324.06 484.68L324.5 483.64L324.96 482.59L325.42 481.52L325.89 480.42L326.37 479.3L326.85 478.16L327.34 476.99L327.83 475.8L328.33 474.58L328.83 473.33L329.34 472.05L330.12 473.19L330.88 474.29L331.64 475.38L332.38 476.43L333.12 477.46L333.84 478.47L334.55 479.46L335.25 480.42L335.94 481.37L336.61 482.3L337.27 483.2L337.92 484.09L338.55 484.97L339.17 485.83L339.77 486.67L340.36 487.5L340.93 488.32L341.49 489.13L342.03 489.92L342.55 490.71L343.06 491.49L343.54 492.26L344.01 493.02L344.47 493.78L344.9 494.53L345.31 495.28L345.71 496.02L346.08 496.77L346.43 497.51L346.76 498.25L347.08 498.99L347.36 499.74L347.63 500.49L347.88 501.24L348.1 502L348.3 502.76L348.47 503.53L348.62 504.3L348.75 505.09L348.85 505.88L348.93 506.68L348.98 507.47L349 508.26L349 509.04L348.97 509.81L348.92 510.57L348.84 511.33L348.74 512.07L348.61 512.81L348.47 513.53L348.3 514.25L348.11 514.95L347.89 515.64L347.66 516.31L347.4 516.97L347.12 517.62L346.83 518.25L346.51 518.86L346.17 519.46L345.82 520.04L345.45 520.6L345.06 521.15L344.65 521.67L344.22 522.17L343.78 522.66L343.32 523.12L342.85 523.56L342.36 523.97L341.86 524.36L341.34 524.73L340.81 525.07L340.26 525.39L339.7 525.68L339.13 525.94L338.54 526.18L337.95 526.39L337.34 526.57L336.72 526.72L336.09 526.83L335.45 526.92L334.81 526.98L334.17 527ZM335.04 517.68L335.33 517.61L335.62 517.52L335.9 517.43L336.18 517.31L336.45 517.19L336.71 517.05L336.97 516.9L337.22 516.74L337.47 516.57L337.71 516.38L337.94 516.18L338.16 515.97L338.38 515.76L338.59 515.53L338.79 515.29L338.98 515.04L339.17 514.78L339.34 514.52L339.51 514.24L339.67 513.96L339.82 513.67L339.96 513.37L340.09 513.06L340.21 512.75L340.33 512.43L340.43 512.11L340.52 511.77L340.6 511.44L340.67 511.09L340.73 510.74L340.78 510.39L340.81 510.03L340.84 509.67L340.85 509.31L340.85 508.94L340.84 508.56L340.82 508.19L340.78 507.81L340.73 507.44L340.67 507.06L340.6 506.7L340.52 506.34L340.43 505.99L340.32 505.64L340.21 505.3L340.08 504.96L339.95 504.64L339.81 504.32L339.65 504.01L339.49 503.7L339.32 503.41L339.14 503.12L338.95 502.84L338.76 502.57L338.56 502.31L338.35 502.06L338.13 501.82L337.9 501.59L337.67 501.37L337.44 501.16L337.19 500.96L336.94 500.77L336.69 500.59L336.43 500.43L336.17 500.27L335.9 500.13L335.62 500L335.34 499.89L335.06 499.78L334.78 499.69L334.49 499.62L334.2 499.56L333.9 499.51L333.61 499.47L333.31 499.46L333 499.45L332.7 499.46L332.4 499.49L332.09 499.53L331.8 499.59L331.5 499.66L331.22 499.74L330.93 499.84L330.66 499.95L330.39 500.08L330.12 500.21L329.86 500.36L329.61 500.53L329.36 500.7L329.13 500.89L328.89 501.08L328.67 501.29L328.45 501.51L328.24 501.74L328.04 501.98L327.85 502.22L327.66 502.48L327.49 502.75L327.32 503.02L327.16 503.3L327.01 503.6L326.87 503.89L326.74 504.2L326.62 504.51L326.51 504.83L326.4 505.16L326.31 505.49L326.23 505.83L326.16 506.17L326.1 506.52L326.06 506.87L326.02 507.23L326 507.59L325.98 507.96L325.98 508.33L325.99 508.7L326.02 509.08L326.05 509.45L326.1 509.83L326.16 510.2L326.23 510.57L326.31 510.93L326.41 511.28L326.51 511.63L326.62 511.97L326.75 512.3L326.88 512.63L327.03 512.95L327.18 513.26L327.34 513.56L327.51 513.86L327.69 514.15L327.88 514.43L328.07 514.7L328.28 514.96L328.49 515.21L328.7 515.45L328.93 515.68L329.16 515.9L329.4 516.11L329.64 516.31L329.89 516.5L330.14 516.67L330.4 516.84L330.67 516.99L330.94 517.13L331.21 517.26L331.49 517.38L331.77 517.48L332.06 517.57L332.34 517.65L332.64 517.71L332.93 517.76L333.23 517.79L333.53 517.81L333.83 517.81L334.13 517.8L334.44 517.78L334.74 517.74L335.04 517.68Z" id="b5EFhzptyc"></path><path d="M106.77 606.77L60 46.77L620 46.77L574.52 606.77L106.77 606.77Z" id="aTvQ0iOb8"></path><path d="M15.52 194.53L15.52 163.23L64.48 163.23L64.48 130.74L15.52 130.74L15.52 100" id="c3vkJRIbTa"></path><path d="M322.29 420.48L339.71 420.48L339.71 440.48L322.29 440.48L322.29 420.48Z" id="bDjgG7DG"></path><path d="M163.94 414.79L198.48 414.79L501.18 414.79L520 129.03L135.16 129.03L163.94 414.79Z" id="bbxR1xWi"></path><path d="" id="a1I6dk7fv"></path><path d="M354.16 349.79C354.16 364.48 344.04 376.4 331.58 376.4C319.12 376.4 309 364.48 309 349.79C309 335.1 319.12 323.17 331.58 323.17C344.04 323.17 354.16 335.1 354.16 349.79Z" id="g788oLQEFr"></path><path d="M333.19 352.21L329 295.76L289 294.14" id="atkeBrwUa"></path><path d="M331.84 332.48C340.21 332.48 347 339.27 347 347.65C347 364.61 347 400.35 347 417.32C347 425.7 340.21 432.48 331.84 432.48C328.81 432.48 334.87 432.48 331.84 432.48C323.46 432.48 316.68 425.7 316.68 417.32C316.68 400.35 316.68 364.61 316.68 347.65C316.68 339.27 323.46 332.48 331.84 332.48C334.87 332.48 328.81 332.48 331.84 332.48Z" id="dwG9BR4PJ"></path><path d="M289 290.87C289 296.39 286.33 300.87 283.03 300.87C279.74 300.87 277.07 296.39 277.07 290.87C277.07 285.35 279.74 280.87 283.03 280.87C286.33 280.87 289 285.35 289 290.87Z" id="bcnJDjHXm"></path><path d="" id="aJUDaMFQz"></path><path d="" id="e1Xbj5665L"></path><path d="M412.03 200C423.08 200 432.03 208.95 432.03 220C432.03 258.38 432.03 353.53 432.03 391.92C432.03 402.96 423.08 411.92 412.03 411.92C373.63 411.92 278.41 411.92 240 411.92C228.95 411.92 220 402.96 220 391.92C220 353.53 220 258.38 220 220C220 208.95 228.95 200 240 200C278.41 200 373.63 200 412.03 200Z" id="a2GNwFAYg"></path><path d="M411.48 204.9C422.52 204.9 431.48 213.86 431.48 224.9C431.48 262.66 431.48 355.92 431.48 393.67C431.48 404.72 422.52 413.67 411.48 413.67C376.18 413.67 290.28 413.67 254.98 413.67C243.94 413.67 234.98 404.72 234.98 393.67C234.98 355.92 234.98 262.66 234.98 224.9C234.98 213.86 243.94 204.9 254.98 204.9C290.28 204.9 376.18 204.9 411.48 204.9Z" id="b2HOx3xIGx"></path><path d="M354.16 351.79C354.16 366.48 344.04 378.4 331.58 378.4C319.12 378.4 309 366.48 309 351.79C309 337.1 319.12 325.17 331.58 325.17C344.04 325.17 354.16 337.1 354.16 351.79Z" id="a4LBHc5GP"></path><path d="M333.19 354.21L329 297.76L289 296.14" id="cWey5QNkd"></path><path d="M331.84 334.48C340.21 334.48 347 341.27 347 349.65C347 366.61 347 402.35 347 419.32C347 427.7 340.21 434.48 331.84 434.48C328.81 434.48 334.87 434.48 331.84 434.48C323.46 434.48 316.68 427.7 316.68 419.32C316.68 402.35 316.68 366.61 316.68 349.65C316.68 341.27 323.46 334.48 331.84 334.48C334.87 334.48 328.81 334.48 331.84 334.48Z" id="b4cpTQ5f6S"></path><path d="M289 292.87C289 298.39 286.33 302.87 283.03 302.87C279.74 302.87 277.07 298.39 277.07 292.87C277.07 287.35 279.74 282.87 283.03 282.87C286.33 282.87 289 287.35 289 292.87Z" id="aWdChlJZy"></path><path d="M343.21 539.78L343.83 539.63L344.45 539.45L345.05 539.24L345.65 538.99L346.23 538.71L346.8 538.39L347.35 538.05L347.89 537.68L348.42 537.28L348.94 536.84L349.44 536.38L349.92 535.9L350.39 535.39L350.84 534.85L351.28 534.28L351.7 533.7L352.1 533.09L352.48 532.45L352.85 531.8L353.2 531.12L353.52 530.42L353.83 529.71L354.12 528.97L354.39 528.22L354.63 527.45L354.86 526.67L355.06 525.86L355.24 525.05L355.4 524.22L355.54 523.37L355.65 522.52L355.74 521.65L355.8 520.77L355.84 519.88L355.85 518.98L355.84 518.07L355.8 517.15L355.73 516.23L355.64 515.31L355.52 514.4L355.38 513.49L355.21 512.6L355.02 511.71L354.81 510.83L354.57 509.95L354.31 509.07L354.03 508.2L353.72 507.33L353.4 506.46L353.05 505.59L352.68 504.71L352.29 503.83L351.89 502.95L351.46 502.06L351.01 501.17L350.55 500.27L350.06 499.36L349.56 498.44L349.04 497.51L348.51 496.57L347.96 495.62L347.39 494.65L346.81 493.66L346.21 492.66L345.6 491.65L344.97 490.61L344.33 489.55L343.67 488.48L343 487.38L342.32 486.26L341.63 485.12L340.92 483.95L340.2 482.75L339.48 481.53L338.74 480.28L337.99 479L337.23 477.69L336.46 476.35L335.93 477.8L335.41 479.22L334.89 480.61L334.37 481.97L333.86 483.3L333.36 484.6L332.86 485.87L332.38 487.12L331.89 488.34L331.42 489.53L330.96 490.7L330.51 491.85L330.07 492.98L329.64 494.09L329.22 495.17L328.81 496.24L328.41 497.29L328.03 498.33L327.67 499.35L327.32 500.35L326.98 501.34L326.66 502.32L326.35 503.29L326.07 504.25L325.8 505.19L325.54 506.13L325.31 507.06L325.1 507.99L324.9 508.9L324.73 509.82L324.58 510.73L324.45 511.64L324.34 512.54L324.26 513.45L324.2 514.36L324.16 515.26L324.15 516.17L324.16 517.09L324.2 518.01L324.27 518.93L324.36 519.85L324.48 520.76L324.62 521.66L324.79 522.54L324.98 523.41L325.19 524.27L325.42 525.11L325.68 525.94L325.96 526.75L326.25 527.54L326.57 528.31L326.91 529.07L327.26 529.8L327.64 530.52L328.03 531.21L328.44 531.89L328.86 532.54L329.31 533.17L329.76 533.78L330.24 534.36L330.72 534.92L331.22 535.45L331.73 535.96L332.26 536.44L332.8 536.9L333.35 537.32L333.91 537.72L334.48 538.09L335.06 538.42L335.65 538.73L336.25 539.01L336.85 539.25L337.47 539.46L338.09 539.64L338.71 539.78L339.35 539.89L339.98 539.96L340.63 540L341.27 540L341.92 539.96L342.57 539.89L343.21 539.78ZM340.4 529.38L340.09 529.36L339.79 529.33L339.49 529.27L339.19 529.21L338.9 529.12L338.61 529.02L338.32 528.91L338.04 528.78L337.76 528.63L337.49 528.47L337.22 528.3L336.95 528.11L336.69 527.91L336.44 527.69L336.19 527.47L335.94 527.22L335.71 526.97L335.48 526.71L335.25 526.43L335.04 526.14L334.83 525.85L334.63 525.54L334.43 525.22L334.25 524.89L334.07 524.55L333.9 524.2L333.74 523.84L333.59 523.47L333.45 523.1L333.32 522.72L333.2 522.33L333.09 521.93L332.98 521.52L332.89 521.11L332.82 520.69L332.75 520.27L332.69 519.83L332.65 519.4L332.62 518.96L332.6 518.53L332.59 518.1L332.6 517.67L332.62 517.25L332.65 516.83L332.69 516.42L332.74 516.01L332.81 515.61L332.88 515.22L332.97 514.83L333.06 514.45L333.17 514.08L333.29 513.72L333.41 513.36L333.55 513.01L333.7 512.67L333.85 512.34L334.02 512.02L334.19 511.71L334.37 511.41L334.56 511.12L334.76 510.85L334.97 510.58L335.18 510.32L335.4 510.08L335.63 509.85L335.87 509.63L336.11 509.43L336.36 509.24L336.62 509.06L336.88 508.9L337.15 508.75L337.43 508.62L337.71 508.5L337.99 508.4L338.29 508.31L338.58 508.24L338.88 508.19L339.19 508.16L339.5 508.14L339.81 508.14L340.11 508.16L340.41 508.19L340.71 508.24L341.01 508.31L341.3 508.39L341.59 508.49L341.88 508.61L342.16 508.74L342.44 508.89L342.72 509.05L342.99 509.22L343.25 509.41L343.51 509.61L343.77 509.82L344.02 510.05L344.26 510.29L344.5 510.54L344.73 510.81L344.95 511.09L345.17 511.37L345.38 511.67L345.58 511.98L345.77 512.3L345.96 512.63L346.13 512.97L346.3 513.32L346.46 513.68L346.61 514.04L346.75 514.42L346.89 514.8L347.01 515.19L347.12 515.59L347.22 515.99L347.31 516.41L347.39 516.83L347.45 517.25L347.51 517.68L347.55 518.12L347.58 518.56L347.6 518.99L347.61 519.42L347.6 519.85L347.59 520.27L347.56 520.68L347.51 521.1L347.46 521.5L347.4 521.9L347.32 522.3L347.24 522.68L347.14 523.06L347.03 523.43L346.92 523.8L346.79 524.16L346.65 524.5L346.51 524.84L346.35 525.17L346.19 525.49L346.01 525.8L345.83 526.1L345.64 526.39L345.44 526.67L345.24 526.94L345.02 527.19L344.8 527.44L344.57 527.67L344.33 527.88L344.09 528.09L343.84 528.28L343.58 528.46L343.32 528.62L343.05 528.77L342.78 528.9L342.5 529.02L342.21 529.12L341.92 529.2L341.62 529.27L341.32 529.33L341.01 529.36L340.7 529.38L340.4 529.38Z" id="eDBWSXO5X"></path></defs><g><g><g><use xlink:href="#b5EFhzptyc" opacity="1" fill="#ffffff" fill-opacity="1"></use><g><use xlink:href="#b5EFhzptyc" opacity="1" fill-opacity="0" stroke="#439bf3" stroke-width="10" stroke-opacity="1"></use></g></g><g><use xlink:href="#aTvQ0iOb8" opacity="1" fill="#e3eef4" fill-opacity="1"></use><g><use xlink:href="#aTvQ0iOb8" opacity="1" fill-opacity="0" stroke="#439bf3" stroke-width="10" stroke-opacity="1"></use></g></g><g><g><use xlink:href="#c3vkJRIbTa" opacity="1" fill-opacity="0" stroke="#439bf3" stroke-width="10" stroke-opacity="1"></use></g></g><g><use xlink:href="#bDjgG7DG" opacity="1" fill="#ffffff" fill-opacity="1"></use><g><use xlink:href="#bDjgG7DG" opacity="1" fill-opacity="0" stroke="#439bf3" stroke-width="10" stroke-opacity="1"></use></g></g><g><use xlink:href="#bbxR1xWi" opacity="1" fill="#439bf3" fill-opacity="1"></use><g><use xlink:href="#bbxR1xWi" opacity="1" fill-opacity="0" stroke="#439bf3" stroke-width="10" stroke-opacity="1"></use></g></g><g><g><use xlink:href="#a1I6dk7fv" opacity="1" fill-opacity="0" stroke="#439bf3" stroke-width="10" stroke-opacity="1"></use></g></g><g><use xlink:href="#g788oLQEFr" opacity="1" fill="#ffffff" fill-opacity="1"></use><g><use xlink:href="#g788oLQEFr" opacity="1" fill-opacity="0" stroke="#439bf3" stroke-width="10" stroke-opacity="1"></use></g></g><g><g><use xlink:href="#atkeBrwUa" opacity="1" fill-opacity="0" stroke="#439bf3" stroke-width="10" stroke-opacity="1"></use></g></g><g><use xlink:href="#dwG9BR4PJ" opacity="1" fill="#ffffff" fill-opacity="1"></use><g><use xlink:href="#dwG9BR4PJ" opacity="1" fill-opacity="0" stroke="#439bf3" stroke-width="10" stroke-opacity="1"></use></g></g><g><use xlink:href="#bcnJDjHXm" opacity="1" fill="#ffffff" fill-opacity="1"></use><g><use xlink:href="#bcnJDjHXm" opacity="1" fill-opacity="0" stroke="#439bf3" stroke-width="10" stroke-opacity="1"></use></g></g><g><g><use xlink:href="#aJUDaMFQz" opacity="1" fill-opacity="0" stroke="#439bf3" stroke-width="10" stroke-opacity="1"></use></g></g><g><g><use xlink:href="#e1Xbj5665L" opacity="1" fill-opacity="0" stroke="#439bf3" stroke-width="10" stroke-opacity="1"></use></g></g><g><use xlink:href="#a2GNwFAYg" opacity="0" fill="#ffffff" fill-opacity="1"></use></g><g><use xlink:href="#b2HOx3xIGx" opacity="1" fill="#f8f8f8" fill-opacity="1"></use><g><use xlink:href="#b2HOx3xIGx" opacity="1" fill-opacity="0" stroke="#439bf3" stroke-width="10" stroke-opacity="1"></use></g></g><g><use xlink:href="#a4LBHc5GP" opacity="1" fill="#ffffff" fill-opacity="1"></use><g><use xlink:href="#a4LBHc5GP" opacity="1" fill-opacity="0" stroke="#439bf3" stroke-width="10" stroke-opacity="1"></use></g></g><g><g><use xlink:href="#cWey5QNkd" opacity="1" fill-opacity="0" stroke="#439bf3" stroke-width="10" stroke-opacity="1"></use></g></g><g><use xlink:href="#b4cpTQ5f6S" opacity="1" fill="#ffffff" fill-opacity="1"></use><g><use xlink:href="#b4cpTQ5f6S" opacity="1" fill-opacity="0" stroke="#439bf3" stroke-width="10" stroke-opacity="1"></use></g></g><g><use xlink:href="#aWdChlJZy" opacity="1" fill="#ffffff" fill-opacity="1"></use><g><use xlink:href="#aWdChlJZy" opacity="1" fill-opacity="0" stroke="#439bf3" stroke-width="10" stroke-opacity="1"></use></g></g><g><use xlink:href="#eDBWSXO5X" opacity="1" fill="#f8f0f0" fill-opacity="1"></use><g><use xlink:href="#eDBWSXO5X" opacity="1" fill-opacity="0" stroke="#439bf3" stroke-width="10" stroke-opacity="1"></use></g></g></g></g></svg>