<?xml version="1.0" encoding="iso-8859-1"?>
<!-- Generator: Adobe Illustrator 19.0.0, SVG Export Plug-In . SVG Version: 6.00 Build 0)  -->
<svg version="1.1" id="Capa_1" xmlns="http://www.w3.org/2000/svg" xmlns:xlink="http://www.w3.org/1999/xlink" x="0px" y="0px"
	 viewBox="0 0 480 480" style="enable-background:new 0 0 480 480;" xml:space="preserve">
<g>
	<g>
		<g>
			<path d="M392.004,0h-160c-30.913,0.035-55.965,25.087-56,56v224c0.035,30.913,25.087,55.965,56,56h16v40c0,4.418,3.582,8,8,8h8
				v40c-0.026,22.08-17.92,39.974-40,40h-96c-22.08-0.026-39.974-17.92-40-40V270.528c9.555-3.378,15.958-12.394,16-22.528v-94.504
				c22.958-13.255,30.824-42.611,17.569-65.569c-13.255-22.958-42.611-30.824-65.569-17.569s-30.824,42.611-17.569,65.569
				c4.213,7.297,10.272,13.356,17.569,17.569V248c0.042,10.134,6.445,19.15,16,22.528V424c0.035,30.913,25.087,55.965,56,56h96
				c30.913-0.035,55.965-25.087,56-56v-40h8c4.418,0,8-3.582,8-8v-40h48v40c0,4.418,3.582,8,8,8h8v88c0,4.418,3.582,8,8,8
				s8-3.582,8-8v-88h8c4.418,0,8-3.582,8-8v-40c30.913-0.035,55.965-25.087,56-56V56C447.969,25.087,422.917,0.035,392.004,0z
				 M224.004,319.2c-18.613-3.825-31.979-20.198-32-39.2V56c0.021-19.002,13.387-35.375,32-39.2V319.2z M88.004,224h-16v-64.664
				c0.272,0.048,0.552,0,0.8,0.072c2.361,0.371,4.746,0.569,7.136,0.592h0.128c2.371-0.025,4.738-0.222,7.08-0.592
				c0.28,0,0.576,0,0.856-0.072V224z M67.18,141.36c-16.215-7.029-23.662-25.872-16.633-42.087
				C55.633,87.54,67.216,79.961,80.004,80c17.673-0.071,32.058,14.198,32.129,31.871c0.052,12.8-7.529,24.399-19.273,29.489
				C84.66,144.871,75.38,144.871,67.18,141.36z M80.004,256c-4.418,0-8-3.582-8-8v-8h16v8C88.004,252.418,84.422,256,80.004,256z
				 M280.004,368h-16v-32h16V368z M376.004,368h-16v-32h16V368z M384.004,320h-144V16h144V320z M432.004,280
				c-0.021,19.002-13.387,35.375-32,39.2V16.8c18.613,3.825,31.979,20.198,32,39.2V280z"/>
			<path d="M312.004,296c22.08-0.026,39.974-17.92,40-40v-64c0-22.091-17.909-40-40-40c-22.091,0-40,17.909-40,40v64
				C272.03,278.08,289.924,295.974,312.004,296z M288.004,192c0-13.255,10.745-24,24-24s24,10.745,24,24v24h-48V192z M288.004,232
				h48v24c0,13.255-10.745,24-24,24s-24-10.745-24-24V232z"/>
			<path d="M288.004,64h48c4.418,0,8-3.582,8-8s-3.582-8-8-8h-48c-4.418,0-8,3.582-8,8S283.586,64,288.004,64z"/>
			<path d="M288.004,96h48c4.418,0,8-3.582,8-8s-3.582-8-8-8h-48c-4.418,0-8,3.582-8,8S283.586,96,288.004,96z"/>
			<circle cx="80.004" cy="112" r="16"/>
		</g>
	</g>
</g>
<g>
</g>
<g>
</g>
<g>
</g>
<g>
</g>
<g>
</g>
<g>
</g>
<g>
</g>
<g>
</g>
<g>
</g>
<g>
</g>
<g>
</g>
<g>
</g>
<g>
</g>
<g>
</g>
<g>
</g>
</svg>
