<svg height="480pt" viewBox="0 0 480 480" width="480pt" xmlns="http://www.w3.org/2000/svg"><path d="m144 104h320v64h-320zm0 0" fill="#86d5e2"/><path d="m184 8h240c8.835938 0 16 7.164062 16 16v32c0 8.835938-7.164062 16-16 16h-240c-8.835938 0-16-7.164062-16-16v-32c0-8.835938 7.164062-16 16-16zm0 0" fill="#2d75bb"/><path d="m136 24h32v32h-32zm0 0" fill="#195c85"/><path d="m440 24h32v32h-32zm0 0" fill="#195c85"/><path d="m216 40h16v64h-16zm0 0" fill="#ffd782"/><path d="m376 40h16v64h-16zm0 0" fill="#ffd782"/><path d="m280 32h48v16h-48zm0 0" fill="#cdeef6"/><path d="m344 32h16v16h-16zm0 0" fill="#cdeef6"/><path d="m248 32h16v16h-16zm0 0" fill="#cdeef6"/><path d="m160 168h128v32h-128zm0 0" fill="#2d75bb"/><path d="m176 200h96v224c0 26.507812-21.492188 48-48 48s-48-21.492188-48-48zm0 0" fill="#87cee9"/><path d="m320 168h128v32h-128zm0 0" fill="#2d75bb"/><path d="m336 200h96v224c0 26.507812-21.492188 48-48 48s-48-21.492188-48-48zm0 0" fill="#87cee9"/><path d="m72 216h-16v-124c0-11.046875-8.953125-20-20-20s-20 8.953125-20 20v20h-16v-20c0-19.882812 16.117188-36 36-36s36 16.117188 36 36zm0 0" fill="#ffd782"/><path d="m48 216h32v64h-32zm0 0" fill="#2d75bb"/><path d="m16 240h32v16h-32zm0 0" fill="#86d5e2"/><path d="m8 192h16v80h-16zm0 0" fill="#dd3e46"/><path d="m88 408c-17.671875 0-32-14.328125-32-32v-96h16v96c0 8.835938 7.164062 16 16 16s16-7.164062 16-16v-224c0-13.253906 10.746094-24 24-24h16v16h-16c-4.417969 0-8 3.582031-8 8v224c0 17.671875-14.328125 32-32 32zm0 0" fill="#ffd782"/><g fill="#cdeef6"><path d="m368 360h32v64c0 8.835938-7.164062 16-16 16s-16-7.164062-16-16zm0 0"/><path d="m208 360h32v64c0 8.835938-7.164062 16-16 16s-16-7.164062-16-16zm0 0"/><path d="m144 128h64v16h-64zm0 0"/><path d="m224 128h16v16h-16zm0 0"/><path d="m216 272h-16v-40c0-4.417969 3.582031-8 8-8h24v16h-16zm0 0"/><path d="m376 272h-16v-40c0-4.417969 3.582031-8 8-8h24v16h-16zm0 0"/></g><path d="m472 16h-25.472656c-3.378906-9.554688-12.394532-15.9570312-22.527344-16h-240c-10.132812.0429688-19.148438 6.445312-22.527344 16h-25.472656c-4.417969 0-8 3.582031-8 8v32c0 4.417969 3.582031 8 8 8h25.472656c3.378906 9.554688 12.394532 15.957031 22.527344 16h32v16h-72c-4.417969 0-8 3.582031-8 8v24h-8c-13.253906 0-24 10.746094-24 24v224c0 8.835938-7.164062 16-16 16s-16-7.164062-16-16v-88h16v-80h-16v-116c0-19.882812-16.117188-36-36-36s-36 16.117188-36 36v20h16v-20c0-11.046875 8.953125-20 20-20s20 8.953125 20 20v116h-16v32h-16v-48h-16v80h16v-16h16v32h16v88c0 17.671875 14.328125 32 32 32s32-14.328125 32-32v-224c0-4.417969 3.582031-8 8-8h8v24c0 4.417969 3.582031 8 8 8h8v24c0 4.417969 3.582031 8 8 8h8v216c0 30.929688 25.070312 56 56 56s56-25.070312 56-56v-216h8c4.417969 0 8-3.582031 8-8v-24h16v24c0 4.417969 3.582031 8 8 8h8v216c0 30.929688 25.070312 56 56 56s56-25.070312 56-56v-216h8c4.417969 0 8-3.582031 8-8v-24h8c4.417969 0 8-3.582031 8-8v-64c0-4.417969-3.582031-8-8-8h-72v-16h32c10.132812-.042969 19.148438-6.445312 22.527344-16h25.472656c4.417969 0 8-3.582031 8-8v-32c0-4.417969-3.582031-8-8-8zm-416 208h16v48h-16zm88-192h16v16h-16zm120 392c0 22.089844-17.910156 40-40 40s-40-17.910156-40-40v-216h80zm16-232h-112v-16h112zm144 232c0 22.089844-17.910156 40-40 40s-40-17.910156-40-40v-216h80zm16-232h-112v-16h112zm16-32h-304v-16h56v-16h-56v-16h304zm-80-64h-144v-16h144zm48-32h-32v-24h-16v24h-144v-24h-16v24h-32c-4.417969 0-8-3.582031-8-8v-32c0-4.417969 3.582031-8 8-8h240c4.417969 0 8 3.582031 8 8v32c0 4.417969-3.582031 8-8 8zm40-16h-16v-16h16zm0 0"/><path d="m280 32h48v16h-48zm0 0"/><path d="m344 32h16v16h-16zm0 0"/><path d="m248 32h16v16h-16zm0 0"/><path d="m384 448c13.253906 0 24-10.746094 24-24v-72h-48v72c0 13.253906 10.746094 24 24 24zm-8-80h16v56c0 4.417969-3.582031 8-8 8s-8-3.582031-8-8zm0 0"/><path d="m224 448c13.253906 0 24-10.746094 24-24v-72h-48v72c0 13.253906 10.746094 24 24 24zm-8-80h16v56c0 4.417969-3.582031 8-8 8s-8-3.582031-8-8zm0 0"/><path d="m224 128h16v16h-16zm0 0"/><path d="m216 240h16v-16h-24c-4.417969 0-8 3.582031-8 8v40h16zm0 0"/><path d="m376 240h16v-16h-24c-4.417969 0-8 3.582031-8 8v40h16zm0 0"/></svg>